<svg width="32" height="32" viewBox="0 0 32 32" fill="none" xmlns="http://www.w3.org/2000/svg">
<path d="M26.6665 5.33334H5.33317C3.8665 5.33334 2.67984 6.53334 2.67984 8.00001L2.6665 24C2.6665 25.4667 3.8665 26.6667 5.33317 26.6667H26.6665C28.1332 26.6667 29.3332 25.4667 29.3332 24V8.00001C29.3332 6.53334 28.1332 5.33334 26.6665 5.33334ZM5.33317 12H19.3332V16.6667H5.33317V12ZM5.33317 19.3333H19.3332V24H6.6665C5.93317 24 5.33317 23.4 5.33317 22.6667V19.3333ZM25.3332 24H21.9998V12H26.6665V22.6667C26.6665 23.4 26.0665 24 25.3332 24Z" fill="#715004"/>
</svg>
