<svg width="32" height="32" viewBox="0 0 32 32" fill="none" xmlns="http://www.w3.org/2000/svg">
<g clip-path="url(#clip0_18_576)">
<path d="M15.9865 2.66669C8.6265 2.66669 2.6665 8.64002 2.6665 16C2.6665 23.36 8.6265 29.3334 15.9865 29.3334C23.3598 29.3334 29.3332 23.36 29.3332 16C29.3332 8.64002 23.3598 2.66669 15.9865 2.66669ZM15.9998 26.6667C10.1065 26.6667 5.33317 21.8934 5.33317 16C5.33317 10.1067 10.1065 5.33335 15.9998 5.33335C21.8932 5.33335 26.6665 10.1067 26.6665 16C26.6665 21.8934 21.8932 26.6667 15.9998 26.6667ZM15.7065 9.33335H15.6265C15.0932 9.33335 14.6665 9.76002 14.6665 10.2934V16.5867C14.6665 17.0534 14.9065 17.4934 15.3198 17.7334L20.8532 21.0534C21.3065 21.32 21.8932 21.1867 22.1598 20.7334C22.4398 20.28 22.2932 19.68 21.8265 19.4134L16.6665 16.3467V10.2934C16.6665 9.76002 16.2398 9.33335 15.7065 9.33335Z" fill="#715004"/>
</g>
<defs>
<clipPath id="clip0_18_576">
<rect width="32" height="32" fill="white"/>
</clipPath>
</defs>
</svg>
