<svg width="32" height="32" viewBox="0 0 32 32" fill="none" xmlns="http://www.w3.org/2000/svg">
<g clip-path="url(#clip0_18_589)">
<path d="M24.6665 5.33334C25.7732 5.33334 26.6665 6.22668 26.6665 7.33334V24.6667C26.6665 25.7733 25.7732 26.6667 24.6665 26.6667C23.5598 26.6667 22.6665 25.7733 22.6665 24.6667V7.33334C22.6665 6.22668 23.5598 5.33334 24.6665 5.33334ZM8.6665 18.6667C9.77317 18.6667 10.6665 19.56 10.6665 20.6667V24.6667C10.6665 25.7733 9.77317 26.6667 8.6665 26.6667C7.55984 26.6667 6.6665 25.7733 6.6665 24.6667V20.6667C6.6665 19.56 7.55984 18.6667 8.6665 18.6667ZM16.6665 12C17.7732 12 18.6665 12.8933 18.6665 14V24.6667C18.6665 25.7733 17.7732 26.6667 16.6665 26.6667C15.5598 26.6667 14.6665 25.7733 14.6665 24.6667V14C14.6665 12.8933 15.5598 12 16.6665 12Z" fill="#715004"/>
</g>
<defs>
<clipPath id="clip0_18_589">
<rect width="32" height="32" fill="white"/>
</clipPath>
</defs>
</svg>
