<svg width="167" height="72" viewBox="0 0 167 72" fill="none" xmlns="http://www.w3.org/2000/svg">
<path d="M142.391 28.548L137.454 21.9536C137.454 21.9536 133.839 26.8661 133.825 26.8661V39.905L142.391 28.548Z" fill="#FF8C3E"/>
<path d="M133.825 26.8661C133.714 27.0326 127.763 35.1923 127.749 35.209C126.956 36.3414 126.817 37.6736 126.831 39.0224V49.1971L133.825 39.905V38.8059V26.8661Z" fill="#FF4E17"/>
<path d="M126.831 49.1971C126.831 49.9132 126.831 55.4418 126.831 56.3411H133.825V39.905L126.831 49.1971Z" fill="#FF703E"/>
<path d="M142.391 28.548L147.327 21.9536C147.327 21.9536 150.942 26.8661 150.956 26.8661V39.905L142.391 28.548Z" fill="#5FD7FC"/>
<path d="M150.942 26.8661C151.054 27.0326 157.005 35.1923 157.019 35.209C157.811 36.3414 157.95 37.6736 157.937 39.0224V49.1971L150.942 39.905V38.8059V26.8661Z" fill="#15B8EA"/>
<path d="M157.937 49.1971C157.937 49.9132 157.937 55.4418 157.937 56.3411H150.942V39.905L157.937 49.1971Z" fill="#3C8BCA"/>
<path d="M147.327 21.9536C147.327 21.9536 144.017 17.4907 144.003 17.474C143.252 16.5082 142.794 16.0586 142.376 16.0419C141.959 16.0586 141.5 16.5248 140.75 17.474C140.736 17.4907 137.454 21.9536 137.454 21.9536L142.39 28.548L147.327 21.9536Z" fill="#FC611E"/>
<path d="M51.3612 54.2186H51.3345L49.1171 47.8381H47.7412L50.6667 55.7976L49.2507 59.4551H50.5597L54.9011 47.8381H53.6053L51.3612 54.2186Z" fill="#222222"/>
<path d="M62.1148 47.8541C59.9908 47.8541 58.4814 49.6103 58.4814 52.0917C58.4814 54.6375 60.0711 56.3293 62.5289 56.3293C63.6242 56.3293 64.5726 55.9909 65.2004 55.3947V53.8963H65.147C64.5059 54.6214 63.5975 55.0081 62.5689 55.0081C60.9927 55.0081 59.9374 54.0897 59.7638 52.5751L65.6412 52.5913V51.7695C65.6414 49.401 64.2521 47.8541 62.1148 47.8541ZM59.7638 51.3345C59.9908 50.0294 60.9393 49.1594 62.1281 49.1594C63.3971 49.1594 64.2922 50.0133 64.4658 51.3345H59.7638Z" fill="#222222"/>
<path d="M71.2787 50.6577H67.1377V52.1561H71.2787V50.6577Z" fill="#222222"/>
<path d="M85.1037 47.8381C82.9531 47.8381 81.417 49.5943 81.417 52.0757C81.417 54.5571 82.9532 56.3133 85.1037 56.3133C87.2544 56.3133 88.7905 54.5571 88.7905 52.0757C88.7905 49.5943 87.2677 47.8381 85.1037 47.8381ZM85.1037 54.9919C83.6744 54.9919 82.6993 53.7996 82.6993 52.0755C82.6993 50.3515 83.6878 49.1592 85.1037 49.1592C86.5197 49.1592 87.5082 50.3677 87.5082 52.0755C87.5082 53.7834 86.5197 54.9919 85.1037 54.9919Z" fill="#222222"/>
<path d="M103.084 46.4363C103.541 46.4363 103.912 45.9963 103.912 45.4535C103.912 44.9107 103.541 44.4706 103.084 44.4706C102.627 44.4706 102.256 44.9107 102.256 45.4535C102.256 45.9963 102.627 46.4363 103.084 46.4363Z" fill="#222222"/>
<path d="M103.738 47.8703H102.469V56.281H103.738V47.8703Z" fill="#222222"/>
<path d="M111.593 49.0949V47.8541H105.835V49.1915H109.896L105.608 55.0564V56.281H111.66V54.9436H107.318L111.593 49.0949Z" fill="#222222"/>
<path d="M113.903 44.4705C113.409 44.4705 113.075 44.8733 113.075 45.4533C113.075 46.0333 113.409 46.4362 113.903 46.4362C114.398 46.4362 114.732 46.0333 114.732 45.4533C114.732 44.8733 114.384 44.4866 113.903 44.4705Z" fill="#222222"/>
<path d="M114.532 47.8541H113.263V56.297H114.532V47.8541Z" fill="#222222"/>
<path d="M117.75 43.9711H116.481V56.2648H117.75V43.9711Z" fill="#222222"/>
<path d="M98.3947 47.7897C97.1124 47.7897 96.3109 48.3375 95.87 49.4493H95.8433C95.4292 48.3537 94.6277 47.7897 93.5992 47.7897C92.4904 47.7897 91.7425 48.3052 91.315 49.2398H91.2883L91.2349 47.8703H90.1797V56.2971L91.4353 56.281L91.4486 52.0434C91.4486 50.2066 92.0898 49.1915 93.292 49.1915C94.4141 49.1915 94.9886 50.0616 94.9886 51.705V56.281H96.2575V52.1402C96.2575 50.2228 96.8987 49.1917 98.0875 49.1917C99.1963 49.1917 99.7841 50.0617 99.7841 51.7052V56.2811H101.053V51.5442C101.053 49.1432 100.091 47.7897 98.3947 47.7897Z" fill="#222222"/>
<path d="M44.1081 47.8703C42.9727 47.8703 42.1178 48.3214 41.5567 49.1109H41.53V44.0355H40.3145V56.3293H41.4099L41.3832 54.9113H41.4099C41.9309 55.8135 42.8926 56.3776 44.1083 56.3776C46.1253 56.3776 47.5946 54.6052 47.5946 52.14C47.5945 49.6426 46.1385 47.8703 44.1081 47.8703ZM43.9078 55.0404C42.4918 55.0404 41.5033 53.8319 41.5033 52.124C41.5033 50.4 42.5052 49.2076 43.9078 49.2076C45.337 49.2076 46.3122 50.4161 46.3122 52.124C46.3122 53.8319 45.337 55.0404 43.9078 55.0404Z" fill="#222222"/>
<path d="M78.8252 49.0464H78.7985C78.2508 48.2569 77.3826 47.8058 76.2471 47.8058C74.2167 47.8381 72.7607 49.6105 72.7607 52.0755C72.7607 54.5408 74.2167 56.3131 76.2471 56.3131C77.476 56.3131 78.4245 55.7493 78.9455 54.8469H78.9722L78.9455 56.2648H80.0409V43.9711H78.8254L78.8252 49.0464ZM76.4475 54.9919C75.0182 55.008 74.0431 53.7996 74.0431 52.0755C74.0431 50.3515 75.0316 49.1592 76.4475 49.1592C77.8634 49.1592 78.8519 50.3676 78.8519 52.0755C78.8653 53.7996 77.8634 54.9919 76.4475 54.9919Z" fill="#222222"/>
<path d="M80.8474 21.5706L75.8138 35.9917L70.7942 21.5706H68.333L74.5902 38.8393H76.954L83.2112 21.5706H80.8474Z" fill="#222222"/>
<path d="M22.8922 21.5206V24.568C21.7242 22.6863 19.7219 21.5206 17.1495 21.5206C17.1217 21.5206 17.08 21.5206 17.0522 21.5206C17.0104 21.5206 16.9687 21.5206 16.9131 21.5206C12.686 21.5206 9.62695 25.1509 9.62695 30.2132C9.62695 35.259 12.686 38.8559 16.9131 38.8559C16.9409 38.8559 16.9687 38.8559 17.0104 38.8559C17.0661 38.8559 17.1078 38.8559 17.1634 38.8559C19.7358 38.8559 21.752 37.7069 22.9061 35.8251L22.92 38.8393H23.1564H24.9918V21.5206H22.8922ZM11.963 30.2299C11.963 26.4165 14.2017 23.7187 17.3581 23.6688C20.5284 23.752 22.7393 26.4331 22.7393 30.2299C22.7393 34.0433 20.5006 36.7077 17.3164 36.7577C14.1738 36.6744 11.963 34.01 11.963 30.2299Z" fill="#222222"/>
<path d="M63.4948 21.504V24.5514C62.3267 22.6696 60.3244 21.504 57.752 21.504C57.7103 21.504 57.6825 21.504 57.6547 21.504C57.613 21.504 57.5713 21.504 57.5156 21.504C53.2886 21.504 50.2295 25.1342 50.2295 30.1966C50.2295 35.2423 53.2886 38.8393 57.5156 38.8393C57.5435 38.8393 57.5713 38.8393 57.613 38.8393C57.6686 38.8393 57.7103 38.8393 57.7659 38.8393C60.3383 38.8393 62.3546 37.6903 63.5087 35.8085L63.5226 38.8226H65.5944V21.504H65.358H63.4948ZM52.5794 30.2133C52.5794 26.3998 54.8181 23.7021 57.9745 23.6521C61.1448 23.7354 63.3557 26.4165 63.3557 30.2133C63.3557 34.0267 61.1309 36.6911 57.9467 36.7411C54.7903 36.6578 52.5794 34.01 52.5794 30.2133Z" fill="#222222"/>
<path d="M110.16 21.5206C110.132 21.5206 110.09 21.5206 110.062 21.5206C110.02 21.5206 109.965 21.5206 109.923 21.5206C105.474 21.5206 102.331 25.1176 102.331 30.1966C102.331 35.2423 105.487 38.8393 109.923 38.8393C109.951 38.8393 109.993 38.8393 110.02 38.8393C110.062 38.8393 110.118 38.8393 110.16 38.8393C114.595 38.8393 117.779 35.2423 117.779 30.1966C117.779 25.1176 114.609 21.5206 110.16 21.5206ZM104.667 30.1966C104.667 26.3998 106.906 23.7021 110.062 23.6521C113.219 23.7354 115.443 26.3998 115.443 30.1966C115.443 34.01 113.205 36.6578 110.02 36.7077C106.878 36.6245 104.667 33.9767 104.667 30.1966Z" fill="#222222"/>
<path d="M37.3255 35.7086C36.8111 36.3414 36.088 36.6078 35.351 36.6411C33.7659 36.5912 32.7786 35.3089 32.7786 33.1274V23.6188H37.5897V21.5206H37.3533H32.7786V16.1252H32.5423H30.4982L30.4843 21.5206H27.6895V23.6355H27.9258H30.4565L30.4704 33.2107C30.4704 36.791 32.0695 38.8226 34.9478 38.8226C34.9756 38.8226 35.0034 38.8226 35.0312 38.8226C35.0869 38.8226 35.1286 38.8226 35.1842 38.8226C36.0185 38.8226 36.7554 38.6727 37.3255 38.373V35.7086Z" fill="#222222"/>
<path d="M48.9782 21.887C48.4915 21.6205 47.5043 21.4373 46.9898 21.4207C44.8762 21.3541 43.2772 22.4032 42.3873 24.3016L42.3734 21.5039H40.3154V38.8226H42.5958V30.8793C42.5958 26.2832 44.0141 23.8353 46.809 23.7687C47.6155 23.7853 48.3664 24.0185 48.9782 24.5014V21.887Z" fill="#222222"/>
<path d="M98.354 34.3264H98.3401C96.9357 35.9084 95.1558 36.6911 93.0006 36.7077C89.5105 36.6411 87.2022 34.4097 86.9241 30.9127L99.6193 30.9293V29.5471C99.6193 24.7179 96.741 21.5539 92.3053 21.5539C92.2775 21.5539 92.2497 21.5539 92.2219 21.5539C92.1663 21.5539 92.1246 21.5539 92.069 21.5539C87.6611 21.5539 84.5742 25.1342 84.5742 30.2133C84.5742 35.4255 87.8141 38.8393 92.8476 38.8393C92.8754 38.8393 92.9032 38.8393 92.945 38.8393C93.0006 38.8393 93.0423 38.8393 93.084 38.8393C95.1976 38.8393 97.0608 38.2065 98.354 37.0741V34.3264ZM92.2636 23.6688C95.1976 23.7354 97.1999 25.7337 97.478 28.8477H86.9241C87.383 25.7837 89.4826 23.7021 92.2636 23.6688Z" fill="#222222"/>
</svg>
