<svg width="167" height="72" viewBox="0 0 167 72" fill="none" xmlns="http://www.w3.org/2000/svg">
<path d="M7.53426 37.9011H1.9007C0.851113 37.9011 0 37.0495 0 36.0004C0 34.9508 0.851113 34.0993 1.9007 34.0993H7.53426C8.58337 34.0993 9.43486 34.9508 9.43486 36.0004C9.43486 37.0495 8.58337 37.9011 7.53426 37.9011Z" fill="#FFCB20"/>
<path d="M7.53426 37.9011H1.9007C0.851113 37.9011 0 37.0495 0 36.0004C0 34.9508 0.851113 34.0993 1.9007 34.0993H7.53426C8.58337 34.0993 9.43486 34.9508 9.43486 36.0004C9.43486 37.0495 8.58337 37.9011 7.53426 37.9011Z" fill="#FFCB20"/>
<path d="M13.5473 23.3827C13.0605 23.3827 12.5734 23.197 12.2023 22.8271L8.21915 18.8439C7.47773 18.1014 7.47773 16.8965 8.21915 16.1535C8.96171 15.4137 10.1665 15.4137 10.9096 16.1535L14.8923 20.1366C15.6337 20.8793 15.6337 22.0841 14.8923 22.8271C14.5212 23.197 14.0341 23.3827 13.5473 23.3827Z" fill="#FFCB20"/>
<path d="M28.0672 17.3682C27.0176 17.3682 26.1665 16.5167 26.1665 15.4675V9.83404C26.1665 8.78445 27.0176 7.93296 28.0672 7.93296C29.1163 7.93296 29.9679 8.78445 29.9679 9.83404V15.4675C29.9679 16.5167 29.1163 17.3682 28.0672 17.3682Z" fill="#FFCB20"/>
<path d="M42.5853 23.3827C42.0985 23.3827 41.6117 23.197 41.2401 22.8271C40.4987 22.0841 40.4987 20.8793 41.2401 20.1366L45.2234 16.1535C45.9659 15.4137 47.1708 15.4137 47.9134 16.1535C48.6548 16.8965 48.6548 18.1014 47.9134 18.8439L43.9306 22.8271C43.5591 23.197 43.0723 23.3827 42.5853 23.3827Z" fill="#FFCB20"/>
<path d="M54.232 37.9011H48.5985C47.5489 37.9011 46.6978 37.0495 46.6978 36.0004C46.6978 34.9508 47.5489 34.0993 48.5985 34.0993H54.232C55.2811 34.0993 56.1327 34.9508 56.1327 36.0004C56.1327 37.0495 55.2811 37.9011 54.232 37.9011Z" fill="#FFCB20"/>
<path d="M46.5687 56.4037C46.0819 56.4037 45.5948 56.218 45.2237 55.8464L41.2404 51.8622C40.499 51.1195 40.499 49.9159 41.242 49.1733C41.9847 48.4335 43.1879 48.4318 43.9309 49.1749L47.9137 53.1592C48.6551 53.9018 48.6551 55.1054 47.9125 55.848C47.541 56.218 47.0554 56.4037 46.5687 56.4037Z" fill="#FFCB20"/>
<path d="M28.0672 64.067C27.0176 64.067 26.1665 63.2159 26.1665 62.1664V56.5328C26.1665 55.4837 27.0176 54.6321 28.0672 54.6321C29.1163 54.6321 29.9679 55.4837 29.9679 56.5328V62.1664C29.9679 63.2159 29.1163 64.067 28.0672 64.067Z" fill="#FFCB20"/>
<path d="M28.066 47.2662C21.8539 47.2662 16.8001 42.2125 16.8001 36.0004C16.8001 29.7882 21.8539 24.7345 28.066 24.7345C34.2782 24.7345 39.3323 29.7882 39.3323 36.0004C39.3323 42.2125 34.2782 47.2662 28.066 47.2662ZM28.066 20.9316C19.744 20.9316 12.9976 27.678 12.9976 36.0004C12.9976 38.5989 13.6554 41.0441 14.8139 43.1781L6.10056 51.891C4.42286 53.5675 4.42286 56.288 6.10056 57.9646C6.93827 58.8034 8.03852 59.2232 9.13754 59.2232C10.2363 59.2232 11.3369 58.8034 12.1741 57.9646L20.8871 49.252C23.0214 50.4105 25.467 51.0688 28.066 51.0688C36.3884 51.0688 43.1352 44.3223 43.1352 36.0004C43.1352 27.678 36.3884 20.9316 28.066 20.9316Z" fill="#FFCB20"/>
<path d="M69.4736 47.7882V24.304H86.6903V29.5854H75.5294V33.247H86.444V38.5288H75.5294V47.7882H69.4736Z" fill="#0080C6"/>
<path d="M97.7459 34.7258C95.3866 34.7258 94.4713 36.1342 94.2602 37.3668H101.266C101.126 36.1695 100.245 34.7258 97.7459 34.7258ZM88.7324 39.2678C88.7324 34.3385 92.4293 30.3601 97.7459 30.3601C102.78 30.3601 106.443 34.0569 106.443 39.8314V41.0635H94.3303C94.7177 42.5773 96.126 43.8451 98.5907 43.8451C99.788 43.8451 101.759 43.3171 102.745 42.4015L105.104 45.9577C103.414 47.4714 100.598 48.2108 97.9923 48.2108C92.7461 48.2108 88.7324 44.7956 88.7324 39.2678Z" fill="#0080C6"/>
<path d="M109.118 43.2114V24.304H114.54V41.6973C114.54 42.6831 115.103 43.4225 116.019 43.4225C116.652 43.4225 117.216 43.2114 117.427 43.0002L118.448 47.0841C117.779 47.7178 116.441 48.2108 114.469 48.2108C111.019 48.2108 109.118 46.486 109.118 43.2114Z" fill="#0080C6"/>
<path d="M120.139 47.7882V30.7827H125.561V47.7882H120.139ZM119.751 26.1349C119.751 24.4097 121.125 23.0365 122.849 23.0365C124.575 23.0365 125.983 24.4097 125.983 26.1349C125.983 27.8601 124.575 29.2686 122.849 29.2686C121.125 29.2686 119.751 27.8601 119.751 26.1349Z" fill="#0080C6"/>
<path d="M141.016 47.7882V37.9652C141.016 35.8878 139.925 35.1484 138.235 35.1484C136.615 35.1484 135.559 36.0285 134.926 36.8032V47.7882H129.503V30.7827H134.926V32.86C135.946 31.6627 137.953 30.3601 140.841 30.3601C144.678 30.3601 146.439 32.6133 146.439 35.7469V47.7882H141.016Z" fill="#0080C6"/>
<path d="M158.304 34.7258C155.945 34.7258 155.029 36.1342 154.818 37.3668H161.825C161.684 36.1695 160.803 34.7258 158.304 34.7258ZM149.29 39.2678C149.29 34.3385 152.987 30.3601 158.304 30.3601C163.338 30.3601 167 34.0569 167 39.8314V41.0635H154.888C155.275 42.5773 156.684 43.8451 159.149 43.8451C160.346 43.8451 162.317 43.3171 163.303 42.4015L165.662 45.9577C163.972 47.4714 161.155 48.2108 158.55 48.2108C153.304 48.2108 149.29 44.7956 149.29 39.2678Z" fill="#0080C6"/>
</svg>
