<svg width="20" height="20" viewBox="0 0 20 20" fill="none" xmlns="http://www.w3.org/2000/svg">
<g clip-path="url(#clip0_17_49)">
<path d="M16.6665 3.33337H3.33317C2.4165 3.33337 1.67484 4.08337 1.67484 5.00004L1.6665 15C1.6665 15.9167 2.4165 16.6667 3.33317 16.6667H16.6665C17.5832 16.6667 18.3332 15.9167 18.3332 15V5.00004C18.3332 4.08337 17.5832 3.33337 16.6665 3.33337ZM16.3332 6.87504L10.4415 10.5584C10.1748 10.725 9.82484 10.725 9.55817 10.5584L3.6665 6.87504C3.45817 6.74171 3.33317 6.51671 3.33317 6.27504C3.33317 5.71671 3.9415 5.38337 4.4165 5.67504L9.99984 9.16671L15.5832 5.67504C16.0582 5.38337 16.6665 5.71671 16.6665 6.27504C16.6665 6.51671 16.5415 6.74171 16.3332 6.87504Z" fill="#3295F0"/>
</g>
<defs>
<clipPath id="clip0_17_49">
<rect width="20" height="20" fill="white"/>
</clipPath>
</defs>
</svg>
