<svg width="167" height="72" viewBox="0 0 167 72" fill="none" xmlns="http://www.w3.org/2000/svg">
<path d="M22.978 23.432C22.1251 23.1018 21.0293 23.2259 19.6959 23.4969C22.8293 22.0382 23.9701 23.6184 25.0915 23.6039C25.9774 23.5732 28.0155 22.7097 29.9455 24.1263C28.9981 23.7338 28.6234 23.6772 27.5888 23.675C27.2402 23.675 26.0646 23.8386 25.3673 24.318C25.1032 24.5013 24.7355 24.8118 24.7334 25.1281C24.1844 25.1478 24.2573 24.6825 24.2338 24.4847C24.1774 24.0329 23.4281 23.6039 22.978 23.432ZM22.3302 19.0018C23.1641 18.7057 24.6015 17.6614 26.411 17.3088C23.8097 14.8535 20.525 13.389 16.9554 13.389C9.97143 13.389 4.07882 18.9987 2.24805 26.657C4.10702 26.6461 5.38882 23.5956 7.49536 22.8561C14.7525 20.314 21.2132 30.7943 32.0304 28.5706C31.406 24.2364 29.5093 20.4215 26.8139 17.7035C26.5616 17.7715 26.2836 17.8561 25.9609 17.9575C25.4592 18.1158 23.8119 18.8917 22.959 19.9079C22.6363 20.2943 22.2053 20.9092 22.3016 21.3693C21.5149 21.6487 21.4725 20.943 21.3732 20.6693C21.1472 20.0404 19.9244 19.7662 19.2198 19.7241C17.8816 19.6421 16.3383 20.3254 14.498 21.3298C18.5576 17.7798 20.7158 19.5408 22.3302 19.0018Z" fill="#FEBE41"/>
<path d="M2.20068 36.3079C3.29168 41.0715 5.89519 45.654 8.86164 49.1557C12.3371 53.2614 16.9553 58.611 16.9553 58.611C16.9553 58.611 20.8479 53.7864 24.3633 49.4492L24.356 49.4408C15.1765 45.1658 15.9753 41.4237 12.3771 38.7373C10.9777 37.8939 9.88451 41.4465 9.3143 41.2913C7.4762 41.3562 8.72723 36.2544 5.78239 35.3654C4.93421 35.0294 3.37408 35.4869 2.20068 36.3079Z" fill="#1174B0"/>
<path d="M1.88281 34.5812C5.403 32.7974 8.16216 33.407 11.6703 36.0031C17.2688 40.1513 16.3452 43.5575 26.1868 47.1268L26.1989 47.1413C27.5631 45.2531 28.9533 42.8856 30.056 40.3939C16.9223 38.2097 18.1759 30.5882 12.7565 30.0154C11.0579 30.2408 12.2053 34.818 10.5558 33.6242C9.11142 31.4456 3.79123 29.4535 1.88281 34.5812Z" fill="#1174B0"/>
<path d="M4.33545 28.8496C7.66959 30.2776 9.06199 28.6662 11.6893 28.4746C16.9201 28.0882 18.0511 32.6873 21.9576 35.0833C23.925 36.2882 26.7856 37.4987 31.102 37.7329C31.8135 35.6531 32.2541 33.5794 32.2541 31.7057C32.2541 31.4969 32.2519 31.2851 32.245 31.0789C26.8186 32.1768 23.0673 29.9899 19.2644 27.9272C15.2447 25.7575 8.73678 21.3947 8.54854 25.1618C9.86806 29.3776 6.28415 26.5162 4.33545 28.8496Z" fill="#F37548"/>
<path d="M39.2803 26.2412H42.2559L49.2296 39.0851V26.2412H52.3319V45.7592H49.3471L42.3826 32.9552V45.7592H39.2803V26.2412Z" fill="#1174B0"/>
<path d="M63.7157 29.386C62.2072 29.386 60.9394 30.014 59.9117 31.2702C58.8837 32.5259 58.3699 34.1228 58.3699 36.0601C58.3699 38.2184 59.017 39.9254 60.3109 41.1816C61.3166 42.1636 62.4698 42.6544 63.771 42.6544C65.2425 42.6544 66.4958 42.0175 67.5307 40.7439C68.5664 39.4702 69.0839 37.9 69.0839 36.0333C69.0839 34.1759 68.5624 32.6035 67.5197 31.3162C66.4775 30.0294 65.2092 29.386 63.7157 29.386ZM63.7491 25.75C66.0548 25.75 68.0376 26.75 69.697 28.7491C71.3563 30.7482 72.1859 33.1851 72.1859 36.0601C72.1859 38.9083 71.3673 41.3189 69.7299 43.2912C68.0929 45.264 66.1065 46.2504 63.771 46.2504C61.3246 46.2504 59.2921 45.2377 57.6737 43.2118C56.055 41.186 55.2456 38.7803 55.2456 35.9939C55.2456 34.1272 55.6225 32.411 56.3765 30.8452C57.1302 29.2798 58.167 28.039 59.4862 27.1237C60.8053 26.2079 62.2263 25.75 63.7491 25.75Z" fill="#1174B0"/>
<path d="M78.4241 33.8706H79.3961C80.3827 33.8706 81.0617 33.7153 81.4338 33.4044C81.8055 33.0943 81.9915 32.5794 81.9915 31.8605C81.9915 31.4346 81.8992 31.0645 81.7154 30.7491C81.5312 30.4342 81.2843 30.2074 80.9752 30.0702C80.6661 29.932 80.0992 29.8636 79.2741 29.8636H78.4241V33.8706ZM75.3218 26.2412H78.6087C80.4087 26.2412 81.6905 26.4333 82.4541 26.8184C83.2177 27.2031 83.8322 27.8421 84.2969 28.7355C84.7613 29.6289 84.9939 30.6859 84.9939 31.907C84.9939 33.1895 84.7375 34.2623 84.224 35.1245C83.7106 35.9868 82.9368 36.6395 81.9033 37.0816L85.764 45.7592H82.3728L78.7079 37.493H78.4241V45.7592H75.3218V26.2412Z" fill="#1174B0"/>
<path d="M91.365 29.8237V42.1368H92.805C94.2234 42.1368 95.2518 41.9425 95.8905 41.5526C96.5296 41.1627 97.0522 40.5079 97.4583 39.5868C97.8648 38.6658 98.0681 37.5324 98.0681 36.1859C98.0681 34.1145 97.5839 32.5066 96.6164 31.3645C95.7451 30.3373 94.3454 29.8237 92.4176 29.8237H91.365ZM88.2847 26.2412H91.9598C94.3293 26.2412 96.089 26.593 97.24 27.296C98.3915 27.9991 99.3396 29.1425 100.085 30.7259C100.831 32.3092 101.203 34.1583 101.203 36.2724C101.203 37.7759 100.995 39.1583 100.578 40.4188C100.161 41.6794 99.5854 42.7254 98.8507 43.557C98.1164 44.3881 97.321 44.9631 96.4651 45.2816C95.6092 45.6 94.126 45.7592 92.0154 45.7592H88.2847V26.2412Z" fill="#1174B0"/>
<path d="M112.714 28.8947L110.417 31.3232C109.61 29.9785 108.789 29.3061 107.953 29.3061C107.546 29.3061 107.213 29.4368 106.954 29.6978C106.695 29.9588 106.565 30.2526 106.565 30.5798C106.565 30.9075 106.658 31.2171 106.843 31.5088C107.094 31.8982 107.853 32.7338 109.118 34.0167C110.302 35.2018 111.019 35.9496 111.271 36.2592C111.9 37.0197 112.345 37.7474 112.608 38.4417C112.871 39.136 113.002 39.8947 113.002 40.7171C113.002 42.3184 112.54 43.6408 111.616 44.6847C110.692 45.7285 109.487 46.2504 108 46.2504C106.84 46.2504 105.828 45.9097 104.967 45.2285C104.105 44.5474 103.368 43.4772 102.754 42.0175L105.362 40.1333C106.146 41.8583 107.048 42.7211 108.069 42.7211C108.601 42.7211 109.049 42.5351 109.412 42.1636C109.774 41.7921 109.956 41.3632 109.956 40.8763C109.956 40.4342 109.818 39.9921 109.545 39.5496C109.271 39.1075 108.668 38.4307 107.736 37.5197C105.96 35.786 104.814 34.4478 104.295 33.5057C103.778 32.5636 103.519 31.6237 103.519 30.686C103.519 29.3329 103.949 28.1719 104.811 27.2031C105.672 26.2346 106.735 25.75 108 25.75C108.814 25.75 109.588 25.9759 110.324 26.4268C111.06 26.8781 111.857 27.7009 112.714 28.8947Z" fill="#1174B0"/>
<path d="M115.972 26.2412H124.869V29.8767H119.052V33.4061H124.869V36.9754H119.052V42.1105H124.869V45.7592H115.972V26.2412Z" fill="#1174B0"/>
<path d="M127.771 26.2412H136.668V29.8767H130.851V33.4061H136.668V36.9754H130.851V42.1105H136.668V45.7592H127.771V26.2412Z" fill="#1174B0"/>
<path d="M144.299 32.5307H141.274C141.355 30.425 141.908 28.7689 142.931 27.5614C143.954 26.3539 145.266 25.75 146.869 25.75C147.859 25.75 148.732 26 149.49 26.5C150.247 26.9996 150.853 27.7206 151.307 28.6627C151.761 29.6048 151.988 30.5623 151.988 31.5355C151.988 32.6943 151.712 33.9412 151.162 35.2772C150.612 36.6127 149.604 38.1917 148.142 40.014L146.313 42.3228H152.121V45.7592H140.831V43.9816L145.872 37.8246C147.091 36.3474 147.901 35.1601 148.304 34.2623C148.707 33.364 148.908 32.5526 148.908 31.8272C148.908 31.0754 148.699 30.4539 148.282 29.9632C147.865 29.4719 147.327 29.2268 146.67 29.2268C146.005 29.2268 145.451 29.5228 145.008 30.1158C144.565 30.7083 144.329 31.5132 144.299 32.5307Z" fill="#F37548"/>
<path d="M160.63 38.3158V31.7741L156.908 38.3158H160.63ZM160.574 25.75H163.666V38.3158H165.117V41.7522H163.666V45.7592H160.63V41.7522H153.517V38.3158L160.574 25.75Z" fill="#F37548"/>
</svg>
