<svg width="167" height="72" viewBox="0 0 167 72" fill="none" xmlns="http://www.w3.org/2000/svg">
<path d="M55.3384 28.86C53.4795 28.86 51.917 29.6343 50.6508 31.182C49.3842 32.7297 48.7513 34.6974 48.7513 37.0841C48.7513 39.7441 49.5482 41.8482 51.1428 43.3954C52.3816 44.6051 53.8033 45.2102 55.4065 45.2102C57.2195 45.2102 58.764 44.4256 60.0396 42.8559C61.3153 41.2866 61.9529 39.3518 61.9529 37.0518C61.9529 34.7625 61.3106 32.8256 60.0259 31.2395C58.7413 29.6533 57.1784 28.86 55.3384 28.86ZM55.3795 24.3805C58.2202 24.3805 60.664 25.6123 62.7082 28.0754C64.7529 30.5389 65.7759 33.542 65.7759 37.0841C65.7759 40.5943 64.767 43.5646 62.7493 45.9948C60.7321 48.4261 58.2844 49.6415 55.4065 49.6415C52.3919 49.6415 49.8873 48.3933 47.8927 45.8974C45.8986 43.4015 44.9009 40.4364 44.9009 37.0025C44.9009 34.703 45.3655 32.5882 46.2947 30.6589C47.2235 28.7292 48.5008 27.201 50.1267 26.0728C51.7522 24.9446 53.5031 24.3805 55.3795 24.3805Z" fill="#1174B0"/>
<path d="M79.4914 28.2553L76.6601 31.2477C75.6663 29.5907 74.654 28.7625 73.6237 28.7625C73.1223 28.7625 72.7121 28.923 72.3931 29.2446C72.074 29.5661 71.9143 29.9287 71.9143 30.3318C71.9143 30.7353 72.0282 31.1169 72.256 31.4764C72.5661 31.9559 73.5008 32.9861 75.0595 34.5666C76.5184 36.0271 77.4031 36.9482 77.7131 37.3297C78.4877 38.2671 79.0371 39.1636 79.3608 40.0195C79.6845 40.8754 79.8464 41.8097 79.8464 42.8236C79.8464 44.7964 79.2769 46.4261 78.1379 47.7123C76.9993 48.9984 75.5138 49.6415 73.6824 49.6415C72.2522 49.6415 71.0061 49.2215 69.9446 48.3825C68.8831 47.543 67.974 46.2246 67.2178 44.4256L70.431 42.1041C71.3975 44.2297 72.5095 45.2923 73.7676 45.2923C74.4236 45.2923 74.9751 45.0636 75.4218 44.6051C75.8684 44.1477 76.0919 43.6195 76.0919 43.02C76.0919 42.4743 75.9232 41.9297 75.5858 41.3846C75.2483 40.84 74.5054 40.0061 73.357 38.883C71.1684 36.7466 69.7553 35.0979 69.1169 33.9374C68.4788 32.7764 68.1598 31.6179 68.1598 30.4625C68.1598 28.7948 68.6908 27.3641 69.7523 26.1707C70.8138 24.9774 72.1237 24.3805 73.682 24.3805C74.6844 24.3805 75.6389 24.6584 76.5458 25.2143C77.4523 25.7702 78.4342 26.7841 79.4914 28.2553Z" fill="#1174B0"/>
<path d="M81.5117 24.9856H92.6112V29.4979H88.9522V49.0364H85.0748V29.4979H81.5117V24.9856Z" fill="#1174B0"/>
<path d="M105.772 28.2553L102.941 31.2477C101.947 29.5907 100.935 28.7625 99.9049 28.7625C99.4031 28.7625 98.9924 28.923 98.6738 29.2446C98.3544 29.5661 98.1947 29.9287 98.1947 30.3318C98.1947 30.7353 98.3094 31.1169 98.5368 31.4764C98.8472 31.9559 99.7812 32.9861 101.34 34.5666C102.799 36.0271 103.683 36.9482 103.994 37.3297C104.768 38.2671 105.318 39.1636 105.642 40.0195C105.965 40.8754 106.127 41.8097 106.127 42.8236C106.127 44.7964 105.558 46.4261 104.419 47.7123C103.28 48.9984 101.794 49.6415 99.9636 49.6415C98.5325 49.6415 97.2864 49.2215 96.2249 48.3825C95.1638 47.543 94.2547 46.2246 93.4985 44.4256L96.7118 42.1041C97.6778 44.2297 98.7903 45.2923 100.048 45.2923C100.704 45.2923 101.256 45.0636 101.702 44.6051C102.15 44.1477 102.373 43.6195 102.373 43.02C102.373 42.4743 102.204 41.9297 101.867 41.3846C101.529 40.84 100.787 40.0061 99.6373 38.883C97.4496 36.7466 96.0361 35.0979 95.398 33.9374C94.76 32.7764 94.4406 31.6179 94.4406 30.4625C94.4406 28.7948 94.9716 27.3641 96.0327 26.1707C97.095 24.9774 98.4045 24.3805 99.9627 24.3805C100.966 24.3805 101.92 24.6584 102.826 25.2143C103.733 25.7702 104.715 26.7841 105.772 28.2553Z" fill="#1174B0"/>
<path d="M108.93 24.9856H119.893V29.4651H112.725V33.8144H119.893V38.2128H112.725V44.5405H119.893V49.0364H108.93V24.9856Z" fill="#1174B0"/>
<path d="M123.469 24.9856H134.432V29.4651H127.265V33.8144H134.432V38.2128H127.265V44.5405H134.432V49.0364H123.469V24.9856Z" fill="#1174B0"/>
<path d="M141.453 32.7353H138.081C138.171 30.141 138.786 28.1 139.927 26.6123C141.068 25.1241 142.531 24.3805 144.318 24.3805C145.421 24.3805 146.395 24.6887 147.238 25.3046C148.082 25.92 148.758 26.8082 149.264 27.9692C149.771 29.1302 150.023 30.3097 150.023 31.5087C150.023 32.9374 149.716 34.4743 149.103 36.12C148.489 37.7661 147.367 39.7112 145.736 41.9564L143.697 44.8015H150.171V49.0364H137.587V46.8456L143.206 39.2595C144.565 37.4389 145.468 35.9754 145.917 34.8692C146.366 33.763 146.59 32.763 146.59 31.8692C146.59 30.9425 146.358 30.1769 145.893 29.5718C145.427 28.9666 144.828 28.6646 144.095 28.6646C143.354 28.6646 142.737 29.0292 142.243 29.7595C141.749 30.4902 141.485 31.482 141.453 32.7353Z" fill="#F37548"/>
<path d="M159.656 39.8641V31.8036L155.507 39.8641H159.656ZM159.594 24.3805H163.04V39.8641H164.659V44.0984H163.04V49.0364H159.656V44.0984H151.728V39.8641L159.594 24.3805Z" fill="#F37548"/>
<path d="M27.0062 21.3051C26.0089 20.919 24.7277 21.0641 23.1686 21.381C26.8323 19.6754 28.1662 21.5231 29.4774 21.5061C30.5132 21.4702 32.8962 20.4605 35.1528 22.1169C34.045 21.6579 33.607 21.5918 32.3973 21.5892C31.9896 21.5892 30.6151 21.7805 29.7998 22.341C29.4911 22.5554 29.0611 22.9184 29.0586 23.2882C28.4167 23.3113 28.5019 22.7672 28.4745 22.5359C28.4086 22.0077 27.5325 21.5061 27.0062 21.3051ZM26.2487 16.1251C27.2237 15.779 28.9044 14.5579 31.0202 14.1456C27.9786 11.2749 24.1381 9.56255 19.9644 9.56255C11.7985 9.56255 4.90866 16.1215 2.76807 25.0759C4.94164 25.0631 6.44035 21.4964 8.90339 20.6318C17.3887 17.6595 24.9427 29.9133 37.5906 27.3133C36.8605 22.2456 34.6428 17.7851 31.4912 14.6072C31.1962 14.6866 30.8712 14.7856 30.4939 14.9041C29.9073 15.0892 27.9812 15.9964 26.9839 17.1846C26.6067 17.6364 26.1027 18.3554 26.2153 18.8933C25.2955 19.22 25.2458 18.3949 25.1298 18.0749C24.8656 17.3395 23.4358 17.019 22.6119 16.9697C21.0473 16.8738 19.2428 17.6728 17.0911 18.8472C21.8378 14.6964 24.3612 16.7554 26.2487 16.1251Z" fill="#FEBE41"/>
<path d="M2.71289 36.36C3.98851 41.9298 7.03262 47.2877 10.5011 51.3821C14.5648 56.1826 19.9644 62.4374 19.9644 62.4374C19.9644 62.4374 24.5158 56.7964 28.6262 51.7251L28.6176 51.7154C17.8846 46.7169 18.8185 42.3416 14.6114 39.2005C12.9753 38.2144 11.6971 42.3682 11.0303 42.1867C8.88119 42.2626 10.3439 36.2974 6.90074 35.258C5.90901 34.8651 4.08486 35.4 2.71289 36.36Z" fill="#1174B0"/>
<path d="M2.34131 34.341C6.45722 32.2554 9.68331 32.9682 13.7851 36.0036C20.3311 40.8538 19.2511 44.8364 30.7583 49.0097L30.7724 49.0266C32.3675 46.819 33.993 44.0508 35.2823 41.1374C19.926 38.5836 21.3917 29.6723 15.0551 29.0025C13.0691 29.2661 14.4107 34.6179 12.4821 33.222C10.7932 30.6749 4.57269 28.3456 2.34131 34.341Z" fill="#1174B0"/>
<path d="M5.20898 27.6395C9.10736 29.3092 10.7354 27.4251 13.8073 27.201C19.9234 26.7492 21.2457 32.1267 25.8134 34.9282C28.1137 36.3369 31.4584 37.7523 36.5052 38.0262C37.3372 35.5944 37.8523 33.1697 37.8523 30.979C37.8523 30.7349 37.8498 30.4872 37.8416 30.2462C31.4969 31.5297 27.1108 28.9728 22.6643 26.561C17.9644 24.0241 10.3552 18.9231 10.1351 23.3277C11.6779 28.2569 7.48746 24.9113 5.20898 27.6395Z" fill="#F37548"/>
</svg>
