<svg width="32" height="32" viewBox="0 0 32 32" fill="none" xmlns="http://www.w3.org/2000/svg">
<g clip-path="url(#clip0_18_584)">
<path d="M25.3333 3.99998H24V2.66665C24 1.93331 23.4 1.33331 22.6667 1.33331C21.9333 1.33331 21.3333 1.93331 21.3333 2.66665V3.99998H10.6667V2.66665C10.6667 1.93331 10.0667 1.33331 9.33333 1.33331C8.6 1.33331 8 1.93331 8 2.66665V3.99998H6.66667C5.18667 3.99998 4.01333 5.19998 4.01333 6.66665L4 25.3333C4 26.8 5.18667 28 6.66667 28H25.3333C26.8 28 28 26.8 28 25.3333V6.66665C28 5.19998 26.8 3.99998 25.3333 3.99998ZM24 25.3333H8C7.26667 25.3333 6.66667 24.7333 6.66667 24V10.6666H25.3333V24C25.3333 24.7333 24.7333 25.3333 24 25.3333ZM10.6667 13.3333H14.6667C15.4 13.3333 16 13.9333 16 14.6666V18.6666C16 19.4 15.4 20 14.6667 20H10.6667C9.93333 20 9.33333 19.4 9.33333 18.6666V14.6666C9.33333 13.9333 9.93333 13.3333 10.6667 13.3333Z" fill="#715004"/>
</g>
<defs>
<clipPath id="clip0_18_584">
<rect width="32" height="32" fill="white"/>
</clipPath>
</defs>
</svg>
