<svg width="166" height="72" viewBox="0 0 166 72" fill="none" xmlns="http://www.w3.org/2000/svg">
<path d="M87.4277 20.5776C87.4277 22.8118 85.9249 24.6116 84.0593 24.6116C82.1937 24.6116 80.6909 22.8118 80.6909 20.5776C80.6909 18.3433 82.1419 16.5435 84.0593 16.5435C85.9767 16.6056 87.4277 18.4054 87.4277 20.5776ZM73.5395 28.7077C73.5395 29.0801 73.5395 29.7007 73.5395 29.7007C73.5395 29.7007 71.933 27.2182 68.5128 27.2182C62.8642 27.2182 58.4593 32.3694 58.4593 39.5065C58.4593 46.5816 62.8124 51.7948 68.5128 51.7948C71.9848 51.7948 73.5395 49.2503 73.5395 49.2503V50.3053C73.5395 50.8018 73.8504 51.1742 74.265 51.1742H78.4626V27.8388C78.4626 27.8388 74.6277 27.8388 74.265 27.8388C73.8504 27.8388 73.5395 28.2733 73.5395 28.7077ZM73.5395 43.6647C72.7622 45.03 71.2075 46.2092 69.3419 46.2092C66.0253 46.2092 63.486 43.7267 63.486 39.5065C63.486 35.2863 66.0253 32.8038 69.3419 32.8038C71.1557 32.8038 72.814 34.045 73.5395 35.3483V43.6647ZM81.5719 27.8388H86.5468V51.1742H81.5719V27.8388ZM155.884 27.2182C152.464 27.2182 150.858 29.7007 150.858 29.7007V16.6056H145.883V51.1742C145.883 51.1742 149.718 51.1742 150.08 51.1742C150.495 51.1742 150.806 50.7397 150.806 50.3053V49.2503C150.806 49.2503 152.412 51.7948 155.833 51.7948C161.481 51.7948 165.886 46.5816 165.886 39.5065C165.886 32.4314 161.481 27.2182 155.884 27.2182ZM155.055 46.1471C153.138 46.1471 151.635 44.968 150.858 43.6026V35.2863C151.635 34.045 153.293 32.7417 155.055 32.7417C158.372 32.7417 160.911 35.2242 160.911 39.4444C160.911 43.6647 158.372 46.1471 155.055 46.1471ZM143.292 37.3343V51.2362H138.317V38.017C138.317 34.1692 137.28 32.6176 134.482 32.6176C132.979 32.6176 131.424 33.5485 130.44 34.9139V51.1742H125.465V27.8388H129.403C129.818 27.8388 130.129 28.2733 130.129 28.7077V29.7007C131.58 27.9009 133.497 27.2182 135.415 27.2182C137.591 27.2182 139.405 27.963 140.856 29.4525C142.618 31.1902 143.292 33.4244 143.292 37.3343ZM113.39 27.2182C109.97 27.2182 108.364 29.7007 108.364 29.7007V16.6056H103.389V51.1742C103.389 51.1742 107.224 51.1742 107.586 51.1742C108.001 51.1742 108.312 50.7397 108.312 50.3053V49.2503C108.312 49.2503 109.918 51.7948 113.339 51.7948C118.987 51.7948 123.392 46.5816 123.392 39.5065C123.444 32.4314 119.039 27.2182 113.39 27.2182ZM112.561 46.1471C110.644 46.1471 109.141 44.968 108.364 43.6026V35.2863C109.141 34.045 110.799 32.7417 112.561 32.7417C115.878 32.7417 118.417 35.2242 118.417 39.4444C118.417 43.6647 115.878 46.1471 112.561 46.1471ZM99.0876 27.2182C100.59 27.2182 101.368 27.5285 101.368 27.5285V33.0521C101.368 33.0521 97.2221 31.3764 94.631 34.9139V51.2362H89.6561V27.8388C89.6561 27.8388 93.4909 27.8388 93.8536 27.8388C94.2682 27.8388 94.5791 28.2733 94.5791 28.7077V29.7007C95.5119 28.3974 97.533 27.2182 99.0876 27.2182ZM47.4213 49.0641C47.1622 48.3193 46.9031 47.5125 46.644 46.8298C46.2294 45.7127 45.8148 44.6577 45.4521 43.6647L45.4002 43.6026C41.8245 34.2933 37.9897 24.8599 33.9476 15.5506L33.7921 15.1782C33.3776 14.2472 32.963 13.2543 32.5484 12.2613C32.0302 11.1441 31.512 9.96496 30.6828 8.84785C29.0245 6.36537 26.6407 5 24.1015 5C21.5104 5 19.1784 6.36537 17.4683 8.72372C16.6909 9.84084 16.1209 11.02 15.6027 12.1371C15.1881 13.1301 14.7735 14.1231 14.359 15.0541L14.2035 15.4264C10.2132 24.7357 6.32658 34.1692 2.75087 43.4785L2.69905 43.6026C2.3363 44.5956 1.92173 45.6507 1.50715 46.7678C1.24804 47.4505 0.988933 48.1952 0.729824 49.002C0.0561403 51.2983 -0.151147 53.4705 0.107962 55.7047C0.678002 60.3594 3.26909 64.2693 6.8448 66.007C8.19217 66.6897 9.59136 67 11.0424 67C11.4569 67 11.9752 66.9379 12.3897 66.8759C14.0999 66.6276 15.8618 65.9449 17.5719 64.7658C19.6966 63.3383 21.7177 61.2903 23.9978 58.3113C26.278 61.2903 28.3509 63.3383 30.4237 64.7658C32.1339 65.9449 33.8958 66.6276 35.6059 66.8759C36.0205 66.9379 36.5387 67 36.9533 67C38.4043 67 39.8553 66.6897 41.1508 66.007C44.7784 64.2693 47.3176 60.2973 47.8877 55.7047C48.3023 53.5325 48.095 51.3604 47.4213 49.0641ZM24.0496 52.2913C21.2513 48.0711 19.4375 44.0991 18.8156 40.7477C18.5565 39.3203 18.5047 38.0791 18.6602 36.962C18.7638 35.969 19.0747 35.1001 19.4893 34.3554C20.4739 32.6797 22.1322 31.6246 24.0496 31.6246C25.9671 31.6246 27.6772 32.6176 28.61 34.3554C29.0245 35.1001 29.3355 35.969 29.4391 36.962C29.5946 38.0791 29.5428 39.3824 29.2836 40.7477C28.6618 44.037 26.848 48.009 24.0496 52.2913ZM44.7266 55.2082C44.3638 58.4354 42.55 61.2282 40.0108 62.4695C38.767 63.0901 37.4197 63.2763 36.0723 63.0901C34.7768 62.9039 33.4812 62.4074 32.1339 61.4765C30.2683 60.2352 28.4027 58.3113 26.2262 55.4565C29.6464 50.4294 31.7193 45.8368 32.4966 41.7407C32.8594 39.8168 32.9112 38.0791 32.7557 36.4655C32.5484 34.9139 32.082 33.4865 31.3565 32.2452C29.75 29.4525 27.0553 27.8388 24.0496 27.8388C21.044 27.8388 18.3492 29.5145 16.7428 32.2452C16.0173 33.4865 15.5509 34.9139 15.3436 36.4655C15.1363 38.0791 15.1881 39.8789 15.6027 41.7407C16.38 45.8368 18.5047 50.4915 21.8731 55.5185C19.7484 58.3734 17.831 60.2973 15.9654 61.5385C14.6181 62.4695 13.3225 62.966 12.027 63.1521C10.6278 63.3383 9.28043 63.0901 8.08852 62.5315C5.54925 61.2903 3.73549 58.4975 3.37274 55.2703C3.21727 53.7187 3.32091 52.1672 3.83913 50.4294C3.9946 49.8088 4.25371 49.1882 4.51282 48.4434C4.87557 47.4505 5.29014 46.3954 5.70472 45.3403L5.75654 45.2162C9.33225 35.969 13.1671 26.5355 17.1573 17.3503L17.3128 16.978C17.7274 16.047 18.142 15.0541 18.5565 14.1231C18.9711 13.1301 19.4375 12.1992 20.0075 11.3924C21.0958 9.9029 22.5468 9.0961 24.1533 9.0961C25.7598 9.0961 27.2108 9.9029 28.299 11.3924C28.8691 12.1992 29.3355 13.1301 29.75 14.1231C30.1646 15.0541 30.5792 16.047 30.9938 16.978L31.1492 17.3503C35.0877 26.5976 38.9225 36.031 42.4982 45.2783V45.3403C42.9128 46.3333 43.2755 47.4505 43.6901 48.4434C43.9492 49.1882 44.2083 49.8088 44.3638 50.4294C44.7784 52.043 44.9338 53.5946 44.7266 55.2082Z" fill="#FF5A5F"/>
</svg>
