<svg width="32" height="32" viewBox="0 0 32 32" fill="none" xmlns="http://www.w3.org/2000/svg">
<g clip-path="url(#clip0_18_570)">
<path d="M15.7332 14.5333C12.7065 13.7467 11.7332 12.9333 11.7332 11.6667C11.7332 10.2133 13.0798 9.2 15.3332 9.2C17.2265 9.2 18.1732 9.92 18.5198 11.0667C18.6798 11.6 19.1198 12 19.6798 12H20.0798C20.9598 12 21.5865 11.1333 21.2798 10.3067C20.7198 8.73333 19.4132 7.42667 17.3332 6.92V6C17.3332 4.89333 16.4398 4 15.3332 4C14.2265 4 13.3332 4.89333 13.3332 6V6.88C10.7465 7.44 8.6665 9.12 8.6665 11.6933C8.6665 14.7733 11.2132 16.3067 14.9332 17.2C18.2665 18 18.9332 19.1733 18.9332 20.4133C18.9332 21.3333 18.2798 22.8 15.3332 22.8C13.1332 22.8 11.9998 22.0133 11.5598 20.8933C11.3598 20.3733 10.9065 20 10.3598 20H9.9865C9.09317 20 8.4665 20.9067 8.79984 21.7333C9.55984 23.5867 11.3332 24.68 13.3332 25.1067V26C13.3332 27.1067 14.2265 28 15.3332 28C16.4398 28 17.3332 27.1067 17.3332 26V25.1333C19.9332 24.64 21.9998 23.1333 21.9998 20.4C21.9998 16.6133 18.7598 15.32 15.7332 14.5333Z" fill="#715004"/>
</g>
<defs>
<clipPath id="clip0_18_570">
<rect width="32" height="32" fill="white"/>
</clipPath>
</defs>
</svg>
