<svg width="167" height="72" viewBox="0 0 167 72" fill="none" xmlns="http://www.w3.org/2000/svg">
<path d="M64.3766 52.2143H65.222C64.7631 52.288 64.3177 52.2516 63.8647 52.3427C63.8274 52.3427 63.8096 52.3079 63.7363 52.2872L64.158 52.2317C63.8012 52.2422 63.4452 52.2787 63.0939 52.3423C62.068 52.4901 61.9074 52.1232 62.1028 51.6821C62.5799 50.6557 62.1401 50.8214 63.716 50.6379C63.8927 50.6155 64.0698 50.6032 64.2478 50.6006C64.2677 50.6006 64.3033 50.6176 64.3406 50.6006C64.616 50.5633 64.908 50.5634 65.2008 50.3998H64.9622C65.1656 50.2515 65.4029 50.2896 65.6224 50.2515C65.7881 50.2349 65.9534 50.2349 66.0992 50.1782C66.3479 50.0998 66.6102 50.0752 66.8691 50.1053C66.8806 50.1142 66.8861 50.1282 66.889 50.1409C66.8517 50.1409 66.7962 50.1604 66.7589 50.1604C66.7589 50.251 66.742 50.3438 66.8517 50.3438C66.8144 50.2888 66.8144 50.2337 66.9072 50.2155L67.2556 50.1604L66.8517 50.3438C67.0526 50.3811 67.2179 50.2879 67.3827 50.1604C67.4632 50.0896 67.57 50.0561 67.6764 50.0676C67.8598 50.1049 67.8954 50.0676 67.9323 49.8663H67.7658L68.1319 49.6404C68.0967 49.5302 68.0789 49.512 68.1518 49.4018C68.2251 49.2735 68.2421 49.1459 68.1688 49.0362C68.1132 48.9624 68.095 48.8353 67.9679 48.8103C67.9306 48.8103 67.9124 48.7751 67.8929 48.7366L67.7793 48.6082C67.742 48.5709 67.5039 48.6438 67.4857 48.6984C67.517 48.7323 67.5412 48.7696 67.5594 48.809C67.4869 48.9196 67.3602 48.9832 67.2285 48.9747L66.3132 49.012L65.5979 49.0289C65.5224 49.02 65.4495 49.001 65.3716 48.9734C65.2432 48.9904 65.0983 49.0472 65.0059 49.0472C64.6953 49.0671 64.3631 49.1226 64.0724 49.0472C63.9423 49.012 63.7787 49.0472 63.6317 49.0472L61.7977 49.14C61.7527 49.1383 61.7087 49.1256 61.6693 49.1027C61.6523 49.0675 61.6892 49.012 61.707 48.9332C61.5786 49.0069 61.5409 48.9332 61.4807 48.8959C61.4057 48.8251 61.2913 48.8162 61.2074 48.8789V49.0069C61.2074 49.1904 61.1697 49.226 60.9688 49.226C60.7302 49.226 60.5103 49.209 60.2891 49.1908C60.1709 49.1777 60.0539 49.1531 59.9408 49.1179C60.0332 49.0806 60.0709 49.0425 60.1065 49.0425L60.6561 49.0078C60.7544 49.0103 60.8527 49.0035 60.9497 48.9878C60.9625 48.9539 60.9697 48.9175 60.9697 48.8806L59.7954 48.8056C59.612 48.8056 59.4848 48.77 59.3912 48.6361C59.3912 48.6162 59.3742 48.6162 59.3564 48.6162C59.2636 48.6361 59.1708 48.6717 59.1708 48.7819C59.1357 49.0573 59.0013 49.3514 59.0971 49.6069C59.117 49.6336 59.117 49.6705 59.0971 49.6997C59.0624 49.8455 59.1348 49.9557 59.1899 50.0455L59.2806 50.2311C59.3369 50.3443 59.3937 50.446 59.4662 50.5417C59.5192 50.615 59.5946 50.7252 59.6848 50.7426C60.7107 51.0909 60.2158 51.4948 59.6848 52.7597C59.662 52.8228 59.6242 52.8796 59.5747 52.9253C59.4615 53.091 59.3556 53.091 59.2458 52.9609C59.0429 52.9982 58.8594 53.0164 58.6581 53.0364C58.3644 53.072 58.3475 53.072 58.2543 52.833C58.2259 52.7618 58.189 52.6948 58.1441 52.6325L58.0534 52.7058C58.0292 52.7652 57.9983 52.8207 57.9606 52.8715C57.8148 53.1821 57.7775 53.1821 57.5568 52.9817H57.522C57.4868 53.0275 57.4559 53.0766 57.4292 53.1279C57.3555 53.4033 57.3385 53.6775 57.4292 53.9356C57.4487 54.0093 57.4843 54.064 57.4292 54.1542C57.4123 54.2097 57.4123 54.2843 57.4843 54.2843C57.5771 54.3013 57.5949 54.358 57.6326 54.4127C57.6496 54.4682 57.7458 54.4682 57.7784 54.503C57.8051 54.5186 57.8182 54.547 57.8161 54.5767C57.8725 54.7462 57.9085 54.9051 57.9441 55.0742C57.9996 55.5259 57.6881 57.0539 57.6131 57.5307C57.5936 57.6671 57.5568 57.8023 57.5229 57.9345C57.5029 58.0248 57.4474 58.1002 57.4301 58.1904L57.2606 58.979C57.2339 59.0977 57.1974 59.2146 57.1504 59.3274C57.022 59.5833 57.0576 59.8041 57.2606 59.9499C57.3457 60.0045 57.4377 60.0473 57.5343 60.0782L57.8831 60.2266L58.214 60.355C58.3721 60.3855 58.5352 60.38 58.6907 60.3376C58.8767 60.2838 59.0666 60.2405 59.2581 60.2092C59.2797 60.1562 59.2924 60.1003 59.2954 60.0435L59.534 58.9968C59.5781 58.8028 59.6395 58.6133 59.7171 58.4294C59.9556 57.8985 60.5052 56.3018 60.7434 55.7704C61.368 54.2674 61.0743 54.4504 62.5515 53.9059L63.1939 53.68L63.3422 53.6427C63.5808 53.5898 63.8368 53.569 64.0575 53.4732C64.3914 53.3499 64.7347 53.252 65.0834 53.1796C65.1572 53.1423 65.2292 53.1423 65.2843 53.0512C65.35 52.9808 65.4233 52.9186 65.5101 52.8656C65.6932 52.7529 65.9314 52.6825 65.9869 52.4444C65.9869 52.4274 66.0038 52.4096 66.0242 52.3889C66.1148 52.3541 66.0979 52.2757 66.0979 52.2058C65.7491 52.0922 64.7779 52.06 64.3542 52.1884L64.3766 52.2143ZM64.9466 50.4066C64.9334 50.4371 64.9067 50.4595 64.8728 50.4655C64.8389 50.4722 64.8067 50.4633 64.78 50.4413C64.8364 50.4354 64.8919 50.4239 64.9457 50.4066H64.9466ZM64.4694 50.4794L64.5622 50.4422C64.5622 50.4621 64.5792 50.4621 64.5792 50.4794L64.469 50.5172L64.4694 50.4794ZM71.7863 55.2085C71.7228 55.2865 71.6473 55.3547 71.5605 55.4119L71.4872 55.5022C71.4499 55.5395 71.3215 55.4856 71.2863 55.5221C71.2664 55.5395 71.2863 55.4666 71.1935 55.4119C71.2024 55.2462 71.2024 55.081 71.1935 54.9144C71.1935 54.6759 71.2104 54.4203 71.1765 54.1818L71.0464 53.4292V53.3559C70.9333 53.1173 70.8079 52.952 70.5947 52.952C70.4846 52.952 70.3689 52.9719 70.246 52.9719C70.1201 52.9961 70.0121 53.0779 69.9523 53.1906C69.8688 53.3512 69.7693 53.5067 69.6587 53.6499C69.5663 53.8279 69.462 53.9991 69.3476 54.164C69.2192 54.3826 68.5777 55.6895 68.5048 55.9607C68.4315 56.2713 67.5865 57.1349 67.8624 56.2543C68.0628 55.5568 68.5048 54.9517 68.7438 54.1818C68.834 53.7978 68.8722 54.0716 68.9624 53.705C69.0726 53.3563 69.0379 53.1372 68.8722 52.8444C68.6887 52.6185 68.5061 52.4579 68.3777 52.2202C68.2764 52.1228 68.148 52.0588 68.0094 52.0367C67.8594 51.9973 67.7069 51.9727 67.5573 51.9634C67.3721 51.9261 67.2992 51.9634 67.2263 52.202C67.0806 52.4957 66.9704 52.7897 66.8424 53.1173C66.8051 53.2457 66.7322 53.3432 66.714 53.4656C66.456 54.1809 66.5284 54.0703 66.4004 54.7856C66.2547 55.2797 66.3271 55.2449 66.2314 55.7763L66.1559 57.2056C66.1479 57.5247 66.1661 57.8438 66.2114 58.1595C66.2848 58.5256 66.4373 58.7998 66.72 58.8748C66.7556 58.9104 66.7933 58.9481 66.8301 58.9104C67.1238 58.9854 67.3797 59.0032 67.5984 58.6917C67.6357 58.654 67.6912 58.6362 67.6912 58.5989C67.8014 58.5061 68.2607 57.6269 68.2959 57.5171L68.4616 57.0959C68.59 56.6921 68.7925 56.3433 68.9557 55.9585L69.2866 55.2246C69.3976 54.8945 69.5387 54.5754 69.7082 54.2712C69.7252 54.2157 69.7816 54.161 69.7638 54.0881C69.7769 53.9724 69.8142 53.8597 69.8739 53.7597L70.1299 53.3004L70.2036 53.2076C70.2036 53.1728 70.2409 53.191 70.2591 53.191C70.2812 53.2571 70.2748 53.33 70.2413 53.3915L70.1862 53.7224L70.1307 54.1818C70.0663 54.5292 70.0854 54.8873 70.1862 55.2263C70.2765 55.4822 70.4422 55.6856 70.663 55.7344C70.7914 55.7899 70.9189 55.8081 71.0469 55.8801C71.0888 55.9179 71.1532 55.9179 71.1952 55.8801C71.2414 55.8429 71.299 55.8238 71.3609 55.8073C71.4384 55.809 71.5109 55.7734 71.5617 55.7145L71.6172 55.6789C71.6172 55.6594 71.6528 55.6416 71.6723 55.6238L71.7278 55.5683C71.7821 55.5441 71.8228 55.4971 71.838 55.4399L71.8914 55.3475C71.9397 55.3149 71.9681 55.2598 71.9664 55.2013C71.8931 55.1106 71.838 55.1106 71.7833 55.2013L71.7863 55.2085ZM80.3673 52.4766C80.4465 52.5329 80.5503 52.5185 80.6232 52.4596C80.6605 52.4245 80.7139 52.3863 80.7516 52.4041C80.855 52.3817 80.9508 52.3317 81.0271 52.2584L81.2105 52.0321C81.2347 52.0079 81.2478 51.9749 81.2461 51.9393C81.2686 51.8804 81.2995 51.8249 81.3389 51.7757C81.3762 51.738 81.394 51.6829 81.4491 51.6274C81.3847 51.5058 81.2813 51.4092 81.1554 51.3536C81.0737 51.3363 80.9936 51.3113 80.9169 51.2782C80.8999 51.2617 80.8796 51.2782 80.8431 51.2981C80.8071 51.3181 80.7698 51.3155 80.7698 51.2782C80.7414 51.2617 80.7058 51.2617 80.677 51.2782C80.6397 51.2782 80.6033 51.3159 80.5669 51.3536L80.4563 51.5231C80.4007 51.6333 80.3105 51.7265 80.3105 51.8367C80.3105 51.8532 80.255 51.8922 80.255 51.927C80.1986 52.0024 80.1622 52.0833 80.1266 52.1656C80.1024 52.2253 80.0825 52.2872 80.0711 52.3486L80.016 52.424C80.0817 52.4389 80.149 52.4448 80.2164 52.4414C80.2698 52.4346 80.3207 52.4486 80.3647 52.477L80.3673 52.4766ZM99.4712 52.4766C99.5509 52.5329 99.6547 52.5185 99.7272 52.4596C99.7645 52.4245 99.82 52.3863 99.8556 52.4041C99.959 52.3817 100.055 52.3317 100.131 52.2584L100.314 52.0321C100.339 52.0075 100.352 51.974 100.352 51.9393C100.369 51.8804 100.408 51.8249 100.442 51.7702C100.479 51.7329 100.498 51.6778 100.552 51.6223C100.488 51.5007 100.384 51.4036 100.259 51.3486C100.177 51.3312 100.097 51.3062 100.02 51.2736C100.003 51.2566 99.9852 51.2736 99.9467 51.2935C99.9081 51.313 99.8729 51.3104 99.8729 51.2736C99.8446 51.2566 99.809 51.2566 99.7801 51.2736C99.7454 51.2736 99.7068 51.3108 99.67 51.3486L99.5598 51.5181C99.5064 51.6282 99.414 51.7215 99.414 51.8316C99.414 51.8486 99.3585 51.8871 99.3585 51.9219C99.3098 51.9973 99.2657 52.0783 99.2301 52.1605C99.206 52.2202 99.1877 52.2812 99.1746 52.3439L99.1191 52.419C99.1848 52.4338 99.2521 52.4397 99.3199 52.4368C99.3729 52.4295 99.4238 52.444 99.4683 52.4723L99.4712 52.4766Z" fill="#3973B9"/>
<path d="M106.896 51.1096L106.217 51.1651C106.154 51.1719 106.09 51.1588 106.034 51.1278C106.049 51.0808 106.055 51.0312 106.052 50.9816L106.162 50.5414L106.218 50.2477C106.235 50.1634 106.235 50.0765 106.218 49.9918C106.195 49.8951 106.183 49.7968 106.18 49.6981C106.187 49.4951 106.142 49.293 106.052 49.1108C105.978 48.9103 105.886 48.8006 105.63 48.8548C105.613 48.8718 105.613 48.8718 105.593 48.8718C105.465 48.8718 105.354 48.9273 105.244 48.8887C105.159 48.8773 105.072 48.904 105.006 48.9642L104.877 49.1099C104.643 49.3388 104.44 49.5972 104.273 49.8795C104.072 50.2108 103.944 50.5769 103.761 50.9265C103.723 51.0956 103.631 51.2202 103.576 51.3651C103.544 51.4431 103.474 51.4978 103.392 51.5109C103.214 51.5262 103.036 51.5516 102.86 51.5863L102.11 51.7558C102.076 51.7647 102.046 51.7757 102.017 51.7931C102.032 51.8592 102.073 51.919 102.128 51.9588L102.456 52.1592C102.566 52.252 102.682 52.233 102.805 52.252C103.245 52.3427 102.77 53.0402 102.676 53.439L102.511 54.0267C102.465 54.1432 102.427 54.2674 102.398 54.3924L102.305 54.7585L101.894 56.1048C101.023 57.0341 101.567 57.2353 100.049 57.785C99.9385 57.8015 99.8479 57.8405 99.755 57.765C99.6601 57.7252 99.5678 57.6748 99.4813 57.6193C99.4063 57.5413 99.3555 57.4472 99.333 57.3438C99.316 57.1743 99.3885 56.2446 99.3885 56.0611C99.4055 55.7302 99.4055 55.8031 99.5542 55.4369C99.5834 55.3929 99.6025 55.3433 99.6097 55.2908C99.6453 55.1077 99.316 55.8026 99.3838 55.5844C99.4766 55.4187 99.5495 55.1984 99.6224 55.0344L99.7152 54.7589L100.099 54.0068C100.155 53.8237 100.137 53.6962 100.064 53.611C99.989 53.5356 99.8063 53.4453 99.7508 53.3724C99.5678 53.2623 99.1105 53.5911 98.908 53.6284C98.8503 53.6597 98.8003 53.7038 98.7622 53.7568L98.7423 53.7741C98.705 53.789 98.6647 53.7809 98.6291 53.7568C98.5736 53.867 98.5537 53.9398 98.5736 54.0127C98.6092 54.1407 98.5537 54.2157 98.4982 54.3259C98.48 54.353 98.4681 54.3843 98.4635 54.4166C98.3533 54.6725 98.0228 55.0768 97.8757 55.4425C97.7456 55.6594 97.827 55.6149 97.9151 55.542C97.7833 55.7073 97.6418 55.8641 97.4914 56.0116L97.1604 56.3781L97.1053 56.4336L96.19 57.2031C95.8137 57.5053 95.3853 57.7345 94.9256 57.8811C94.8328 57.8977 94.301 57.9913 94.2103 57.9735C93.9166 57.954 93.603 57.6248 93.3475 57.3688C93.292 57.2934 93.1467 56.8921 93.0916 56.8167C93.0458 56.7133 93.0208 56.6014 93.0187 56.4883C93.0212 56.3658 93.0144 56.2433 92.9988 56.1222C92.9818 56.1222 92.964 56.1022 92.9255 56.0849L92.981 55.7005H93.0183C93.0204 55.7501 93.0136 55.7993 92.9983 55.8463H93.1267V55.8298C93.1098 55.8099 93.0916 55.8098 93.053 55.8098C93.0729 55.6967 93.0729 55.6815 93.1085 55.6641C93.164 55.6467 93.1822 55.6268 93.2013 55.5539C93.2039 55.5166 93.2242 55.4802 93.2568 55.4632C93.2941 55.4463 93.3229 55.4064 93.3301 55.3704C93.3301 55.2602 93.4039 55.1869 93.4229 55.095C93.4763 55.0395 93.5361 55.0598 93.5513 55.1145C93.642 55.2607 93.7208 55.4255 93.7899 55.5666C93.8069 55.6217 93.8454 55.659 93.8069 55.7323C93.8115 55.7662 93.8238 55.798 93.8446 55.8251C93.9577 55.8802 94.045 56.0438 94.1908 56.026C94.1976 56.026 94.2018 56.0281 94.2035 56.0302C94.2052 56.0327 94.2103 56.0391 94.2103 56.0433C94.2459 56.1188 94.301 56.0988 94.3565 56.1188C94.4751 56.1353 94.5967 56.1162 94.7048 56.0633C94.8484 56.0209 94.9684 55.9209 95.0357 55.7878C95.1107 55.673 95.1722 55.5501 95.2188 55.4213C95.2743 55.2882 95.3413 55.159 95.4197 55.0374C95.5561 54.8187 95.6498 54.5759 95.6951 54.3221C95.7413 54.1034 95.7413 53.878 95.6951 53.6597C95.6824 53.6008 95.6574 53.5453 95.6222 53.4962C95.4921 53.3856 95.4192 53.2025 95.3285 53.0372C95.3006 52.9669 95.2552 52.9033 95.1985 52.8542C95.0294 52.744 94.3382 52.5605 94.1543 52.4677C94.117 52.433 94.0988 52.3546 94.0442 52.322C94.0069 52.2847 93.934 52.305 93.8785 52.2482C93.823 52.1554 93.7327 52.1728 93.6399 52.2109L93.4564 52.3037C93.1513 52.4982 92.8763 52.7321 92.6318 52.9991C92.3759 53.2546 92.1487 53.5373 91.9542 53.8415C91.7542 54.136 91.5839 54.45 91.4457 54.7776C91.3902 54.906 91.3173 55.0162 91.3173 55.1814C91.4055 55.0289 91.4783 54.8708 91.5432 54.7047C91.5716 54.6136 91.639 54.5403 91.7267 54.5034C91.7436 54.6729 91.7436 54.6729 91.6894 54.7772C91.4678 55.2416 91.3389 55.7442 91.3097 56.2578C91.1025 56.5175 90.9139 56.5175 90.7181 56.7569C90.7012 56.7942 90.0579 57.2337 90.0397 57.254C89.7643 57.4926 88.2786 58.5913 88.4015 57.4549L89.0812 55.6035C89.1914 55.1268 89.4473 54.0212 89.1719 53.5682C88.5316 53.1644 87.8519 53.3123 87.2472 53.8619L86.0607 54.9984C85.9505 55.2246 84.942 56.5942 84.942 56.1175C85.0348 55.6094 85.0704 55.5861 85.2729 55.089C85.3831 54.7784 85.5467 54.4844 85.6768 54.1742L86.2069 53.1826L86.5552 52.5427L87.0146 51.7901C87.0701 51.7346 87.0883 51.644 87.143 51.5893C87.2934 51.4613 87.4175 51.3054 87.5091 51.1308C87.7438 50.7418 88.0273 50.3841 88.3519 50.0663L88.61 49.793C88.7002 49.6828 88.793 49.6447 88.8837 49.6629L89.1096 49.7383L89.2579 49.7939C89.371 49.8468 89.4037 50.0498 89.4766 49.8841C89.5698 49.629 89.5422 49.346 89.4028 49.1142C89.2371 48.3815 87.9349 46.6573 87.1302 47.2823C86.7853 47.5611 86.4828 47.8883 86.2319 48.2539C85.7912 48.8209 85.4068 49.5002 85.0454 50.1964L84.2026 51.8652L82.9423 55.9175L82.808 56.1005C81.9296 57.0358 82.4792 57.2396 80.9566 57.7888C80.8435 57.8053 80.7558 57.8439 80.663 57.7688C80.5672 57.729 80.4757 57.6803 80.3892 57.6231C80.3138 57.5451 80.2629 57.4506 80.2409 57.3472C80.224 57.1781 80.2964 56.2484 80.2964 56.0649C80.3163 55.734 80.3163 55.8069 80.4621 55.4403C80.4913 55.3967 80.5104 55.3467 80.5176 55.2946C80.5549 55.1111 80.224 55.8065 80.2918 55.5878C80.3846 55.4221 80.4574 55.2018 80.5303 55.0382L80.6231 54.7628L81.007 54.0106C81.0626 53.8271 81.0443 53.6996 80.9723 53.6148C80.8969 53.5394 80.7142 53.4491 80.6617 53.3762C80.4761 53.2661 80.0189 53.5949 79.8163 53.6322C79.7591 53.6636 79.7091 53.7076 79.6705 53.7606L79.6536 53.7775C79.6163 53.7928 79.5743 53.7847 79.5434 53.7606C79.4879 53.8708 79.4697 53.9436 79.4879 54.0165C79.5235 54.1466 79.4709 54.2199 79.4142 54.3301C79.3947 54.3568 79.3803 54.3882 79.3769 54.4204C79.2667 54.6784 78.9379 55.081 78.7891 55.4467C78.659 55.6632 78.7408 55.6187 78.829 55.5459C78.6968 55.7111 78.5556 55.8679 78.4052 56.0158L78.0743 56.3819L78.0188 56.4374L77.1035 57.2074C76.7276 57.5095 76.2992 57.7392 75.8394 57.885C75.7466 57.9044 75.2148 57.9951 75.1241 57.9773C74.8305 57.9578 74.5194 57.629 74.2614 57.3731C74.2058 57.2976 74.0609 56.8963 74.0054 56.8209C73.9592 56.7175 73.9346 56.6057 73.9325 56.4925C73.9342 56.37 73.9283 56.2476 73.9156 56.126C73.8957 56.126 73.8783 56.1065 73.8401 56.0887L73.8957 55.7048H73.933C73.9351 55.7539 73.9287 55.8031 73.9156 55.8505H74.044V55.834C74.0241 55.8166 74.0063 55.8166 73.9685 55.8166C73.9885 55.7065 73.9885 55.6865 74.0241 55.6683C74.0796 55.6518 74.0991 55.631 74.1169 55.5581C74.119 55.5208 74.1397 55.487 74.1724 55.4679C74.2097 55.4509 74.238 55.4115 74.2457 55.3751C74.2457 55.2649 74.3194 55.192 74.3385 55.0996C74.394 55.0467 74.4487 55.0645 74.4669 55.1196C74.5571 55.2653 74.6326 55.4297 74.7054 55.5713C74.7224 55.6268 74.761 55.6641 74.7224 55.737C74.7271 55.7709 74.7394 55.8031 74.7597 55.8298C74.8699 55.8853 74.9605 56.0484 75.1084 56.0302C75.1127 56.0302 75.1173 56.0327 75.1211 56.0374C75.1241 56.0404 75.1258 56.0446 75.1258 56.0484C75.1631 56.1238 75.2186 56.1039 75.2716 56.1238C75.3907 56.1408 75.5123 56.1213 75.6199 56.0683C75.764 56.026 75.8835 55.926 75.9513 55.7929C76.0267 55.6785 76.0877 55.5552 76.1343 55.4268C76.1898 55.2933 76.2568 55.1645 76.3352 55.0424C76.4699 54.8229 76.5636 54.5805 76.6106 54.3271C76.6568 54.1093 76.6568 53.8847 76.6106 53.6674C76.5979 53.6076 76.5729 53.5513 76.5377 53.5017C76.4094 53.3911 76.3343 53.208 76.2441 53.0423C76.2161 52.9728 76.172 52.9097 76.1157 52.8593C75.95 52.7491 75.2529 52.5656 75.069 52.4728C75.0317 52.4381 75.0135 52.3601 74.9588 52.327C74.9237 52.2898 74.8487 52.3101 74.7932 52.2533C74.7377 52.1605 74.6474 52.1783 74.5546 52.216L74.3711 52.3088C74.066 52.5033 73.791 52.7377 73.5465 53.0042C73.2918 53.2614 73.0647 53.5445 72.8689 53.8492C72.6697 54.1428 72.4981 54.456 72.3604 54.7827C72.3074 54.9111 72.232 55.0212 72.232 55.1865C72.3202 55.0344 72.4015 54.8759 72.4579 54.7098C72.4871 54.6195 72.5541 54.5462 72.6414 54.5089C72.6583 54.678 72.6583 54.678 72.6062 54.7827C72.3596 55.2924 72.2278 55.8501 72.2197 56.4158C72.2367 56.6896 72.257 56.9459 72.3481 57.1841C72.4011 57.3324 72.4897 57.4646 72.6062 57.5705C72.8977 57.8265 73.0278 58.1375 73.6685 58.3952C73.9071 58.4858 74.9906 58.6888 75.2466 58.6511C75.4712 58.6354 75.6928 58.5922 75.9068 58.5227L76.0725 58.4672C76.2797 58.4231 76.4793 58.3413 76.6572 58.2286C76.7636 58.1604 76.8742 58.0994 76.9882 58.0456L77.2141 57.8972C77.3035 57.8354 77.3886 57.768 77.47 57.6964C77.6598 57.5519 77.8378 57.3926 78.0018 57.2192C78.0967 57.1065 78.2005 57.0031 78.3124 56.9091C78.3743 56.851 78.4298 56.7866 78.4781 56.7171C78.4777 56.843 78.4654 56.9688 78.4408 57.0921C78.4362 57.2023 78.4497 57.3154 78.4781 57.4205C78.4781 57.6591 78.5709 57.918 78.6612 58.1553C78.8065 58.3269 78.9879 58.4642 79.193 58.5566C79.4684 58.6668 79.7015 58.9227 79.9629 58.832C80.7685 59.1431 82.0156 58.0443 82.1982 57.8061C82.4037 57.6744 82.5766 57.4976 82.7037 57.29C82.6088 58.0714 82.6109 58.8155 82.7855 59.4367C82.8025 59.7122 82.8961 59.9308 83.0415 60.0592C83.1207 60.141 83.1936 60.227 83.2673 60.3173C83.3228 60.3342 83.3406 60.391 83.3775 60.391C83.5059 60.391 83.322 60.3736 83.4703 60.3537C83.561 60.3364 83.6534 60.2982 83.7089 60.3537H83.822C83.8775 60.28 83.8974 60.2253 83.9326 60.1842C84.061 60.1088 84.1356 59.9088 84.1585 59.7435C84.1754 59.6151 84.2318 59.4876 84.2513 59.3774C84.289 59.2761 84.3191 59.1723 84.3415 59.0664C84.3593 58.9507 84.3966 58.8388 84.4517 58.7354L85.5886 56.5726C85.7018 56.4112 85.8361 56.259 85.9751 56.1133L86.9086 54.9594C86.9976 54.8742 87.0722 54.7746 87.129 54.6657C87.1764 54.5712 87.2451 54.4899 87.3298 54.4271C87.6053 53.9682 88.4316 53.4012 88.8329 54.0784C88.8414 54.1835 88.8291 54.2894 88.7977 54.3899C88.763 54.5153 88.7197 54.6386 88.6693 54.7585C88.4434 55.3081 87.5324 56.904 87.4226 57.5252C87.1968 59.2664 88.8706 59.1384 89.4753 58.5719C89.5308 58.5346 90.1355 58.0634 90.2096 57.965C90.3088 57.8057 90.4185 57.6527 90.5385 57.5078C90.6313 57.3976 90.9775 57.282 91.0326 57.1421C91.0682 56.9523 91.2622 56.7802 91.3635 56.6332C91.375 56.8175 91.4118 56.9985 91.4741 57.1718C91.5258 57.3201 91.6139 57.4523 91.7301 57.5582C92.0237 57.8142 92.1517 58.1252 92.7941 58.3812C93.0327 58.474 94.1137 58.6748 94.376 58.6392C94.6001 58.6223 94.8217 58.5791 95.0362 58.5108L95.2018 58.4557C95.4099 58.4108 95.6086 58.3299 95.7896 58.2172C95.8955 58.1498 96.0061 58.0871 96.118 58.0341L96.3439 57.8858C96.4337 57.8248 96.5193 57.7578 96.5998 57.6849C96.7918 57.5417 96.968 57.3798 97.1308 57.2082C97.2261 57.0951 97.3299 56.9896 97.4443 56.8976C97.5011 56.8383 97.5613 56.773 97.61 56.7057C97.6075 56.8315 97.5952 56.9569 97.5727 57.0811C97.5681 57.1917 97.5804 57.3023 97.6083 57.4095C97.6083 57.6481 97.7011 57.9036 97.7939 58.1422C97.9384 58.3151 98.1202 58.4528 98.3257 58.546C98.5991 58.6566 98.8376 58.9121 99.094 58.8219C99.9021 59.1321 101.149 58.0337 101.331 57.7955C101.492 57.6938 101.634 57.5612 101.746 57.4074L101.735 57.9968C101.753 58.3007 101.802 58.6019 101.881 58.8952C101.937 59.0787 102.047 59.2261 102.137 59.3897C102.323 59.7554 102.889 60.3249 103.276 60.3804C103.495 60.4359 103.753 60.4177 103.991 60.3978C104.276 60.3224 104.551 60.219 104.814 60.0868C105.04 59.941 105.439 59.4643 105.677 59.299C105.767 59.2253 106.631 58.1248 106.703 57.9964L107.197 57.0612L107.546 56.1823C107.583 56.1073 107.784 55.5755 107.772 55.5026C107.752 55.4124 107.808 55.4124 107.808 55.3022C107.827 55.2467 107.694 55.3187 107.607 55.3022L107.258 56.0899C107.092 56.3836 107.002 56.7874 106.837 57.0985C106.654 57.4646 106.031 58.1451 105.755 58.418L104.985 59.0232C104.82 59.1333 104.491 59.116 104.325 59.116C104.29 59.116 104.27 59.0986 104.252 59.0986C104.196 59.0236 104.123 58.9685 104.086 58.8727C103.989 58.6015 103.928 58.3168 103.903 58.0299C103.865 57.3324 104.104 55.9395 104.307 55.4806C104.397 55.3522 104.38 55.1869 104.453 55.059C104.55 54.909 104.631 54.75 104.691 54.5822C104.747 54.3924 104.82 54.2072 104.917 54.0326L105.007 53.8292L105.76 52.0211L105.797 51.9656C105.833 51.8923 105.871 51.8372 105.943 51.8198L106.365 51.7643C106.446 51.7533 106.526 51.7363 106.603 51.7092C106.729 51.6719 106.859 51.6529 106.99 51.6537C107.208 51.6702 107.429 51.58 107.63 51.5609C107.637 51.5609 107.641 51.5584 107.643 51.5558C107.644 51.5537 107.65 51.5469 107.65 51.5431L108.045 51.36L108.175 51.2672L108.249 51.1566C108.134 51.1316 108.018 51.1134 107.9 51.1016L106.896 51.1096ZM93.7878 54.5746L93.9162 54.3716C94.0857 54.1708 94.2268 53.9326 94.4281 53.7869C94.7035 53.561 95.2908 53.4004 94.9976 54.0975C94.8874 54.4081 94.8145 54.4636 94.687 54.7759C94.612 54.9043 94.5213 55.0318 94.3938 55.0696C94.2454 55.0861 94.1001 55.1068 93.9895 54.9768C93.942 54.9246 93.8861 54.8814 93.8238 54.8484C93.7336 54.7928 93.7136 54.7026 93.7891 54.5746H93.7878ZM74.6817 54.5746L74.8101 54.3716C74.9758 54.1708 75.1237 53.9326 75.3186 53.7869C75.5941 53.561 76.1788 53.4004 75.8881 54.0975C75.778 54.4081 75.7025 54.4636 75.5746 54.7759C75.5012 54.9043 75.4055 55.0318 75.2809 55.0696C75.1351 55.0861 74.9894 55.1068 74.8855 54.9768C74.8381 54.9246 74.7817 54.8814 74.7199 54.8484C74.6271 54.7928 74.6093 54.7026 74.6826 54.5746H74.6817ZM72.5363 55.784C72.5918 55.8942 72.5736 56.0226 72.5562 56.1505L72.5007 56.7201C72.4808 56.7001 72.4634 56.7001 72.4634 56.6828C72.4261 56.409 72.4079 56.1327 72.5007 55.8395C72.5007 55.8226 72.5176 55.8022 72.5363 55.784ZM72.7401 57.5625C72.6918 57.5493 72.6477 57.5239 72.6117 57.4892C72.5562 57.4252 72.5058 57.3591 72.4634 57.2862C72.2625 56.9019 72.2375 56.4612 72.3176 55.9836L72.3731 55.7276C72.3998 55.6395 72.4367 55.5581 72.4863 55.4717V55.6001C72.4837 55.6573 72.471 55.7128 72.4511 55.7658C72.3892 56.0294 72.3651 56.3006 72.3782 56.5709C72.3782 56.5908 72.3583 56.6082 72.3782 56.6264C72.4138 56.865 72.4515 57.1031 72.5473 57.2866C72.5473 57.3061 72.5672 57.3061 72.585 57.3239C72.6223 57.2506 72.568 57.2133 72.568 57.1582L72.5125 57.012C72.5214 57.0014 72.535 56.9955 72.5481 56.9925C72.6036 57.0853 72.6036 57.1955 72.6583 57.3057C72.7003 57.3943 72.7486 57.4752 72.8066 57.5616C72.7693 57.5616 72.7511 57.5786 72.7511 57.5616L72.7401 57.5625ZM78.4628 56.6735C78.4404 56.6578 78.4387 56.6421 78.4234 56.6273C78.4298 56.5959 78.4463 56.5667 78.4696 56.5455C78.4654 56.5874 78.4628 56.6307 78.4628 56.6735ZM78.4802 56.4353L78.4052 56.4633L78.4785 56.3531L78.5069 56.3192C78.4938 56.3548 78.484 56.3942 78.4802 56.4336V56.4353ZM91.422 55.9866L91.4771 55.7285C91.5042 55.6395 91.5411 55.5539 91.5877 55.4725V55.6009C91.583 55.6577 91.5707 55.7137 91.5504 55.7666L91.5165 55.9209L91.4033 56.1217L91.4203 55.9849L91.422 55.9866ZM91.6695 56.0908C91.6648 56.1107 91.6623 56.1306 91.6606 56.1505L91.605 56.7201C91.5881 56.7027 91.5678 56.7027 91.5678 56.6828C91.55 56.5506 91.5406 56.4179 91.5398 56.2853C91.5792 56.2192 91.6186 56.159 91.6695 56.0908ZM91.839 57.5625C91.7907 57.5498 91.7462 57.5252 91.7106 57.4892C91.6559 57.426 91.6063 57.3578 91.5627 57.2862C91.447 57.0565 91.3843 56.8035 91.3792 56.5468L91.472 56.3853V56.5709C91.472 56.5908 91.4521 56.6082 91.472 56.6264C91.5076 56.865 91.5457 57.1031 91.6377 57.2866C91.6377 57.3061 91.6546 57.3061 91.6733 57.3239C91.7106 57.2506 91.6563 57.2137 91.6563 57.1582L91.6008 57.012C91.6097 57.0014 91.6237 56.9955 91.6385 56.9925C91.6915 57.0853 91.6915 57.1955 91.7517 57.3057C91.7945 57.3951 91.8436 57.4803 91.8996 57.5616C91.8623 57.5616 91.8445 57.5786 91.8445 57.5616L91.839 57.5625ZM97.5626 56.6735C97.5397 56.6578 97.538 56.6421 97.5227 56.6273C97.5299 56.5959 97.5473 56.5675 97.5689 56.5455L97.5626 56.6735ZM97.5795 56.4353L97.5041 56.4633L97.5778 56.3531L97.6058 56.3192C97.5931 56.3548 97.5833 56.3942 97.5791 56.4336L97.5795 56.4353ZM104.912 52.5944C104.771 52.8728 104.648 53.1601 104.546 53.4546C104.29 54.1331 103.703 55.2632 104.105 53.7483L104.546 52.1529C105.15 51.769 105.095 52.1364 104.912 52.5944ZM105.609 49.7892L105.533 50.2282L105.48 50.4841L105.37 51.0537C105.26 51.3821 104.746 51.3643 104.818 50.888C104.873 50.6876 104.911 50.4841 104.948 50.3002L105.131 49.8964C105.174 49.7307 105.235 49.5705 105.314 49.4197C105.349 49.3426 105.407 49.279 105.48 49.2362C105.516 49.201 105.571 49.2193 105.593 49.2917C105.619 49.4561 105.625 49.6222 105.613 49.7884L105.609 49.7892ZM113.436 60.5131H113.453V60.4575C113.436 60.4575 113.436 60.4948 113.436 60.5131ZM113.474 60.4397C113.474 60.4351 113.471 60.4308 113.467 60.427C113.462 60.4228 113.458 60.422 113.454 60.422V60.4575C113.454 60.441 113.454 60.441 113.474 60.441V60.4397Z" fill="#3973B9"/>
<path d="M123.215 55.2026C123.151 55.2797 123.076 55.3483 122.989 55.4055L122.915 55.4962C122.878 55.5335 122.749 55.4789 122.714 55.5161C122.695 55.5327 122.714 55.4606 122.621 55.4055C122.63 55.2399 122.63 55.0746 122.621 54.9085C122.621 54.6699 122.638 54.414 122.605 54.1754L122.475 53.4232V53.3495C122.361 53.1109 122.236 52.9457 122.022 52.9457C121.912 52.9457 121.797 52.9656 121.674 52.9656C121.548 52.9902 121.44 53.0719 121.381 53.1842C121.297 53.3457 121.197 53.5008 121.087 53.6436C120.994 53.8216 120.89 53.9936 120.776 54.158C120.647 54.3771 120.006 55.684 119.933 55.9547C119.858 56.2653 119.015 57.1289 119.29 56.2484C119.491 55.5509 119.933 54.9462 120.172 54.1758C120.262 53.7915 120.3 54.0652 120.39 53.6987C120.501 53.3504 120.466 53.1317 120.3 52.8385C120.117 52.6126 119.934 52.452 119.805 52.2139C119.705 52.1168 119.576 52.0533 119.437 52.0308C119.287 51.991 119.135 51.9672 118.985 51.9571C118.8 51.9198 118.727 51.9571 118.655 52.1956C118.509 52.4893 118.399 52.7834 118.27 53.1109C118.233 53.2393 118.16 53.3368 118.142 53.4597C117.884 54.175 117.957 54.0644 117.829 54.7792C117.702 55.2055 117.74 55.2386 117.694 55.5784C117.456 55.7568 117.136 56.392 116.951 56.392C116.725 56.5204 116.725 56.5399 116.725 56.5399C116.643 56.5577 116.563 56.5823 116.486 56.6132L116.21 56.6865C115.992 56.7603 115.734 56.5937 115.46 56.5937C115.294 56.631 114.652 56.3204 114.431 56.3552C114.158 56.2814 114.286 55.934 114.378 55.7153C114.617 55.0903 114.469 55.3488 114.725 54.7415C114.849 54.4869 114.952 54.225 115.038 53.9534C115.223 53.5495 115.384 53.1321 115.515 52.7067L115.684 52.2122L116.088 51.1129L116.344 50.4532C116.638 49.8108 116.821 50.5061 116.785 50.8744C116.737 51.3265 116.624 51.7592 116.454 52.174L116.002 53.1279C115.912 53.294 115.85 53.4732 115.817 53.6593C115.965 53.569 116.092 53.5309 116.221 53.4588C116.329 53.4143 116.415 53.3283 116.459 53.2203C116.848 52.6817 117.168 52.0969 117.413 51.4791C117.523 51.1655 117.579 50.9477 117.468 50.6358C117.542 50.3049 117.358 50.0663 117.303 49.8281C117.247 49.7544 117.174 49.718 117.174 49.6625C116.991 49.493 116.79 49.334 116.514 49.2963C116.441 49.3133 116.368 49.2794 116.288 49.2612C116.05 49.1684 115.556 49.3146 115.335 49.5171C115.166 49.6455 114.884 49.9214 114.751 50.0481C114.585 50.0837 114.457 50.2138 114.163 50.6909L113.503 51.624C113.465 51.6795 113.942 51.1125 113.898 51.1655C113.13 52.6512 112.066 55.0894 111.991 55.456C111.991 55.5488 111.918 55.6043 111.901 55.6945L111.48 56.8688C111.44 57.0739 111.384 57.276 111.314 57.473C111.297 57.5218 111.283 57.5701 111.277 57.6213C111.241 57.7315 111.186 57.8218 111.186 57.9319C111.149 58.0201 111.124 58.1129 111.113 58.2074C111.085 58.3137 111.065 58.4265 111.058 58.5362L110.709 59.9113C110.654 60.2422 110.561 60.5541 110.616 60.8834C110.614 60.8965 110.608 60.9101 110.599 60.9207C110.575 61.2181 110.569 61.519 110.582 61.8245C110.576 62.072 110.602 62.3161 110.656 62.5572L110.746 62.783C110.749 63.0021 110.835 63.2115 110.985 63.3704C111.06 63.4492 111.139 63.5225 111.224 63.5911C111.334 63.6814 111.482 63.7369 111.61 63.6814L111.756 63.6467C111.811 63.6632 111.811 63.6089 111.849 63.6089C111.904 63.6089 111.995 63.5716 112.075 63.592C112.198 63.567 112.297 63.4755 112.33 63.3534C112.474 63.0915 112.602 62.822 112.714 62.5457L112.77 62.4356C112.863 62.3576 112.916 62.2432 112.918 62.1245V61.9961C113.047 61.8131 113.119 61.5576 113.212 61.2808C113.229 61.1525 113.285 60.9872 113.322 60.8418C113.367 60.7507 113.385 60.649 113.375 60.5482C113.373 60.5215 113.38 60.4952 113.395 60.4732C113.412 60.4732 113.431 60.438 113.45 60.438C113.45 60.4181 113.467 60.4181 113.467 60.438C113.485 60.3308 113.516 60.2257 113.56 60.1266C113.552 60.0151 113.564 59.9032 113.596 59.7956C113.596 59.6498 113.651 59.5202 113.689 59.3744C113.69 59.2617 113.709 59.1502 113.744 59.0434L113.761 58.421C113.752 58.3413 113.752 58.2612 113.761 58.1824L113.706 56.9959C113.595 56.2437 115.173 57.5273 117.005 56.8675L117.354 56.6416C117.449 56.5679 117.541 56.4895 117.627 56.4052L117.592 57.2107C117.583 57.5298 117.601 57.8489 117.648 58.1646C117.721 58.5307 117.874 58.8049 118.156 58.8799C118.192 58.9155 118.23 58.9532 118.266 58.9155C118.56 58.9888 118.816 59.0083 119.035 58.6964C119.072 58.6591 119.127 58.6409 119.127 58.6036C119.238 58.5108 119.697 57.6315 119.732 57.5222L119.898 57.101C120.026 56.6967 120.226 56.348 120.392 55.9636L120.723 55.2297C120.834 54.8996 120.975 54.5801 121.144 54.2763C121.161 54.2207 121.218 54.1661 121.2 54.0932C121.213 53.9771 121.25 53.8648 121.31 53.7644L121.566 53.3054L121.64 53.2126C121.64 53.1779 121.677 53.1961 121.695 53.1961C121.717 53.2622 121.711 53.3351 121.678 53.3965L121.622 53.7275L121.567 54.1792C121.503 54.5275 121.521 54.886 121.622 55.2259C121.713 55.4818 121.878 55.6852 122.099 55.7344C122.228 55.7899 122.355 55.8081 122.483 55.8801C122.525 55.9174 122.589 55.9174 122.631 55.8801C122.678 55.8429 122.735 55.8166 122.797 55.8064C122.875 55.809 122.947 55.7725 122.998 55.7136L123.053 55.6789C123.053 55.6589 123.089 55.6416 123.109 55.6234L123.164 55.5678C123.218 55.5437 123.259 55.4967 123.274 55.4394L123.328 55.3466C123.376 55.3144 123.404 55.2598 123.403 55.2009C123.329 55.1106 123.274 55.1106 123.22 55.2009L123.215 55.2026ZM113.075 58.301C113.052 58.6578 113.009 59.0129 112.947 59.3651L112.761 60.7779C112.742 60.9359 112.705 61.0957 112.671 61.2546L112.47 61.9495C112.36 62.2254 112.433 62.0974 112.322 62.3534C112.285 62.4462 112.156 62.9233 111.974 62.5542C111.954 62.508 111.94 62.4589 111.939 62.4085L111.955 61.8999C111.969 61.7631 112 61.6288 112.048 61.5042C112.079 61.3953 112.104 61.2847 112.121 61.1732C112.157 60.9897 112.212 60.8626 112.212 60.6961C112.231 60.6058 112.267 60.5304 112.287 60.4575C112.304 60.3473 112.378 60.2918 112.342 60.1638C112.393 60.0198 112.436 59.8731 112.471 59.7253C112.488 59.5596 112.544 59.3943 112.584 59.2168C112.583 59.0981 112.602 58.9803 112.639 58.868L112.805 58.3371L112.861 58.168C112.916 57.8921 113.136 57.2145 113.086 58.3137L113.075 58.301ZM113.204 52.9902C113.094 53.2287 113.003 53.5211 112.855 53.7783V53.6682C112.977 53.2487 113.142 52.8431 113.35 52.4588C113.367 52.4456 113.385 52.4321 113.405 52.4236C113.363 52.6202 113.292 52.8122 113.204 52.991L113.204 52.9902ZM113.608 52.3117C113.55 52.4893 113.477 52.6605 113.387 52.8241V52.7685C113.425 52.655 113.387 52.599 113.442 52.4749C113.498 52.3054 113.553 52.2363 113.608 51.9982C113.935 51.3269 114.354 50.7019 114.855 50.1468C114.928 50.0006 115.024 49.9633 115.111 49.8904C115.196 49.8095 115.289 49.7358 115.387 49.6697L115.221 49.8548C115.221 49.9455 115.111 49.9832 115.073 50.0243C114.834 50.2824 114.561 50.6121 114.25 51.0155C113.782 51.6202 114.212 51.0155 114.267 51.0888C114.041 51.4375 113.772 51.7685 113.607 52.1355C113.592 52.1706 113.586 52.2079 113.587 52.2461C113.68 52.1905 113.717 52.0605 113.735 51.9702C113.772 51.9329 114.139 51.3825 114.174 51.2727L114.194 51.3282C114.119 51.4939 113.717 52.116 113.606 52.3194L113.608 52.3117ZM134.746 55.2343C134.691 55.3246 134.691 55.3246 134.691 55.3445C134.6 55.6382 134.397 55.8568 134.239 56.095C133.357 57.0302 133.908 57.2315 132.387 57.7828C132.277 57.7997 132.184 57.8383 132.094 57.7633C131.997 57.7235 131.906 57.6722 131.818 57.6171C131.745 57.5404 131.695 57.4451 131.672 57.3412C131.652 57.1756 131.725 56.2425 131.725 56.0594C131.745 55.7284 131.745 55.8013 131.891 55.4344C131.92 55.3907 131.939 55.3407 131.946 55.2886C131.984 55.1055 131.653 55.8009 131.72 55.5823C131.813 55.4166 131.886 55.1958 131.959 55.0301L132.052 54.7568L132.438 54.0042C132.491 53.8207 132.474 53.6936 132.401 53.6088C132.327 53.5334 132.145 53.4432 132.09 53.3703C131.905 53.2601 131.448 53.5893 131.248 53.6262C131.19 53.6576 131.139 53.7016 131.099 53.7546L131.082 53.7711C131.045 53.7868 131.003 53.7783 130.972 53.7546C130.917 53.8648 130.899 53.9377 130.917 54.0106C130.954 54.139 130.9 54.214 130.843 54.3212C130.824 54.3487 130.812 54.3805 130.806 54.414C130.695 54.6699 130.367 55.0742 130.218 55.4399C130.09 55.6568 130.17 55.6123 130.258 55.539C130.125 55.7039 129.984 55.8611 129.834 56.009L129.503 56.3755L129.447 56.4306L128.533 57.2006C128.156 57.5027 127.728 57.7328 127.268 57.8781C127.175 57.8951 126.644 57.9887 126.553 57.9709C126.259 57.9514 125.949 57.6222 125.69 57.3662C125.637 57.2908 125.49 56.8895 125.435 56.8141C125.389 56.7107 125.364 56.5988 125.362 56.4857C125.365 56.3632 125.359 56.2408 125.344 56.1196C125.324 56.1196 125.307 56.0996 125.269 56.0819L125.324 55.6979H125.362C125.364 55.7467 125.357 55.795 125.345 55.8437H125.473V55.8276C125.453 55.8077 125.436 55.8077 125.399 55.8077C125.416 55.6941 125.416 55.6793 125.453 55.6619C125.508 55.6445 125.528 55.6246 125.546 55.5517C125.548 55.5144 125.568 55.478 125.601 55.4611C125.638 55.4441 125.667 55.4043 125.674 55.3683C125.674 55.2577 125.748 55.1848 125.767 55.0924C125.823 55.0373 125.877 55.0576 125.896 55.1123C125.988 55.2581 126.061 55.4233 126.134 55.564C126.151 55.6195 126.19 55.6568 126.151 55.7301C126.156 55.7636 126.168 55.795 126.188 55.8225C126.299 55.878 126.389 56.0416 126.537 56.0238C126.541 56.0238 126.546 56.0259 126.55 56.028C126.554 56.0306 126.555 56.0369 126.555 56.0412C126.592 56.1166 126.647 56.0967 126.703 56.1166C126.821 56.1335 126.942 56.1141 127.049 56.0611C127.193 56.0191 127.313 55.9196 127.38 55.7856C127.455 55.6708 127.516 55.5479 127.563 55.4191C127.62 55.2856 127.687 55.1564 127.764 55.0326C127.899 54.8131 127.992 54.5708 128.039 54.3174C128.086 54.0995 128.086 53.875 128.039 53.6576C128.027 53.5978 128.002 53.5427 127.966 53.4936C127.838 53.3834 127.763 53.1999 127.672 53.0347C127.645 52.9639 127.602 52.9012 127.544 52.8512C127.378 52.741 126.681 52.5575 126.497 52.4647C126.462 52.43 126.442 52.3545 126.387 52.3189C126.352 52.2817 126.277 52.3024 126.218 52.2456C126.162 52.1528 126.069 52.1706 125.979 52.2079L125.793 52.3007C125.49 52.4956 125.213 52.7296 124.971 52.9961C124.715 53.252 124.487 53.5347 124.291 53.8389C124.092 54.1347 123.921 54.4479 123.779 54.7746C123.724 54.903 123.649 55.0132 123.649 55.1784C123.737 55.0263 123.818 54.8682 123.875 54.7017C123.906 54.6114 123.972 54.5322 124.058 54.4983C124.078 54.664 124.078 54.664 124.023 54.7737C123.777 55.2831 123.645 55.8399 123.637 56.4052C123.656 56.6806 123.674 56.9366 123.765 57.1756C123.818 57.3239 123.907 57.4561 124.023 57.5616C124.317 57.8175 124.445 58.129 125.085 58.3862C125.324 58.4769 126.407 58.6777 126.663 58.6422C126.888 58.6265 127.11 58.5833 127.324 58.5138L127.489 58.4587C127.697 58.4138 127.897 58.3328 128.077 58.2201C128.183 58.1527 128.294 58.09 128.406 58.037L128.632 57.8887C128.722 57.8319 128.801 57.7603 128.888 57.6879C129.078 57.5438 129.255 57.384 129.419 57.2111C129.514 57.098 129.619 56.9925 129.73 56.9005C129.786 56.8412 129.847 56.776 129.896 56.7086C129.895 56.8349 129.883 56.9603 129.858 57.084C129.854 57.195 129.867 57.3056 129.896 57.4124C129.896 57.651 129.989 57.9069 130.079 58.1451C130.224 58.3171 130.406 58.4549 130.61 58.5489C130.886 58.6595 131.119 58.915 131.38 58.8248C132.186 59.135 133.433 58.0366 133.615 57.7985C134.24 57.4302 134.516 56.4234 134.9 55.7259C134.642 55.6704 134.844 55.4153 134.752 55.2318L134.746 55.2343ZM126.11 54.5746L126.24 54.3712C126.409 54.1703 126.551 53.9322 126.752 53.786C127.027 53.5601 127.615 53.3999 127.322 54.097C127.211 54.4072 127.136 54.4627 127.008 54.775C126.935 54.9034 126.839 55.0309 126.716 55.0687C126.568 55.0856 126.423 55.106 126.313 54.9759C126.265 54.9242 126.209 54.8805 126.147 54.8475C126.054 54.792 126.036 54.7017 126.109 54.5741L126.11 54.5746ZM123.965 55.7835C124.02 55.8941 124.002 56.0221 123.984 56.1497L123.929 56.7192C123.909 56.6993 123.892 56.6993 123.892 56.6819C123.856 56.4081 123.836 56.1323 123.929 55.839C123.929 55.8217 123.946 55.8018 123.965 55.7835ZM124.168 57.562C124.12 57.5489 124.076 57.5235 124.04 57.4887C123.985 57.4251 123.935 57.3569 123.892 57.2857C123.691 56.9014 123.666 56.4607 123.745 55.9831L123.801 55.7272C123.828 55.639 123.865 55.5577 123.914 55.4712V55.5996C123.912 55.6568 123.899 55.7123 123.879 55.7653C123.818 56.0289 123.793 56.3001 123.806 56.5704C123.806 56.5904 123.787 56.6077 123.806 56.6259C123.842 56.8645 123.88 57.1027 123.976 57.2862C123.976 57.3056 123.995 57.3056 124.013 57.3234C124.05 57.2501 123.996 57.2128 123.996 57.1578L123.941 57.0116C123.95 57.001 123.963 56.995 123.976 56.9921C124.031 57.0849 124.031 57.195 124.087 57.3052C124.129 57.3938 124.177 57.4747 124.234 57.5612C124.197 57.5612 124.179 57.5781 124.179 57.5612H124.168V57.562ZM129.892 56.6726C129.869 56.6577 129.867 56.6416 129.852 56.6264C129.859 56.5954 129.876 56.567 129.898 56.5446L129.892 56.6726ZM129.909 56.4344L129.833 56.4624L129.907 56.3522L129.935 56.3183C129.922 56.3539 129.912 56.3937 129.908 56.4331V56.4344H129.909Z" fill="#3973B9"/>
<path d="M131.795 52.4703C131.874 52.5271 131.978 52.5122 132.051 52.4533C132.088 52.4186 132.144 52.3796 132.179 52.3978C132.283 52.3753 132.379 52.3249 132.455 52.252L132.638 52.0262C132.663 52.0012 132.676 51.9681 132.676 51.9334C132.693 51.8736 132.732 51.8185 132.766 51.7639C132.804 51.7266 132.821 51.6711 132.876 51.6156C132.812 51.494 132.709 51.3978 132.583 51.3422C132.501 51.3249 132.421 51.2994 132.344 51.2668C132.327 51.2499 132.306 51.2668 132.27 51.2867C132.234 51.3067 132.197 51.3033 132.197 51.2668C132.169 51.2499 132.133 51.2499 132.104 51.2668C132.067 51.2668 132.031 51.3041 131.994 51.3422L131.884 51.5113C131.828 51.6219 131.738 51.7143 131.738 51.8249C131.738 51.8418 131.682 51.88 131.682 51.9156C131.626 51.9906 131.589 52.0719 131.554 52.1542C131.53 52.2135 131.512 52.2745 131.498 52.3372L131.443 52.4126C131.509 52.4266 131.576 52.433 131.644 52.43C131.697 52.4232 131.748 52.4368 131.792 52.4656L131.795 52.4703ZM148.096 53.0949C148.152 53.0131 148.238 52.9601 148.335 52.9466C148.409 52.9296 148.501 52.8728 148.629 52.833L148.28 52.7957C148.356 52.5953 148.506 52.6127 148.629 52.5699L148.318 52.3694C148.519 52.3525 148.684 52.4796 148.941 52.2766C148.702 52.2766 148.489 52.2766 148.612 51.983C148.657 51.9821 148.701 51.9707 148.74 51.9482C148.667 51.7096 148.465 51.544 148.232 51.4507C148.27 51.5262 148.362 51.599 148.417 51.6766L148.38 51.7139H148.252C148.214 51.8596 148.159 51.9698 148.178 52.0622C148.22 52.1508 148.269 52.2317 148.324 52.3181C148.176 52.3135 148.031 52.3203 147.885 52.3351C147.748 52.3728 147.606 52.3855 147.464 52.3724C147.238 52.3351 147.023 52.3893 146.804 52.408C146.742 52.4436 146.672 52.4626 146.601 52.4635C146.491 52.4635 146.345 52.4465 146.252 52.4465C146.308 52.2203 146.4 52.0423 146.601 51.938C146.745 51.8618 146.9 51.8063 147.06 51.774L148.104 51.5482C148.069 51.438 147.959 51.4554 147.866 51.4745C147.389 51.5846 146.456 51.8588 146.748 51.0532C146.987 50.3558 147.243 49.6405 147.609 48.9434C147.757 48.7425 147.775 48.5222 147.865 48.3031C147.94 47.9544 147.792 47.7332 147.519 47.5878C147.205 47.4141 146.85 47.3247 146.491 47.3297H145.74L145.171 48.3387C145.115 48.487 145.025 48.6697 145.025 48.798C145.007 48.965 144.956 49.1265 144.877 49.2748C144.766 49.4934 144.603 49.696 144.603 49.9345C144.603 50.0807 144.493 50.2638 144.455 50.4117L143.924 51.8041C143.907 51.8779 143.85 51.9143 143.813 52.0075C142.438 52.5194 141.302 52.63 142.366 50.9058L142.697 50.0807C142.771 49.8248 142.915 49.5693 143.026 49.2756C143.081 49.1099 143.063 48.9998 142.879 48.9442L142.476 48.8892C142.362 48.8625 142.233 48.9247 142.182 49.037L141.376 50.563C141.028 51.3325 140.789 51.749 140.569 52.5254C140.531 52.7512 140.293 53.075 140.06 53.1296C139.694 53.1851 139.42 53.3152 139.156 53.2051L138.79 53.9733C138.846 54.0288 138.846 54.139 138.81 54.2869C138.755 54.4877 138.755 54.6827 138.7 54.9098C138.662 55.02 138.7 55.1484 138.717 55.2586C138.772 55.9556 139.577 55.4043 139.248 56.2493L138.588 58.8337C138.554 59.021 138.548 59.2126 138.57 59.4011C138.587 59.5295 138.699 59.6397 138.899 59.6045C138.954 59.5672 139.027 59.6045 139.1 59.6045C139.559 59.6211 139.503 59.6401 139.852 59.2007C139.869 59.163 139.869 59.1452 139.907 59.127C140.273 58.5024 140.312 57.8977 140.53 57.293C140.567 57.2002 140.55 57.1273 140.567 57.0544L140.66 56.523C141.026 55.2391 140.916 55.3365 142.254 54.7153C142.352 54.6979 142.446 54.6602 142.529 54.6047C143.832 54.2386 142.329 56.64 142.492 57.3371L142.218 58.5236C142.181 58.6142 142.181 58.707 142.126 58.7973C142.035 58.9257 141.997 59.0232 142.052 59.091C142.069 59.1282 142.035 59.1838 142.015 59.2193C142.015 59.2927 141.959 59.385 141.959 59.4228C142.015 59.6486 141.996 59.8969 141.904 60.1173V60.3207C141.887 60.4902 141.904 60.6669 141.887 60.8326C141.87 60.8881 141.813 60.9254 141.776 60.9983C141.814 61.0538 141.905 61.1267 141.925 61.1817C141.998 61.3474 142.015 61.3648 142.254 61.2551L142.401 61.1089C142.475 61.1262 142.512 61.1644 142.585 61.1644C142.602 61.1644 142.64 61.1089 142.695 61.0542C142.768 60.9987 142.731 61.147 142.824 61.0915C143.062 60.8656 143.332 60.9258 143.576 60.705C143.623 60.6893 143.673 60.6834 143.722 60.6876C143.799 60.6631 143.879 60.6504 143.96 60.6504C144.071 60.522 144.236 60.4118 144.254 60.302C144.347 60.0635 144.493 59.8253 144.437 59.5694C144.437 59.5342 144.454 59.4787 144.454 59.4232C144.53 59.1477 144.658 58.8354 144.547 58.5808C144.53 58.5608 144.564 58.5053 144.564 58.4706C144.601 58.4151 144.657 58.3778 144.657 58.3422C144.767 57.9735 144.84 57.6074 144.913 57.24C145.023 56.8557 145.041 56.4518 145.17 56.0535C145.248 55.8192 145.309 55.581 145.354 55.3382C145.409 55.009 145.464 54.6776 145.61 54.3492C145.676 54.1225 145.858 53.9479 146.087 53.8907L147.022 53.597C147.453 53.425 147.894 53.2784 148.342 53.1576C148.264 53.1317 148.183 53.1131 148.101 53.1021L148.096 53.0949ZM140.047 54.0102C139.862 54.0657 139.672 54.1085 139.48 54.1386C139.625 53.9551 139.79 53.9551 139.956 53.8826C139.919 53.7898 139.901 53.7364 139.791 53.7165C139.681 53.7165 139.565 53.6818 139.48 53.6818C139.571 53.4432 139.626 53.3682 139.846 53.3135C140.02 53.3 140.192 53.2695 140.361 53.2233L140.047 54.0102ZM143.128 52.5071C143.128 52.5237 143.091 52.5626 143.091 52.5804C142.987 52.5783 142.882 52.5851 142.779 52.6004C142.893 52.5584 143.009 52.5271 143.128 52.5071ZM141.809 52.9665C141.809 52.8563 141.899 52.8182 142.009 52.8008C142.235 52.7271 142.468 52.6906 142.689 52.6173L141.919 52.9661C141.899 52.983 141.863 52.9665 141.809 52.9665ZM141.919 53.2771C142.022 53.2241 142.133 53.1868 142.247 53.1669C142.177 53.2771 142.04 53.3233 141.919 53.2771ZM142.963 53.478C143.188 53.2767 143.293 53.3644 143.422 53.3868C143.274 53.5152 143.166 53.4424 142.963 53.478ZM142.059 53.4224C142.155 53.3381 142.279 53.2923 142.407 53.294C142.546 53.2915 142.683 53.2601 142.811 53.2034C143.05 53.1284 143.25 53.0733 143.434 53.0932L143.527 53.1839C143.048 53.3182 142.554 53.4004 142.059 53.4224Z" fill="#3973B9"/>
<path d="M148.756 51.9401L148.739 51.9571L148.756 51.974V51.9401ZM166.962 55.3132L166.888 55.1301L166.614 55.4407C166.501 55.5708 166.391 55.695 166.266 55.8064C166.078 55.9759 165.882 56.1349 165.678 56.2836L164.853 56.9082C164.376 57.0366 163.789 57.5307 163.626 57.1269C163.551 57.0531 163.551 56.8531 163.461 56.7806C163.258 56.5777 163.057 55.8798 162.818 55.6785C162.742 55.6115 162.68 55.5302 162.635 55.4399C162.577 55.2238 162.578 54.9882 162.652 54.7801L162.8 54.4865C162.811 54.4712 162.817 54.4513 162.817 54.431C162.8 54.3407 162.872 54.2852 162.89 54.2305C162.924 54.1568 162.974 54.0958 163.038 54.047C163.112 54.0271 163.129 53.972 163.167 53.8987C163.23 53.7462 163.282 53.5856 163.313 53.422C163.343 53.3148 163.355 53.2038 163.35 53.0932C163.319 53.0504 163.306 52.9974 163.313 52.9449C163.296 52.7063 163.002 52.0296 162.836 51.9562C162.827 51.9452 162.813 51.9393 162.801 51.9368C162.707 51.8414 162.594 51.7673 162.47 51.7177C162.433 51.6804 162.397 51.7177 162.341 51.791C162.32 51.8448 162.281 51.8901 162.231 51.9194C162.194 51.9368 162.176 51.9368 162.158 51.9749C162.084 52.1033 161.974 52.2135 161.902 52.3588L161.736 52.6898C161.692 52.7465 161.657 52.7965 161.626 52.8554C161.588 52.969 161.552 53.0249 161.515 53.1114C161.46 53.2042 161.442 53.3377 161.387 53.422C161.442 53.5148 161.387 53.6254 161.37 53.6779C161.296 53.7733 161.264 53.8932 161.277 54.0089C161.24 54.0826 161.26 54.1195 161.222 54.1551C161.222 54.3954 161.405 55.1717 161.568 55.6603L161.349 56.0442C161.001 56.6141 160.25 57.3286 159.824 57.5125C159.181 57.7129 158.54 57.5481 158.594 57.3091C158.594 57.2353 158.668 56.9133 158.82 56.2832C158.93 56.137 158.911 55.9344 158.986 55.7713C159.059 55.623 159.132 55.4577 159.114 55.3475C159.224 55.178 159.188 55.3124 159.243 55.178C159.408 54.7742 159.426 54.4085 159.553 54.0593C159.498 54.0216 159.536 53.9487 159.498 53.8758C159.332 53.783 159.571 53.7657 159.297 53.783C159.223 53.7665 159.242 53.7457 159.059 53.8004C158.955 53.9263 158.873 54.0699 158.82 54.2216C158.659 54.4288 158.518 54.65 158.399 54.8839C158.306 55.0848 158.288 55.0123 158.173 55.2501C158.115 55.3696 158.041 55.4806 157.952 55.5789C157.806 55.762 157.714 55.6717 157.568 55.8726C157.33 56.1662 156.743 56.1827 156.304 56.4222C156.194 56.4594 156.156 56.1488 156.078 56.0565C155.985 55.9827 156.078 55.7077 156.115 55.5615C156.195 55.3937 156.25 55.214 156.279 55.0301C156.316 54.92 156.354 54.4076 156.445 54.278C156.555 53.8385 156.953 52.9783 157.069 52.519C157.069 52.4457 157.086 52.3711 157.031 52.3355C156.958 52.2605 156.958 52.1698 156.886 52.1524C156.795 52.0194 156.642 51.9427 156.482 51.9495C156.298 51.9664 156.499 52.0978 156.224 52.2431C156.133 52.3359 156.005 52.3359 155.878 52.3914C155.785 52.4444 155.692 52.4817 155.639 52.6101C155.511 52.8084 155.4 53.0173 155.308 53.2347C155.142 53.619 154.153 55.1416 154.061 55.5624L153.997 55.7713C153.86 55.9738 153.711 56.1666 153.549 56.3493L153.255 56.6052L152.852 56.8446C152.739 56.9133 152.623 56.9747 152.503 57.0281C152.38 57.0764 152.251 57.1074 152.119 57.1209C152.051 57.1209 151.989 57.0857 151.953 57.0281C151.882 56.8815 151.827 56.7281 151.788 56.5705C151.77 56.4391 151.79 56.3052 151.843 56.184L152.099 55.6721C152.118 55.6348 152.136 55.6166 152.136 55.5793C152.119 55.3963 152.099 55.2136 151.971 55.0484L151.86 54.9378C151.747 54.8094 151.621 54.792 151.465 54.8094L151.078 55.4344C150.985 55.5759 150.881 55.7103 150.767 55.8357L150.619 56.0014C150.548 56.123 150.449 56.2264 150.345 56.312C150.131 56.4751 149.93 56.6527 149.74 56.8438L149.667 56.8993C149.667 56.8641 149.647 56.8438 149.667 56.8256C149.706 56.6137 149.78 56.4094 149.886 56.2213C149.904 56.1802 149.929 56.1429 149.959 56.1107L150.145 55.8548C150.28 55.6514 150.427 55.4552 150.584 55.267L150.809 55.0284C150.979 54.7899 151.205 54.6072 151.414 54.4043V54.3873C151.555 54.2725 151.71 54.1754 151.874 54.0936C152.018 54.0352 152.09 53.8733 152.037 53.7275L151.982 53.5818C151.908 53.4517 151.781 53.3559 151.671 53.2508C151.646 53.2279 151.613 53.2156 151.581 53.2135C151.488 53.2135 151.415 53.1228 151.323 53.1228C151.31 53.1207 151.296 53.1139 151.287 53.1033C151.25 53.0296 151.177 53.0296 151.084 53.0127C151.047 53.008 151.009 52.9957 150.974 52.9754C150.846 52.9402 150.7 52.9402 150.59 52.8847H150.534C150.418 52.8872 150.301 52.8978 150.186 52.9203C150.129 52.9228 150.073 52.9351 150.02 52.9576C149.762 53.1118 149.528 53.3029 149.325 53.5254L148.517 54.5716C148.5 54.5886 148.482 54.6089 148.482 54.6271C148.309 54.8339 148.16 55.0615 148.041 55.3043C147.911 55.5602 147.86 55.8471 147.895 56.1323C147.95 56.7018 148.244 57.1044 148.776 57.3188C148.871 57.354 148.962 57.3968 149.05 57.4472C149.284 57.5663 149.554 57.5862 149.803 57.5027C149.948 57.4472 150.096 57.429 150.206 57.2769C150.215 57.268 150.229 57.2616 150.242 57.2595L150.445 57.1315C150.562 57.0366 150.693 56.962 150.829 56.8929C150.947 57.0328 151.098 57.14 151.268 57.2044L151.361 57.2595C151.544 57.4078 151.765 57.443 151.984 57.5159H152.149C152.298 57.4803 152.443 57.4803 152.571 57.4248C152.719 57.3697 152.865 57.3697 153.03 57.3324C153.158 57.2972 153.277 57.2353 153.379 57.1489C153.489 57.0387 153.635 56.923 153.745 56.8006C153.768 56.7667 153.798 56.7408 153.838 56.7268C153.91 56.6874 153.972 56.6323 154.021 56.5662C154.091 56.9701 154.162 57.0972 154.552 57.3319C154.68 57.4053 155.102 57.4976 155.267 57.4976C155.468 57.4421 155.872 57.4603 156.183 57.2942C156.493 57.0938 156.971 56.8425 157.227 56.5789V56.6539C157.058 57.2769 157.153 57.587 157.247 58.157C157.357 58.7799 158.843 58.707 159.189 58.5057C159.251 58.4422 159.344 58.4206 159.428 58.4502C159.483 58.3905 159.553 58.346 159.631 58.3218C159.754 58.2629 159.866 58.1824 159.96 58.0833C160.125 58.0078 160.143 57.9532 160.308 57.9176C160.705 57.5815 161.067 57.2065 161.39 56.7984C161.482 56.7637 161.463 56.7082 161.5 56.67C161.582 56.5997 161.677 56.3391 161.774 56.1298C161.798 56.1671 161.818 56.2069 161.831 56.2425C162.014 56.5713 162.197 56.8853 162.308 57.3069C162.527 57.8566 162.637 58.0396 161.94 58.6816C161.58 59.0096 161.26 59.3787 160.987 59.7808C160.843 59.98 160.738 60.2046 160.676 60.441C160.642 60.5355 160.624 60.6342 160.621 60.7347C160.658 60.9376 160.676 61.1207 160.786 61.2656C160.86 61.3394 160.879 61.4487 160.915 61.5593C160.988 61.7076 161.063 61.7423 161.208 61.6521C161.248 61.6521 161.284 61.6296 161.301 61.5966C161.357 61.5966 161.391 61.5593 161.447 61.5593L161.412 61.6521C161.502 61.6877 161.502 61.6877 161.54 61.669C161.646 61.6453 161.745 61.6017 161.834 61.5411C161.851 61.4855 161.908 61.4856 161.944 61.4483C161.961 61.4856 161.961 61.4856 161.997 61.5034V61.5589C162.163 61.4483 162.163 61.4483 162.236 61.4483L161.907 61.8894L161.981 61.8339C162.117 61.8093 162.241 61.7385 162.329 61.6305C162.329 61.614 162.346 61.614 162.366 61.5957C162.48 61.5402 162.64 61.4856 162.713 61.3699L162.861 61.1864C163.007 61.0385 163.503 60.5262 163.594 60.3236C163.657 60.202 163.731 60.0859 163.814 59.9778L163.87 59.9406C163.909 59.9206 163.94 59.8872 163.96 59.8478C163.997 59.7342 163.96 59.5367 164.036 59.4261C164.036 59.4261 164.016 59.4092 164.053 59.3528C164.036 59.2973 164.069 59.26 164.053 59.2066C164.163 58.7659 164.163 58.8384 164.09 58.4723C164.09 57.9782 164.639 57.9782 165.005 57.7023L165.206 57.5332C165.409 57.3849 165.592 57.2023 165.793 57.0921L165.867 57.0188L166.254 56.69L166.492 56.4641C166.582 56.3539 166.638 56.2082 166.731 56.0984C166.804 55.9848 166.859 55.8734 166.896 55.7497C166.896 55.6946 166.932 55.6573 166.952 55.6018C167.022 55.4882 167.005 55.3827 166.967 55.2729L166.962 55.3132ZM162.563 59.421C162.488 59.6045 162.508 59.7872 162.415 59.952C162.361 60.1177 162.286 60.2787 162.196 60.4291C162.179 60.4753 162.152 60.5198 162.121 60.5575C162.027 60.7516 161.89 60.9207 161.719 61.0521L161.493 61.2906L161.267 61.4737C161.21 61.5334 161.128 61.5415 161.066 61.4936L160.841 61.2377C160.781 61.1716 160.765 61.0762 160.803 60.9991C160.833 60.9033 160.852 60.805 160.859 60.7054C160.905 60.613 160.972 60.533 161.044 60.4669C161.116 60.4012 161.185 60.3207 161.227 60.2283C161.28 60.1045 161.377 60.0058 161.501 59.9524C161.572 59.9342 161.636 59.8961 161.687 59.8423C161.905 59.6164 162.565 58.7786 162.565 59.3655C162.565 59.3825 162.565 59.421 162.548 59.421H162.563ZM52.0531 29.9013C52.0539 29.7356 51.9811 29.5775 51.8539 29.4708C51.7484 29.3763 51.6336 29.2919 51.512 29.219C51.267 29.0779 50.9912 28.9851 50.789 28.7783C50.7611 28.7589 50.7301 28.7432 50.6984 28.7322C50.5564 28.6656 50.4327 28.5656 50.3382 28.4406C50.2305 28.2932 50.1102 28.155 49.9784 28.0279C49.7267 27.7567 49.4665 27.4893 49.2873 27.1562C49.1754 26.9554 49.0212 26.7821 48.8356 26.6477C48.6949 26.5422 48.5648 26.4231 48.4474 26.2926C48.2224 26.0252 47.9419 25.8227 47.6948 25.5862C47.4406 25.3455 47.1524 25.2155 46.8321 25.1184L46.66 25.0608C46.5952 25.0413 46.535 25.0078 46.4837 24.9637C46.3956 24.8777 46.2829 24.8205 46.1638 24.7942C45.9252 24.7413 45.7028 24.6311 45.5172 24.4722C45.2718 24.2557 44.9981 24.0794 44.7472 23.876C44.4874 23.6611 44.2158 23.4565 43.9967 23.1963C43.923 23.1069 43.826 23.0395 43.7162 23.0018C43.3603 22.8776 43.1094 22.631 42.884 22.3441C42.7848 22.2068 42.6662 22.0844 42.5331 21.9797C42.3577 21.8517 42.1971 21.7043 42.0543 21.5407C41.8089 21.2648 41.4822 21.0885 41.2042 20.8512C41.1627 20.8275 41.1203 20.8068 41.0758 20.7894C40.9068 20.6856 40.6877 20.6351 40.5529 20.4843C40.3321 20.2457 40.0855 20.033 39.8186 19.8486C39.741 19.7936 39.6842 19.7097 39.5893 19.6791C39.4431 19.6397 39.344 19.5423 39.2431 19.4385C39.1634 19.355 39.0736 19.2774 38.9872 19.2088C38.8105 19.0723 38.6469 18.9189 38.4999 18.7511C38.3672 18.6054 38.2452 18.4443 38.0782 18.3426C37.7405 18.1375 37.4761 17.8511 37.2354 17.5515C36.968 17.2227 36.593 17.0616 36.2777 16.8142C36.1561 16.7193 36.0179 16.6447 35.9133 16.5294C35.6976 16.2853 35.459 16.0629 35.2001 15.865C35.0637 15.7654 34.9378 15.6514 34.8251 15.5251C34.6488 15.32 34.4183 15.159 34.2844 14.923C34.17 14.7141 34.0026 14.5395 33.7988 14.4174C33.403 14.1835 33.0644 13.8767 32.7424 13.5653C32.5839 13.4127 32.4178 13.2784 32.197 13.2263C32.1499 13.2182 32.1063 13.1953 32.0732 13.1602C31.8266 12.8754 31.4914 12.725 31.1702 12.5487C31.1224 12.525 31.0825 12.4873 31.0554 12.4411C30.7927 11.9754 30.4753 11.5372 30.1087 11.1546C30.0859 11.1304 30.0558 11.1016 30.0532 11.0728C30.0405 10.9033 29.9401 10.8033 29.7935 10.7338C29.7494 10.7054 29.7079 10.6677 29.6803 10.6206C29.4176 10.3693 29.1858 10.082 28.8964 9.85661C28.7951 9.77736 28.7133 9.67566 28.6163 9.59091C28.3892 9.39684 28.1997 9.16716 27.976 8.97054L27.3959 8.49806C27.1132 8.27347 26.8179 8.24974 26.5022 8.36161C26.3102 8.42941 26.1314 8.52942 25.9462 8.6129C25.6437 8.74723 25.3742 8.9519 25.0703 9.0786C24.9013 9.14937 24.7483 9.2553 24.6199 9.38921C24.4724 9.54812 24.3097 9.6905 24.1326 9.8155C24.0165 9.89771 23.9173 10.002 23.841 10.1223C23.7745 10.2236 23.6872 10.31 23.5851 10.3761C23.3287 10.5435 23.0982 10.7469 22.9007 10.9808C22.7456 11.1664 22.5647 11.3287 22.3638 11.4639L20.1701 13.1059L19.8853 13.3657L19.1527 14.006C18.9438 14.1869 18.7217 14.3547 18.4903 14.5047C18.2585 14.6552 18.0734 14.8467 17.87 15.0255C17.6246 15.2399 17.3602 15.4294 17.1466 15.6764C16.8996 15.9565 16.5771 16.151 16.2923 16.387C16.2898 16.3891 16.2809 16.3849 16.2584 16.3802L16.2144 16.1531L15.8788 15.006C15.8563 14.9348 15.8254 14.8666 15.786 14.803C15.6728 14.598 15.5711 14.3814 15.4991 14.156C15.3936 13.8005 15.0728 13.5517 14.7024 13.5382L14.2982 13.536C14.0753 13.5339 13.8435 13.5822 13.6295 13.5136C13.2613 13.4034 12.8723 13.3593 12.4883 13.3814L11.2099 13.4093C10.7793 13.436 10.3454 13.4093 9.91066 13.4072C9.74963 13.4072 9.58606 13.4187 9.42504 13.4428C9.06739 13.4992 8.7356 13.6373 8.39024 13.7233C8.09488 13.7966 7.86479 13.9687 7.64656 14.1602C7.5224 14.2704 7.43172 14.4085 7.38383 14.567C7.30459 14.7971 7.20967 15.0213 7.09907 15.2382C6.90415 15.634 6.79016 16.0646 6.76346 16.5048C6.72956 17.1472 6.75668 17.7888 6.77236 18.4337C6.77872 18.7316 6.81855 19.0278 6.89143 19.3168C6.93762 19.4999 6.95923 19.6897 6.95754 19.8796L6.93762 21.0979L6.96432 24.0023L6.97322 24.454C6.97788 24.5294 6.94525 24.6023 6.88253 24.6438C6.76558 24.7362 6.65498 24.8366 6.55158 24.9438C6.27784 25.2239 5.98673 25.4862 5.60916 25.6303C5.4706 25.6858 5.3422 25.7638 5.22948 25.8617C5.09304 25.9833 4.93625 26.0803 4.76632 26.1486C4.64471 26.1947 4.54046 26.2634 4.43749 26.3477C4.27647 26.4706 4.12349 26.6032 3.97899 26.7448C3.92094 26.8024 3.85484 26.8507 3.78195 26.8884C3.65398 26.966 3.54168 27.0651 3.451 27.18L2.773 28.0631C2.66749 28.2054 2.53104 28.3215 2.37383 28.4033C2.17551 28.4923 1.99754 28.6207 1.85049 28.7809C1.5937 29.0589 1.30386 29.3051 0.988162 29.5136C0.619498 29.7589 0.352535 30.0958 0.117778 30.4628C0.0910812 30.5102 0.0724362 30.5615 0.0622662 30.6153C-0.010619 30.856 -0.0195178 31.1115 0.0355698 31.3573L0.238546 32.1167C0.38474 32.4963 0.655517 32.7235 1.09071 32.7014C1.22631 32.7002 1.36233 32.7074 1.49709 32.7235C1.79922 32.748 2.10813 32.7464 2.40391 32.8074C2.8158 32.8866 3.23404 32.9264 3.65313 32.9264L4.44512 32.9286C4.91972 32.9455 5.3922 32.9264 5.86469 32.8709C5.92401 32.8595 5.9863 32.8909 6.013 32.9485C6.05495 33.0163 6.07656 33.0985 6.07232 33.1743C6.06766 33.5057 6.08927 33.8367 6.12911 34.1655C6.18207 34.5405 6.14606 34.9227 6.1486 35.3024C6.14648 35.7092 6.17529 36.1126 6.2325 36.5143C6.29394 36.8538 6.32318 37.1979 6.32064 37.5428C6.31598 37.672 6.32234 37.8008 6.33801 37.9292C6.35793 38.0776 6.35496 38.2246 6.33801 38.3729C6.29606 38.7369 6.25877 39.1035 6.30411 39.4679C6.36768 39.9594 6.35708 40.4518 6.36174 40.9464L6.36429 41.1154L6.43463 43.0003C6.43463 43.0278 6.43717 43.0554 6.44183 43.0821C6.49523 43.5668 6.50667 44.0546 6.47743 44.5406L6.4465 45.1894L6.44183 46.1852L6.45709 47.3827C6.47489 47.6666 6.47192 47.9514 6.44819 48.2349L6.36895 49.3493L6.40242 50.8299C6.402 51.0609 6.43378 51.2901 6.49777 51.5117C6.65583 51.9774 6.65201 52.4584 6.62786 52.9368L6.59057 53.6059C6.57532 53.9462 6.63252 54.2809 6.63252 54.6191V58.1748C6.62871 58.5892 6.69142 59.0011 6.81812 59.3952C6.87406 59.5757 6.97025 59.741 7.10034 59.8787C7.25289 60.03 7.41646 60.1707 7.5902 60.2974C8.04276 60.6533 8.52499 60.9694 9.03137 61.2423C9.19452 61.3394 9.38012 61.3906 9.56996 61.3906C10.0293 61.3855 10.4912 61.3817 10.9429 61.5034C11.04 61.5313 11.1421 61.5423 11.2429 61.5347C11.5451 61.5033 11.854 61.5474 12.1481 61.4394C12.168 61.4347 12.19 61.4347 12.2048 61.4368H13.1956C13.7778 61.4262 14.3613 61.45 14.9474 61.508L15.594 61.5644C15.9915 61.5868 16.3851 61.5868 16.7818 61.6945C16.9318 61.7407 17.0915 61.7432 17.2428 61.7012C17.5517 61.5995 17.8645 61.5995 18.1857 61.5673C18.6649 61.5233 19.1463 61.511 19.6268 61.5296C19.9243 61.5292 20.2209 61.5614 20.5116 61.6267C20.6947 61.6729 20.8867 61.6928 21.0765 61.6847C21.1557 61.6822 21.246 61.6673 21.3172 61.7072C21.5646 61.8555 21.8291 61.7974 22.0893 61.7775C22.3185 61.761 22.5486 61.7576 22.7787 61.7754C22.8605 61.7826 22.9478 61.7826 23.0215 61.7682C23.7109 61.647 24.4 61.7025 25.0873 61.7614L26.281 61.8101H26.7488L27.6798 61.8457L28.2447 61.883C28.6663 61.9 29.0833 61.8491 29.5032 61.8457L31.8385 61.8525C32.2182 61.8678 32.6 61.8657 32.9708 61.9428C33.3191 62.0246 33.6793 62.0576 34.0369 62.0402C34.1712 62.0313 34.3085 62.0313 34.4437 62.0377C34.5797 62.0445 34.7158 62.0271 34.8454 61.9868C35.0255 61.9275 35.2145 61.9004 35.4035 61.9072C35.4433 61.9097 35.4827 61.8945 35.5251 61.8966C35.6972 61.9034 35.8518 61.8186 36.0167 61.7991C36.4862 61.7398 36.9633 61.7462 37.4358 61.7258C38.1312 61.6974 38.8024 61.5567 39.4698 61.4122C39.8656 61.3216 40.261 61.2004 40.6834 61.1851C40.7233 61.1851 40.7652 61.1783 40.7966 61.1652C40.9432 61.1101 41.1008 61.0919 41.2559 61.1122C41.814 61.1563 42.3632 61.0682 42.9162 61.0152C43.3048 60.9779 43.6883 60.8783 44.0726 60.8059C44.1065 60.8016 44.1387 60.7906 44.1679 60.7728C44.298 60.6821 44.448 60.6364 44.5828 60.558C44.7637 60.4524 44.9472 60.3461 45.082 60.1804L45.5761 59.5872C45.6752 59.4668 45.7494 59.3278 45.7951 59.1787L45.9981 58.5405C46.1265 58.1718 46.1113 57.7921 46.093 57.415C46.0663 57.1196 46.0803 56.8218 46.135 56.5302C46.221 56.126 46.2875 55.7242 46.2346 55.3051C46.1892 55.0098 46.1702 54.7119 46.1778 54.4136C46.2303 53.8068 46.2316 53.1974 46.1825 52.5902C46.1354 52.0571 46.135 51.5215 46.1803 50.988C46.207 50.6418 46.1973 50.2985 46.1956 49.9532C46.1909 49.5599 46.1074 49.1735 46.1049 48.7811C46.1049 48.5802 46.1422 48.3743 46.0473 48.181C46.0384 48.1488 46.0363 48.1149 46.0401 48.0819L46.0252 46.1924L46.038 44.2825C46.0579 43.8698 46.0312 43.4579 46.0269 43.0397L46.007 38.8361C46.0091 38.7746 46.0053 38.7136 45.996 38.6526C45.9608 38.4725 45.9579 38.2882 45.9871 38.1076C46.0841 37.4763 46.0265 36.8385 46.1002 36.205C46.1422 35.8012 46.0833 35.3931 46.0663 34.9893C46.0418 34.3511 46.0617 33.7159 46.124 33.0824C46.1312 33.0048 46.1613 32.9786 46.2371 32.9769C46.3867 32.9714 46.535 32.9972 46.674 33.0519C46.9299 33.1447 47.2037 33.165 47.4554 33.2667C47.5122 33.2883 47.5728 33.2981 47.6338 33.2955C48.0423 33.2841 48.444 33.3328 48.85 33.3506L49.5407 33.3527C49.8072 33.3612 50.0691 33.2845 50.289 33.1341C50.3466 33.0879 50.4153 33.0548 50.4856 33.0345C50.6518 32.9938 50.8035 32.9095 50.9246 32.7892C51.2119 32.5421 51.5162 32.315 51.834 32.1095C51.9234 32.0569 51.984 31.9667 51.998 31.8641L52.0319 31.6654C52.0912 31.0691 52.0565 30.4789 52.0548 29.8776L52.0531 29.9013Z" fill="#3973B9"/>
<path d="M14.8006 39.7929C14.751 39.9823 14.7226 40.1768 14.7171 40.373C14.6861 40.8743 14.7103 41.3744 14.7217 41.8761C14.7264 42.0922 14.7128 42.3109 14.759 42.5244C14.8167 42.7804 14.8582 43.0329 14.8853 43.2986C14.951 43.9885 15.1722 44.6546 15.532 45.247C15.629 45.4165 15.7506 45.5581 15.8938 45.6839C16.2417 45.9877 16.649 46.2161 17.0897 46.3551C17.1867 46.3865 17.2922 46.3814 17.385 46.3399C17.6257 46.2267 17.7605 45.967 17.7096 45.7072C17.5833 45.1178 17.4316 44.533 17.4181 43.9262L17.321 39.9446L17.3121 38.7882L17.2481 36.9212L17.1905 34.9715C17.1948 34.6655 17.1176 34.3638 16.9676 34.0973C16.7418 33.7108 16.3981 33.5807 15.9638 33.6935C15.5913 33.793 15.2468 33.9769 14.9573 34.232C14.7548 34.3931 14.595 34.6007 14.4895 34.8367C14.4743 34.8812 14.4518 34.9232 14.4238 34.9605C14.1641 35.2452 13.9954 35.5847 13.8323 35.9211C13.4289 36.7936 13.075 37.6877 12.7729 38.6005C12.5937 39.1425 12.4534 39.6976 12.3538 40.2599C12.3076 40.2374 12.3055 40.2205 12.3055 40.2035L12.4026 37.9127C12.4026 37.8704 12.4047 37.831 12.4115 37.7911C12.4369 37.6098 12.422 37.4259 12.3695 37.2508C12.3462 37.1873 12.3356 37.1191 12.3386 37.0517L12.4267 36.4911C12.5043 36.1046 12.5305 35.7101 12.5085 35.3173L12.4555 32.682C12.4509 32.4392 12.4911 32.1964 12.5704 31.9667C12.6424 31.7908 12.6856 31.6044 12.6988 31.4145L12.7327 28.8945C12.7301 28.7657 12.7017 28.639 12.6492 28.5216C12.6072 28.3873 12.4797 28.2957 12.3326 28.3165C12.0335 28.3449 11.7368 28.3627 11.4805 28.5746C11.2309 28.7826 11.03 29.0436 10.8927 29.3386C10.8292 29.4754 10.8334 29.628 10.7957 29.7733L10.4563 31.4421C10.3592 32.0535 10.3635 32.6714 10.2999 33.2828L10.2406 34.2342L10.1346 35.3067L10.0397 36.989L9.97616 39.5442C9.94226 39.9086 9.97361 40.2769 9.98506 40.6404C9.99141 41.2294 10.0406 41.8172 10.1329 42.399C10.1554 42.5117 10.1707 42.6257 10.1791 42.741C10.2054 43.4999 10.3363 44.2512 10.569 44.9746C10.6423 45.2059 10.8135 45.3928 11.0368 45.4864C11.2618 45.5801 11.5169 45.5674 11.7318 45.4525C11.9517 45.3314 12.1466 45.1695 12.3055 44.9758C12.347 44.9305 12.3699 44.8716 12.3695 44.8101C12.3805 44.1432 12.5615 43.5143 12.8 42.8982L13.025 42.2477L13.703 39.6349C13.9179 38.8446 14.1904 38.0717 14.5243 37.3216C14.5976 37.1695 14.6942 37.0296 14.8112 36.9068C14.8552 36.9292 14.8531 36.9508 14.8531 36.9631L14.8336 39.5226C14.8332 39.6107 14.8222 39.6976 14.8001 39.7828L14.8006 39.7929ZM9.15535 32.3201C9.24349 32.3154 9.32443 32.2921 9.41511 32.2781C9.68631 32.2341 9.84352 32.0595 9.91386 31.8082C9.94776 31.6637 9.97319 31.5171 9.98929 31.3692L10.1613 30.2657C10.1923 29.9369 10.2656 29.6102 10.3876 29.3013L10.6063 28.6902C10.7071 28.4097 10.7677 28.1161 10.7847 27.8182L10.822 26.7223L10.8775 24.4693L10.8889 24.2862C10.8864 24.1845 10.9262 24.1472 11.0321 24.1451C11.2245 24.143 11.4118 24.1692 11.5995 24.1807C11.9614 24.1959 12.3148 24.1434 12.6721 24.1129C12.8072 24.1057 12.9348 24.0442 13.025 23.943C13.1242 23.8298 13.1831 23.6756 13.1971 23.5192C13.2369 23.2832 13.1996 23.0467 13.1861 22.8107C13.1725 22.5742 13.0378 22.4547 12.8022 22.4717L12.1805 22.5378L11.1495 22.6374C10.9554 22.6526 10.9554 22.6484 10.9508 22.445L10.9461 22.2221L10.8046 19.2999C10.7804 18.6999 10.7821 18.0948 10.6745 17.4748C10.9347 17.4596 11.169 17.4943 11.4089 17.5104L13.1306 17.6253C13.3903 17.6452 13.6386 17.6405 13.8764 17.5083C14.1586 17.3515 14.3111 17.1333 14.3281 16.815C14.3349 16.5892 14.3154 16.354 14.2688 16.1286C14.212 15.8218 13.995 15.6518 13.681 15.6455L13.4776 15.6523L11.0482 15.7519L9.66682 15.7608C9.51766 15.7608 9.36977 15.7807 9.22612 15.8201C8.80025 15.937 8.62609 16.2459 8.74686 16.6718C8.76508 16.7222 8.77525 16.7752 8.77779 16.8286L8.72482 18.799L8.61168 21.0903L8.49557 29.0335C8.48455 29.2631 8.49091 29.4928 8.50023 29.7246C8.51718 30.1793 8.61337 30.6285 8.66973 31.0734C8.70914 31.3929 8.67863 31.7201 8.79982 32.0357C8.87737 32.2391 8.96085 32.3336 9.17739 32.3184L9.15535 32.3201Z" fill="white"/>
<path d="M14.1585 23.0438L13.5737 24.732C13.4195 25.2333 13.3064 25.7376 13.3466 26.2685C13.3513 26.3147 13.3487 26.3634 13.3394 26.4096C13.2381 26.9859 13.2263 27.566 13.2051 28.3012C13.1881 29.0559 13.3182 29.9433 13.5737 30.8128C13.6869 31.212 13.8827 31.5828 14.1539 31.8964C14.4289 32.2413 14.8471 32.4413 15.2882 32.4388L15.8556 32.4519C16.5663 32.5006 17.2701 32.2904 17.8379 31.8603C18.3172 31.5006 18.6545 31.0196 18.9592 30.5115C19.0122 30.4234 19.0473 30.3285 19.0651 30.2268C19.1024 30.0263 19.0088 29.9026 18.8168 29.8607C18.6274 29.8276 18.4325 29.8742 18.2782 29.989C18.0185 30.1585 17.7909 30.3776 17.6142 30.6361C17.4604 30.8531 17.2405 31.0149 16.9875 31.0972C16.7866 31.165 16.6142 31.0747 16.4353 31.0264C16.201 30.9777 16.009 30.8107 15.9298 30.5848C15.6319 29.8208 15.4777 29.0424 15.5416 28.2233C15.5463 28.1555 15.5586 28.089 15.5683 28.0228C15.573 27.9233 15.6476 27.8419 15.745 27.8305C15.8645 27.8088 15.9811 27.7728 16.0912 27.7228C16.5989 27.4821 17.0862 27.2003 17.5481 26.88C17.6511 26.8139 17.7392 26.7266 17.8062 26.624C18.0511 26.2266 18.2609 25.8075 18.4278 25.3723C18.6325 24.8227 18.7634 24.2595 18.7384 23.6663C18.7177 23.3701 18.6655 23.0768 18.5821 22.7921C18.5024 22.4853 18.4142 22.1899 18.1748 21.9467C18.0028 21.7772 17.8358 21.6179 17.6011 21.5513C17.1684 21.417 16.7409 21.3106 16.2722 21.4212C15.912 21.5073 15.5395 21.5428 15.1976 21.6992C15.1158 21.7306 15.0442 21.784 14.9903 21.8535L14.256 22.8552C14.2106 22.9141 14.1746 22.9798 14.1488 23.0493L14.1585 23.0438ZM15.7518 26.2465C15.8052 25.9609 15.8374 25.6723 15.8489 25.382C15.9281 24.4023 16.2595 23.4972 16.6764 22.6137C16.7019 22.5336 16.7849 22.4874 16.8663 22.5077C16.9193 22.5166 16.9794 22.5192 17.0273 22.5247C17.0951 22.5268 17.1574 22.5709 17.1799 22.6378C17.2633 22.7988 17.31 22.9798 17.3184 23.1612L17.3256 24.1765C17.3248 24.8405 17.0786 25.4816 16.6345 25.9753L16.3035 26.3596C16.126 26.5164 15.9213 26.6393 15.6989 26.7215C15.7078 26.5605 15.7256 26.4016 15.7518 26.2422V26.2465ZM24.5451 47.1251C24.5451 46.9726 24.4883 46.8298 24.3726 46.7255C24.3001 46.6552 24.2366 46.5763 24.1828 46.4916C24.0417 46.2768 23.8077 46.1454 23.5543 46.1352L22.9666 46.0958C22.589 46.0678 22.2882 46.2242 22.0089 46.4577C21.8691 46.5793 21.7814 46.7501 21.7636 46.9348C21.7284 47.1755 21.7259 47.4205 21.7568 47.6633C21.7962 48.0091 21.9827 48.3222 22.2687 48.5214C22.7581 48.8718 23.2853 48.8701 23.8374 48.7472C23.9128 48.7349 23.9811 48.6993 24.0319 48.6438C24.3425 48.2951 24.6277 47.9353 24.5404 47.3726L24.5379 47.1179L24.5451 47.1251Z" fill="white"/>
<path d="M20.3775 57.0226C20.1987 56.5972 20.1305 56.1332 20.1788 55.6743C20.1898 55.5607 20.122 55.451 20.1436 55.3323L20.2317 54.4649L20.311 53.2491C20.3156 52.8097 20.2762 52.3703 20.258 51.9292L20.1673 49.7367C20.1504 49.3379 20.094 48.9426 19.9983 48.5514C19.944 48.2997 19.8483 48.059 19.7156 47.8383C19.5745 47.6124 19.3936 47.4539 19.1198 47.4255C18.93 47.395 18.7355 47.4234 18.5634 47.5073C18.3232 47.64 18.0693 47.7654 17.8702 47.9484C17.5151 48.2671 17.2613 48.6828 17.1396 49.1443L16.9134 50.0066C16.8002 50.4236 16.6866 50.8452 16.4985 51.2384C16.3854 51.477 16.2981 51.7245 16.2209 51.9758L15.9336 52.7792C15.9167 52.8572 15.8781 52.9296 15.8205 52.9885C15.7612 52.9423 15.7807 52.8843 15.7807 52.8343L15.7739 51.0859C15.7713 50.8566 15.7938 50.6274 15.8374 50.3998C15.9086 50.0613 15.9171 49.7129 15.862 49.371C15.7565 48.6557 15.679 47.9357 15.423 47.2505C15.3476 47.023 15.1844 46.8391 14.9683 46.7408C14.7611 46.6395 14.5391 46.5713 14.3107 46.5378C14.081 46.5039 13.845 46.5026 13.6323 46.6234C13.2254 46.8505 12.9263 47.2315 12.8025 47.6806L12.6216 48.3891C12.478 48.9371 12.3051 49.4773 12.2907 50.0562C12.2818 50.3939 12.2623 50.749 12.0453 51.0469C12.0224 51.0749 12.03 51.1249 12.0224 51.1639C11.9631 51.5749 11.8546 51.9737 11.705 52.3576C11.6881 52.3995 11.6881 52.4525 11.6317 52.4677C11.6008 52.4398 11.6165 52.4042 11.6186 52.3724C11.6453 51.947 11.6076 51.5207 11.6097 51.0944C11.6122 50.8939 11.5148 50.7168 11.4855 50.5248L11.3754 49.7409C11.3313 49.4608 11.3076 49.1739 11.2097 48.9065C11.1618 48.7739 11.1317 48.6349 11.1215 48.4938C11.0842 48.09 11.0177 47.6883 10.8435 47.3154C10.7974 47.187 10.7304 47.07 10.6317 46.9734C10.3465 46.7064 9.97147 46.5568 9.58119 46.5518C9.36635 46.5429 9.16041 46.6369 9.02735 46.8064C8.82395 47.0556 8.70954 47.3654 8.70276 47.6874C8.6875 48.2502 8.72945 48.8129 8.82903 49.3667C8.8926 49.6829 8.92184 50.0049 8.91463 50.327C8.89938 50.9164 8.92989 51.5054 8.95658 52.0957L8.99642 53.5788C9.00743 54.0687 9.06973 54.5564 9.02735 55.048C8.96803 55.737 9.04981 56.4264 9.11549 57.1154C9.1282 57.2544 9.11761 57.4027 9.17185 57.535C9.26804 57.76 9.40491 57.9646 9.57611 58.1392C9.86765 58.4265 10.2088 58.4786 10.5579 58.2608C10.9313 58.0413 11.2118 57.693 11.3457 57.2807L11.8978 55.5221L12.1525 54.6679C12.3466 53.8576 12.561 53.0521 12.9161 52.2949C12.9407 52.2313 12.9559 52.1648 12.9623 52.0978C12.9932 51.872 12.989 51.6461 13.0907 51.4423C13.1657 51.2918 13.2195 51.1312 13.2517 50.9655C13.3382 50.5549 13.3903 50.138 13.4085 49.7189C13.3996 49.6422 13.4144 49.5646 13.4505 49.496C13.4615 49.5201 13.4704 49.5451 13.4772 49.5714C13.517 49.9206 13.5365 50.2719 13.5365 50.6236L13.5318 53.9983C13.5301 54.1127 13.5208 54.2267 13.5034 54.3403C13.428 54.8501 13.3492 55.3573 13.3708 55.8772L13.4081 57.1205C13.4013 57.5286 13.5382 57.8943 13.7017 58.2477C13.9674 58.813 14.5721 58.8948 15.09 58.4291C15.1052 58.4155 15.1166 58.3977 15.123 58.3778C15.2027 58.1125 15.3501 57.8769 15.401 57.5981C15.5468 56.8074 15.7586 56.0277 16.1493 55.3103C16.1739 55.27 16.1913 55.2264 16.2002 55.1802C16.2531 54.8492 16.3693 54.5399 16.4917 54.2314L17.3947 51.7724C17.4015 51.7474 17.4117 51.719 17.4541 51.73C17.4587 51.7453 17.463 51.7639 17.4655 51.7868L17.521 53.3093C17.5358 53.6047 17.5164 53.9055 17.596 54.1966C17.638 54.3623 17.6596 54.5356 17.6621 54.7047L17.7833 57.4244C17.7905 57.6612 17.8655 57.8913 17.9999 58.0867L18.1833 58.3541C18.2761 58.4884 18.3863 58.6083 18.51 58.7143C18.6512 58.8202 18.7995 58.891 18.98 58.8554C19.0393 58.8443 19.1008 58.8575 19.1499 58.8927C19.472 59.0918 19.9533 59.0211 20.1784 58.7143C20.4364 58.3583 20.6089 57.9638 20.489 57.5006C20.4572 57.3421 20.4144 57.1858 20.3606 57.0328L20.3775 57.0226ZM22.4543 45.0038C22.7018 44.6173 22.8734 44.1982 23.0548 43.7834L23.6836 42.2973C23.7035 42.3579 23.7188 42.4198 23.7298 42.4829C23.7891 43.0745 23.9811 43.6325 24.1489 44.1949C24.2887 44.6279 24.5065 45.0322 24.7913 45.3869C24.9985 45.6784 25.3227 45.8649 25.6786 45.8983L26.1842 45.9551C26.6054 45.9971 26.9016 45.7462 26.9541 45.3242L26.9609 45.1631C26.9605 44.9733 26.9342 44.7835 26.8834 44.6004L26.3524 42.9431C26.3499 42.9359 26.3477 42.9317 26.3435 42.9257C26.3062 42.8524 26.2901 42.7719 26.3016 42.6897L26.3354 42.0003L26.2893 40.5197C26.2325 39.4238 26.2626 38.3259 26.2846 37.2292C26.2914 36.9445 26.3596 36.6644 26.3482 36.3796C26.324 35.8249 26.3571 35.2694 26.4452 34.7215C26.4982 34.421 26.5206 34.1155 26.5113 33.8104C26.4961 33.4727 26.3168 33.2566 25.9905 33.1701C25.827 33.1239 25.6541 33.1214 25.4892 33.1634C25.1956 33.2468 24.9239 33.3998 24.701 33.607C24.5167 33.7672 24.3455 33.9426 24.1892 34.1299C24.1408 34.1863 24.0964 34.1977 24.0434 34.1388C24.0095 34.1037 23.9726 34.0748 23.9379 34.0418C23.4213 33.5587 22.7988 33.4091 22.1145 33.5011C21.6026 33.5765 21.1148 33.768 20.689 34.0617C20.5013 34.1829 20.3462 34.349 20.2385 34.5448L19.5042 35.9927C19.358 36.2906 19.2372 36.6 19.1423 36.9174C18.8796 37.7822 18.7206 38.6679 18.577 39.5552C18.5278 39.7938 18.505 40.0379 18.5088 40.2811L18.5766 41.807L18.7461 44.197C18.7838 44.511 18.8524 44.8203 18.9507 45.1208C18.9787 45.2025 19.0041 45.2979 19.0791 45.3483C19.1749 45.4229 19.2584 45.5123 19.3266 45.6132C19.5275 45.8763 19.841 46.0284 20.172 46.0238L20.8826 46.017C21.0585 46.0153 21.2322 45.9797 21.3945 45.911C21.8382 45.7339 22.2124 45.417 22.4611 45.0085L22.4543 45.0038ZM21.4369 41.4049L21.4742 40.7565C21.4873 40.5942 21.5233 40.4353 21.5818 40.2841C21.6653 40.0853 21.6767 39.8629 21.6983 39.6484C21.7361 39.3395 21.7564 39.0281 21.7581 38.7149C21.7534 38.2632 21.8145 37.8102 21.9272 37.3704L22.2852 35.8478C22.3403 35.6029 22.4352 35.3686 22.5653 35.1541C22.6187 35.0596 22.6878 34.9757 22.77 34.905C22.8611 34.8185 22.9938 34.7927 23.1103 34.8389C23.2781 34.8918 23.4391 34.9647 23.5874 35.0618C23.7116 35.1351 23.7747 35.2876 23.7396 35.4236C23.662 35.8715 23.6514 36.3241 23.6264 36.7788L23.4705 38.923C23.4001 39.4768 23.2162 39.9963 23.0094 40.5163L21.7072 43.7372C21.6725 43.8228 21.6517 43.9203 21.5394 43.9885C21.4996 43.8898 21.4814 43.7838 21.486 43.6775L21.4466 41.4045L21.4369 41.4049ZM29.8331 31.651C30.1056 31.9777 30.4924 32.1875 30.9145 32.2379C31.131 32.2646 31.3472 32.2493 31.6082 32.2663H32.0035C32.5858 32.2574 33.1464 32.0514 33.5973 31.684C34.0714 31.2976 34.4096 30.8014 34.6677 30.2471C34.6922 30.192 34.7117 30.134 34.7232 30.0751C34.7783 29.8365 34.6664 29.6933 34.4278 29.6776C34.2498 29.6704 34.0761 29.7306 33.9401 29.8454C33.7079 30.0212 33.5032 30.231 33.3333 30.4679C33.0947 30.8056 32.757 31.1035 32.1862 30.9031C31.9459 30.8192 31.7713 30.7132 31.6586 30.4509C31.3785 29.8183 31.1755 29.175 31.2069 28.4712L31.2196 28.1466C31.2196 28.0411 31.295 27.9525 31.3984 27.9322C31.5311 27.9038 31.6582 27.8571 31.7781 27.7932C32.1858 27.5635 32.5786 27.3092 32.9544 27.0317C33.1125 26.9075 33.2854 26.7957 33.3909 26.6147C33.6354 26.2007 33.8388 25.7638 33.9981 25.31C34.3003 24.4358 34.3935 23.5573 34.0655 22.6658C33.9799 22.4297 33.8998 22.2047 33.6952 22.0302C33.5426 21.9001 33.3926 21.7759 33.1977 21.7323C32.7472 21.6352 32.2947 21.5517 31.8489 21.7522C31.8099 21.7649 31.7701 21.7746 31.7298 21.781C31.3908 21.8738 31.0632 21.964 30.7581 22.1314C30.6581 22.1857 30.5725 22.2632 30.5094 22.3573L29.8229 23.3878C29.7763 23.4544 29.7394 23.5273 29.7127 23.6044L29.1165 25.3943C29.033 25.6812 28.9381 25.9681 28.9475 26.2685C28.9475 26.6062 28.9275 26.9444 28.8881 27.28C28.7775 28.4123 28.8483 29.5246 29.2339 30.6039C29.3627 30.9832 29.5619 31.334 29.8212 31.6391L29.8331 31.651ZM31.4332 26.1888C31.4505 26.1312 31.4599 26.071 31.4599 26.0104C31.4489 25.2625 31.6289 24.5417 31.8667 23.8476L32.2375 22.9031C32.2815 22.8035 32.3345 22.7463 32.4493 22.762C32.4955 22.7666 32.5442 22.7666 32.5904 22.762C32.654 22.7505 32.7146 22.7844 32.7404 22.8412C32.8222 22.9823 32.871 23.14 32.8816 23.3023L32.9044 24.3176C32.9171 24.9973 32.6773 25.5888 32.2641 26.1164C32.1031 26.3236 31.9574 26.5469 31.7332 26.6986C31.6192 26.7914 31.4891 26.8618 31.3488 26.9058C31.3569 26.6647 31.3853 26.4244 31.4349 26.1884L31.4332 26.1888ZM34.2287 33.0044C34.0587 33.0091 33.893 33.0642 33.7541 33.1629C33.5468 33.3155 33.3744 33.5117 33.246 33.7392C32.926 34.2732 32.7404 34.8605 32.5752 35.4542C32.5684 35.4809 32.5642 35.5071 32.5642 35.5359L32.4824 36.589L32.2438 39.5018C32.1332 40.6998 31.8641 41.8659 31.5349 43.0181C31.3984 43.4948 31.2107 43.9512 30.8992 44.3466C30.8442 44.4144 30.7954 44.5343 30.6874 44.505C30.5861 44.4783 30.5819 44.3589 30.5615 44.2665C30.4513 43.7016 30.3891 43.1287 30.3742 42.5537C30.3573 42.1672 30.3912 41.7841 30.3937 41.3973L30.4577 39.4268L30.5547 38.1721L30.7314 36.8038L30.948 34.7698C31.0009 34.0507 30.6314 33.5358 30.0776 33.3418C29.8064 33.2536 29.5238 33.2095 29.239 33.2095C28.7983 33.1985 28.5046 33.4129 28.3322 33.8011L28.0834 34.4194C27.7444 35.4758 27.5275 36.5529 27.4876 37.6636L27.4279 39.5925C27.4279 39.7603 27.3999 39.9307 27.4152 40.0997L27.5732 42.3066C27.5864 42.5626 27.58 42.8295 27.6864 43.0639C27.7622 43.244 27.8232 43.4296 27.8699 43.6198C27.9207 43.8088 27.9838 43.9944 28.0571 44.1758C28.0927 44.2576 28.1148 44.3436 28.1249 44.4305C28.1711 44.7695 28.3017 45.1017 28.5067 45.3818C28.7114 45.6754 28.9547 45.9272 29.3009 46.053C29.5835 46.1547 30.5085 46.1661 30.787 46.0462C31.2416 45.8606 31.6256 45.5377 31.8773 45.1102C32.1489 44.633 32.3883 44.1385 32.5947 43.6296L32.9349 42.8261C33.0142 42.963 33.0231 43.0918 33.065 43.2105C33.3604 44.0453 33.8863 44.7364 34.4664 45.3801C34.5003 45.4157 34.5401 45.4365 34.5812 45.4593C34.9122 45.6178 35.2596 45.7462 35.6075 45.8458C35.791 45.8949 35.9817 45.9089 36.1703 45.8877C36.4639 45.8661 36.7114 45.6593 36.7835 45.3737C36.8322 45.2436 36.808 45.1 36.7199 44.9941C36.519 44.7474 36.336 44.4868 36.1749 44.2101C36.0796 44.0618 36.011 43.8991 35.972 43.727L35.6919 42.4185C35.6389 42.2575 35.5991 42.0918 35.5753 41.9269L35.4825 40.3642C35.4427 39.1463 35.4995 37.928 35.5728 36.7118C35.5906 36.544 35.5639 36.3741 35.4952 36.2194C35.4389 36.1203 35.4389 36.0076 35.4601 35.9021C35.5003 35.7309 35.519 35.555 35.5156 35.3791L35.591 34.4274C35.6177 34.1732 35.6745 33.9219 35.6486 33.6591C35.6389 33.4524 35.5241 33.2651 35.344 33.1625C35.255 33.1138 35.1609 33.0744 35.0639 33.0456C34.7859 32.9528 34.5011 33.0036 34.2185 33.0104L34.2287 33.0044Z" fill="white"/>
<path d="M25.6916 20.9627C25.7908 21.2903 26.0209 21.5627 26.3273 21.7153C26.6743 21.8827 27.0599 21.9543 27.4443 21.9225C27.8303 21.9183 28.1825 21.703 28.3625 21.3619C28.4867 21.153 28.5659 20.936 28.5414 20.6839L28.5062 20.1983C28.496 20.069 28.4401 19.9478 28.3481 19.8563C28.2596 19.7639 28.1803 19.6635 28.1096 19.5567C27.9244 19.2855 27.6816 19.116 27.3328 19.1262C27.1434 19.1304 26.9536 19.1215 26.7654 19.0995C26.476 19.0643 26.2379 19.1745 26.0107 19.3253C25.6946 19.5402 25.5213 19.8224 25.5671 20.2084C25.5666 20.4618 25.6094 20.7131 25.6933 20.9521L25.6916 20.9627ZM19.5333 25.7257L19.5642 28.1627C19.5727 28.2707 19.5689 28.3796 19.5532 28.4868C19.5333 28.6809 19.5252 28.8822 19.5265 29.0746C19.5252 29.8386 19.5829 30.6013 19.6985 31.3565C19.7185 31.5022 19.7185 31.6586 19.8117 31.7849C19.9134 31.9374 20.0308 32.0764 20.1384 32.2239C20.2401 32.3802 20.4176 32.4705 20.6041 32.4599C20.8011 32.4531 20.9817 32.4358 21.0918 32.2434C21.1223 32.1976 21.1579 32.1552 21.1978 32.1175C21.3304 31.9696 21.4274 31.8107 21.4143 31.5946C21.4126 31.4251 21.4232 31.2552 21.4452 31.087C21.4605 30.9192 21.4541 30.7471 21.505 30.5857C21.5444 30.4564 21.5647 30.3217 21.5643 30.1865L21.5872 29.8644C21.6139 29.4127 21.691 28.9619 21.6508 28.5072C21.6469 28.419 21.652 28.3313 21.666 28.2444L21.7724 27.2359C21.8164 26.4986 21.9203 25.768 22.0347 25.0396C22.0809 24.7328 22.1932 24.4409 22.2466 24.1328C22.2885 23.9391 22.383 23.7612 22.5203 23.6188L22.5512 24.0273C22.5711 24.3362 22.6644 24.6362 22.6758 24.9481C22.6928 25.2748 22.808 25.5617 23.0907 25.771C23.5424 26.1066 24.0331 26.1024 24.545 26.0164C24.5776 26.0092 24.6085 25.9977 24.6378 25.9812C24.7412 25.9333 24.8128 25.8358 24.8276 25.7231C24.8399 25.6104 24.7941 25.499 24.706 25.4278C24.653 25.3858 24.5929 25.346 24.5382 25.3129C24.4984 25.2862 24.459 25.2667 24.4429 25.2159C24.3636 24.9646 24.2645 24.7074 24.275 24.4459C24.3034 23.8235 24.2645 23.1997 24.1581 22.5853C24.1208 22.3666 24.1242 22.1335 24.0433 21.9276C23.9505 21.6869 23.792 21.4992 23.4653 21.5081C23.3703 21.5102 23.278 21.4992 23.183 21.4971C23.1288 21.4915 23.0746 21.5 23.0246 21.5212C22.6826 21.6716 22.3805 21.8772 22.1796 22.1992C22.0139 22.4467 21.877 22.7111 21.7711 22.9891C21.6876 23.2319 21.6169 23.4789 21.5639 23.7306L21.3041 24.9578L21.1626 23.351C21.1198 22.8374 20.9706 22.3378 20.7236 21.8852C20.6609 21.7572 20.5838 21.6365 20.4943 21.5255C20.446 21.4521 20.3659 21.4013 20.2778 21.3886C20.1214 21.3759 19.9642 21.4013 19.8202 21.464C19.707 21.514 19.6257 21.6157 19.6015 21.7373C19.5617 21.9365 19.5396 22.139 19.5354 22.342C19.5129 22.9709 19.5909 23.6001 19.5693 24.2311L19.5413 25.732L19.5333 25.7257ZM25.3912 25.9041L25.4505 26.7346L25.6959 29.2398C25.7929 29.9301 25.9976 30.6013 26.3027 31.2285C26.6192 31.8773 27.1527 32.2302 27.8693 32.3019C28.1032 32.3328 28.3371 32.2531 28.5003 32.0853C28.7151 31.8582 28.7342 31.5997 28.4367 31.4277C28.3278 31.359 28.2481 31.2531 28.2121 31.1298C27.9604 30.4653 27.9248 29.7568 27.7731 29.0729C27.7091 28.7241 27.7053 28.369 27.7617 28.0203C27.771 27.9326 27.7701 27.8444 27.757 27.7576C27.6964 27.1571 27.7227 26.5516 27.835 25.9587C27.9515 25.279 28.0223 24.5904 28.0511 23.9018C28.0583 23.6065 28.0363 23.5374 27.9011 23.1955C27.743 22.798 27.3515 22.5446 26.9235 22.5645C26.5858 22.5797 26.2455 22.642 25.9302 22.7518C25.7891 22.8005 25.6743 22.906 25.6103 23.0412C25.5399 23.2027 25.4887 23.3713 25.4582 23.5446C25.3675 23.9595 25.3984 24.379 25.4014 24.7964C25.4082 25.1142 25.4323 25.432 25.3904 25.7498C25.3832 25.8028 25.3815 25.863 25.3857 25.9108L25.3912 25.9041ZM37.0897 54.2738C37.1893 54.2538 37.2855 54.2187 37.3745 54.1699C37.8338 53.8945 38.2855 53.6072 38.6877 53.2487C38.7639 53.1822 38.8258 53.1008 38.8711 53.0101C39.094 52.5766 39.2746 52.1219 39.4097 51.6529C39.5339 51.2448 39.5953 50.8198 39.5907 50.393C39.5691 49.9668 39.4754 49.5472 39.3127 49.1527C39.1801 48.7841 38.88 48.4993 38.5046 48.3845C38.3173 48.3281 38.1228 48.2963 37.9287 48.2743C37.6236 48.2256 37.341 48.3307 37.0503 48.3802C36.8181 48.4247 36.5914 48.4951 36.3748 48.59C36.2685 48.6349 36.1782 48.7112 36.1168 48.8091L35.5519 49.6515C35.4943 49.735 35.4502 49.8286 35.4218 49.9252L35.026 51.2469C34.8849 51.7749 34.7832 52.302 34.843 52.8517C34.8502 52.9127 34.8493 52.9741 34.8404 53.0347C34.7849 53.383 34.801 53.7364 34.7942 54.0699C34.79 54.4483 34.8053 54.8272 34.8404 55.2043C34.8981 55.7624 35.0218 56.3124 35.2087 56.8417C35.3506 57.2074 35.5388 57.5544 35.7693 57.8722C35.9151 58.085 36.1087 58.2612 36.3341 58.3863C36.6329 58.5507 36.9719 58.6261 37.3117 58.6053C37.791 58.5825 38.2609 58.4511 38.68 58.2172C38.8733 58.1176 39.0495 57.9888 39.2029 57.8354C39.2987 57.7468 39.3551 57.6252 39.3618 57.4951C39.3618 57.382 39.3551 57.2807 39.2487 57.215C39.1432 57.151 39.0589 57.1951 38.9686 57.2489C38.7661 57.3718 38.5457 57.4629 38.3152 57.5184C37.8847 57.6087 37.4677 57.4621 37.3067 57.0209L37.2028 56.7362C37.0816 56.4099 37.0528 56.0658 36.9999 55.723C36.9401 55.3564 36.9138 54.9848 36.9202 54.6132L36.9227 54.4886C36.9172 54.3835 36.9914 54.2903 37.0948 54.2721L37.0897 54.2738ZM37.0016 52.7936C37.0609 52.4182 37.0372 52.0389 37.0677 51.6613C37.1333 50.8579 37.3668 50.0985 37.688 49.3638C37.716 49.3002 37.7435 49.2354 37.8317 49.2506C37.9376 49.2705 38.0703 49.2044 38.1385 49.3413C38.2139 49.4625 38.2626 49.5972 38.2796 49.7388L38.333 50.752C38.3495 51.3308 38.1766 51.8999 37.841 52.3715C37.7164 52.5487 37.6113 52.7372 37.4528 52.8881C37.3202 53.0182 37.1677 53.1241 37.0007 53.2042C36.9918 53.0678 36.9939 52.9309 37.0033 52.7936H37.0016Z" fill="white"/>
<path d="M42.263 33.1146C42.0909 32.9604 41.8791 32.8913 41.6583 32.8387C41.2477 32.7485 40.8277 32.7061 40.4069 32.7129C40.2285 32.7218 40.0001 32.6735 39.7866 32.7591C39.2416 32.968 38.7403 33.2756 38.3064 33.6659C37.8581 34.0765 37.5382 34.591 37.236 35.1139C37.1669 35.2376 37.1254 35.3745 37.1144 35.5156L36.9377 37.1911C36.9208 37.3326 36.9178 37.4759 36.9309 37.6174L36.9873 38.1403C37.0898 39.0992 37.3987 40.0247 37.8928 40.8527L38.6742 42.113L39.9285 44.1321C40.3065 44.8046 40.6057 45.5182 40.8201 46.2598C40.9082 46.5551 40.7637 46.8204 40.4781 46.8984C39.9794 47.0327 39.4726 46.9844 39.0768 46.5145C38.792 46.1742 38.609 45.7797 38.6619 45.3203C38.6899 45.072 38.5738 44.9038 38.4107 44.7559C38.1407 44.5101 37.5911 44.5724 37.3733 44.8686C37.3072 44.9572 37.2716 45.0631 37.2737 45.1707C37.2754 45.3271 37.2903 45.4826 37.3178 45.6369C37.4309 46.4263 37.7305 47.1285 38.3374 47.6819C38.484 47.8209 38.6586 47.9268 38.8492 47.9925C39.2154 48.1188 39.5912 48.2014 39.9667 48.2951C40.2569 48.3684 40.5625 48.3548 40.8451 48.2552C40.929 48.2285 41.0155 48.2107 41.1032 48.1997C41.5007 48.1582 41.8939 48.0476 42.2481 47.8751C42.3248 47.8472 42.3935 47.8005 42.449 47.7412C42.7427 47.3531 43.0291 46.9573 43.219 46.5056C43.2868 46.3551 43.3207 46.1945 43.3118 46.031L43.2478 45.1813C43.2185 44.4283 43.0414 43.6885 42.727 43.0028L41.9651 41.3659L41.3028 40.0633C40.9989 39.5899 40.7282 39.0967 40.4908 38.5869C40.2819 38.139 40.1112 37.6831 40.0561 37.1792C39.9993 36.619 40.0222 36.0605 40.0391 35.4995C40.04 35.4656 40.0451 35.4325 40.0544 35.3999C40.0633 35.3537 40.0811 35.3096 40.1074 35.2698C40.251 35.1198 40.3561 34.9308 40.5481 34.8333L41.0337 34.5791C41.2422 34.4821 41.485 34.4927 41.6846 34.6079C41.8833 34.7244 42.013 34.9304 42.0329 35.1601L42.1282 36.1372C42.1303 36.4046 42.3956 36.6563 42.6558 36.7173C42.9338 36.7851 43.2253 36.6779 43.3902 36.4466C43.5567 36.2152 43.6503 35.9402 43.6597 35.6554C43.6876 34.81 43.3546 34.1015 42.8194 33.4744C42.7062 33.3375 42.5545 33.2383 42.3842 33.1896C42.338 33.1786 42.2939 33.1557 42.2583 33.1261L42.263 33.1146ZM35.3698 30.0556C35.3741 30.2251 35.4054 30.3924 35.4626 30.5522C35.5571 30.7984 35.6372 31.0497 35.7033 31.3048C35.7317 31.4031 35.7847 31.4929 35.8576 31.5654C35.9821 31.709 36.144 31.8158 36.3254 31.8743C36.5928 31.9514 36.8712 31.9802 37.1483 31.9603C37.4157 31.9624 37.6691 31.8434 37.8394 31.6383C38.1784 31.226 38.4382 30.7488 38.5899 30.2348C38.7441 29.7068 38.9874 29.2148 39.1505 28.6923L39.4353 27.7885C39.4891 27.544 39.5637 27.3046 39.6582 27.0732L39.9141 26.477C40.0451 26.2401 40.1607 25.9956 40.2603 25.7443C40.2624 25.7354 40.2828 25.7312 40.3167 25.7163C40.3807 25.9625 40.4163 26.2147 40.4231 26.4689C40.4383 26.9588 40.3476 27.4406 40.3175 27.9258C40.2908 28.3364 40.2396 28.7466 40.337 29.1572L40.5629 30.2721C40.6625 30.6806 40.8735 31.0488 41.0544 31.4285C41.2553 31.8455 41.5998 32.0726 42.0303 32.1857C42.3706 32.276 42.6083 32.029 42.5219 31.687C42.4901 31.5696 42.4515 31.4539 42.4071 31.3408C42.3109 31.1175 42.2401 30.8844 42.1952 30.6458L42.1024 29.742C42.0778 29.2898 42.0248 28.839 42.0778 28.3847C42.1265 28.0351 42.1371 27.6817 42.1087 27.33C42.0668 26.9418 42.1113 26.56 42.1486 26.1757C42.1969 25.7918 42.1884 25.4028 42.1219 25.0214L42.0003 24.2688C41.8986 23.8692 41.6952 23.5429 41.2481 23.4569L40.9502 23.4005C40.5748 23.3476 40.2485 23.4446 40.0057 23.7468C39.6374 24.2235 39.3302 24.7447 39.0925 25.2981C38.7238 26.1117 38.4437 26.9622 38.1742 27.8143C38.0416 28.2334 37.9144 28.6551 37.6551 29.0195C37.6221 29.0852 37.5729 29.1415 37.5119 29.1835L37.5165 28.4945C37.5547 28.1584 37.5487 27.8186 37.4987 27.4838C37.4458 27.177 37.3665 26.8702 37.3704 26.5613L37.2801 23.1938C37.2754 23.0785 37.2534 22.9645 37.214 22.856C37.1936 22.7853 37.1792 22.7128 37.1699 22.6395C37.1119 22.3458 37.0114 22.0725 36.7195 21.9331C36.5538 21.8547 36.383 21.7899 36.2076 21.7386C35.9449 21.6568 35.6652 21.7979 35.5762 22.0585C35.5342 22.1602 35.5012 22.2619 35.4724 22.3674C35.2766 23.1488 35.1783 23.9514 35.1787 24.7574L35.2465 26.6249L35.3791 30.0742L35.3698 30.0556ZM40.0578 56.5065C39.8459 56.5065 39.5993 56.7328 39.5946 56.9459C39.5933 57.1654 39.7624 57.3481 39.9811 57.3646C40.2591 57.3671 40.4531 57.1815 40.4489 56.9129C40.4442 56.7273 40.2324 56.509 40.0535 56.5065H40.0578ZM44.3122 54.2047C44.3055 54.1585 44.2728 54.1191 44.2288 54.103C44.1847 54.0873 44.1317 54.0988 44.0987 54.1314C44.0554 54.1649 44.0287 54.2153 44.0254 54.2699C44.0139 54.3517 43.9881 54.4284 43.9478 54.4996C43.908 54.5772 43.8376 54.6297 43.7533 54.6496C43.6694 54.6704 43.5838 54.6454 43.5169 54.592C43.3122 54.4467 43.1469 54.2521 43.0355 54.0271C42.9935 53.9636 42.9982 53.8814 43.0423 53.822C43.1588 53.6309 43.2516 53.4263 43.3181 53.2127C43.3491 53.1373 43.3605 53.0555 43.3512 52.9741L43.2948 52.4512C43.2414 52.1597 43.1291 51.8948 42.899 51.6986C42.7295 51.555 42.5969 51.5262 42.3998 51.6435C42.0401 51.858 41.7786 52.1376 41.8011 52.6038C41.7922 52.7165 41.7947 52.8296 41.81 52.9419C41.8837 53.4504 42.0774 53.9026 42.3265 54.3394C42.4062 54.4958 42.5024 54.6437 42.6138 54.7797C42.7639 54.9492 42.9113 55.1331 43.1219 55.2458C43.2609 55.323 43.4113 55.3865 43.5741 55.3162C43.9025 55.1704 44.183 54.9628 44.3046 54.603C44.3614 54.4746 44.3639 54.3356 44.3326 54.2038L44.3122 54.2047ZM42.8291 53.5491C42.5931 53.0987 42.4143 52.6792 42.3905 52.2101C42.3905 52.1978 42.3905 52.1821 42.388 52.1686C42.3753 52.1118 42.4126 52.0427 42.474 52.027C42.5299 52.0156 42.5867 52.0453 42.6083 52.0978C42.6918 52.219 42.7664 52.3491 42.8329 52.4821C42.9855 52.8199 42.9651 53.164 42.8283 53.5555L42.8291 53.5491Z" fill="white"/>
<path d="M24.5714 57.6676C24.4583 57.5943 24.3596 57.482 24.3087 57.3502C24.0019 56.6836 23.9468 55.9527 23.7413 55.2598C23.6752 54.989 23.6604 54.7077 23.6972 54.4322C23.7142 54.2776 23.7121 54.1212 23.6926 53.9661C23.615 53.394 23.6358 52.8135 23.7701 52.2546C23.8718 51.73 23.9375 51.199 23.9667 50.6655C23.9947 50.268 23.6688 49.7841 23.3091 49.6617C23.1646 49.6019 23.0133 49.5621 22.8586 49.5426C22.4421 49.518 22.02 49.5426 21.6073 49.6104C21.3336 49.6498 21.195 49.815 21.106 50.0507L21.0619 50.1854C20.9577 50.5164 20.9882 50.8566 21.0039 51.191C21.0153 51.4139 21.0458 51.6346 21.0208 51.8596C20.9941 52.1253 21.0323 52.3851 21.0581 52.6478L21.3941 55.1196C21.4997 55.8107 21.7276 56.4768 22.0671 57.0883C22.4268 57.8015 23.0002 58.2295 23.7731 58.4057C23.9515 58.4481 24.1354 58.4608 24.318 58.443C24.4973 58.4333 24.6625 58.3452 24.7706 58.2028C24.8723 58.0638 24.8676 57.9536 24.7617 57.8146C24.7087 57.7578 24.6486 57.7044 24.5697 57.6663L24.5714 57.6676ZM42.9071 55.4785C42.6864 55.3327 42.5012 55.1386 42.3664 54.9111L41.9117 54.0725L41.541 53.2402L40.7672 51.4126C40.7172 51.2507 40.6524 51.0931 40.5752 50.9426C40.4621 50.7507 40.2816 50.7481 40.1625 50.9316C40.1227 50.9876 40.0994 51.0528 40.0943 51.1215C40.0854 51.4524 40.0833 51.7859 40.1913 52.1054C40.2553 52.3114 40.3303 52.5143 40.4159 52.7122C40.4867 52.8669 40.4727 52.8737 40.321 52.9216C40.1866 52.9673 40.0578 53.0284 39.9366 53.1021C39.7663 53.1932 39.6451 53.3546 39.6057 53.5436C39.5527 53.7746 39.5527 54.014 39.6057 54.2449C39.6591 54.4543 39.7383 54.6564 39.7976 54.8632C39.8595 55.1132 39.9477 55.3556 40.0604 55.5874L40.546 56.4984C40.5829 56.5637 40.6278 56.6235 40.6803 56.6768C40.8613 56.8641 41.1041 56.8959 41.3715 56.7718C41.6168 56.659 41.696 56.5234 41.671 56.2378L41.6032 55.7298C41.5723 55.5179 41.5257 55.3081 41.5787 55.0869L41.7558 55.4035C41.8698 55.6048 42.0295 55.776 42.2236 55.9022C42.4245 56.0412 42.6914 56.0433 42.8948 55.9069C43.0868 55.7904 43.0915 55.5997 42.908 55.4721L42.9071 55.4785ZM41.2189 56.1073L40.9591 55.5467C40.7871 55.1141 40.6371 54.6708 40.5074 54.2221C40.4498 53.972 40.4142 53.7174 40.3998 53.4606C40.393 53.3746 40.4167 53.3084 40.4994 53.2843C40.5896 53.2563 40.6515 53.3089 40.696 53.3835C40.9579 53.8441 41.107 54.3602 41.1308 54.889C41.1397 55.2336 41.1774 55.5768 41.2439 55.9154C41.2706 55.9789 41.2592 56.0518 41.2172 56.1073H41.2189Z" fill="white"/>
<path d="M34.8118 57.7011C34.5139 57.6782 34.2227 57.6006 33.9532 57.4714C33.8401 57.4163 33.7261 57.3663 33.6617 57.2595C33.4625 56.9353 33.2774 56.5972 33.2227 56.2179C33.1765 55.9311 33.1473 55.6399 33.1409 55.3509C33.124 53.7924 33.11 52.2343 33.3769 50.6914C33.3884 50.6185 33.3502 50.5223 33.4015 50.4753C33.4608 50.4189 33.5558 50.4507 33.6354 50.4439C33.9062 50.4282 34.174 50.3825 34.4346 50.3075C34.7219 50.2197 34.863 50.0341 34.8711 49.7655C34.88 49.5311 34.7389 49.3879 34.5028 49.3811C34.4011 49.3811 34.2999 49.4011 34.2075 49.4388C33.9562 49.5405 33.6888 49.4968 33.4278 49.543C33.421 49.5184 33.4189 49.4862 33.4189 49.465C33.5731 48.5951 33.5753 47.715 33.5867 46.8348C33.5863 46.7878 33.5825 46.7403 33.5753 46.6933C33.5358 46.4221 33.4172 46.1767 33.3041 45.9344C33.1985 45.6975 32.8676 45.5877 32.6286 45.6826C32.5273 45.7225 32.432 45.7776 32.3294 45.8085C32.1794 45.8577 32.057 45.9674 31.9913 46.1106C31.8591 46.3539 31.751 46.6098 31.6692 46.8763C31.4154 47.7404 31.2544 48.6286 31.1878 49.5265C31.1789 49.6307 31.1417 49.6655 31.0421 49.6769C30.9005 49.6917 30.7641 49.7299 30.6226 49.7473C30.3713 49.7829 30.2158 49.946 30.084 50.1401C30.0641 50.168 30.053 50.1969 30.0492 50.235C30.042 50.4515 30.1704 50.6477 30.3713 50.7295C30.5043 50.7795 30.6459 50.8045 30.7878 50.8024C30.8738 50.8003 30.9183 50.827 30.9014 50.9194C30.8925 50.9677 30.8899 51.0143 30.8844 51.0605C30.826 51.4016 30.8014 51.7474 30.809 52.0931L30.8463 54.0034C30.873 54.8196 30.8293 55.6387 31.012 56.4485C31.0637 56.7209 31.1713 56.9798 31.3277 57.2082L31.5311 57.5133C31.7362 57.8663 32.043 58.1519 32.4095 58.3325C33.0451 58.6528 33.7642 58.7562 34.4647 58.635C34.6529 58.6109 34.8355 58.5528 35.0033 58.4625C35.1334 58.3854 35.2292 58.2846 35.208 58.124C35.1923 57.9091 35.0266 57.7358 34.813 57.7091L34.8118 57.7011ZM30.1208 55.6751C29.9446 55.6484 29.7649 55.6921 29.6221 55.7997C29.375 55.9675 29.1636 56.1828 28.9992 56.4319C28.8602 56.6595 28.6487 56.8332 28.3991 56.9264C28.3436 56.9531 28.2843 56.9659 28.2229 56.962C27.9822 56.9252 27.7487 56.8489 27.5317 56.7375C27.4482 56.6913 27.3817 56.6239 27.3423 56.5324C27.1275 56.0777 26.9647 55.6031 26.8546 55.1153C26.7715 54.6967 26.7435 54.2678 26.7728 53.8415C26.78 53.7051 26.8296 53.617 26.9821 53.5903C27.205 53.5508 27.3987 53.4402 27.5932 53.3246L28.7784 52.5432C28.864 52.4758 28.936 52.3923 28.9903 52.2978C29.2225 51.8927 29.4191 51.4681 29.5776 51.0291C29.8602 50.2155 29.9484 49.3905 29.6352 48.5658C29.5361 48.3061 29.4433 48.0565 29.214 47.8662C29.0704 47.7344 28.9034 47.6302 28.7195 47.5616C28.4873 47.4844 28.2462 47.4399 28.0021 47.4289C27.8326 47.42 27.6491 47.3709 27.4766 47.4289C27.3355 47.4709 27.1898 47.5027 27.044 47.5243C26.7639 47.5705 26.488 47.6501 26.2249 47.7501C26.1172 47.7925 26.0236 47.8641 25.9549 47.9569L25.2752 48.8684C25.2333 48.9214 25.1977 48.9815 25.1735 49.0451L24.607 50.7592C24.5032 51.1389 24.4104 51.519 24.446 51.9177C24.4655 52.0321 24.4701 52.147 24.4612 52.2563C24.3858 52.68 24.3934 53.1063 24.3833 53.7178C24.3485 54.5759 24.5511 55.5806 24.8909 56.5595C25.0507 57.0515 25.3392 57.4922 25.727 57.8354C25.9927 58.074 26.3295 58.2151 26.6876 58.235L27.5199 58.2791C28.0233 58.3113 28.5254 58.1956 28.9636 57.9456C29.6585 57.5532 30.0598 56.9197 30.3831 56.2196C30.4081 56.1565 30.4217 56.0891 30.4225 56.0205C30.4314 55.8044 30.3369 55.6921 30.1251 55.6607L30.1208 55.6751ZM26.9317 51.7613C26.9452 51.7024 26.9537 51.6419 26.9563 51.5808C26.9253 50.599 27.1821 49.6807 27.5919 48.7951L27.7203 48.5197C27.744 48.4468 27.8199 48.4048 27.8949 48.4226C28.1864 48.4374 28.2339 48.4641 28.3313 48.7447C28.3517 48.7942 28.3644 48.8472 28.3686 48.901L28.4148 49.9557C28.425 50.4537 28.2911 50.9435 28.0284 51.366C27.8733 51.6122 27.6974 51.8448 27.5029 52.0609C27.3326 52.2504 27.1203 52.397 26.8825 52.4898C26.8643 52.2457 26.8808 52.0008 26.9317 51.7613Z" fill="white"/>
</svg>
