<svg width="167" height="72" viewBox="0 0 167 72" fill="none" xmlns="http://www.w3.org/2000/svg">
<path fill-rule="evenodd" clip-rule="evenodd" d="M100.085 24.0464L105.802 15.7942C105.827 15.7583 105.868 15.7366 105.912 15.7366H116.141C116.212 15.7366 116.271 15.6818 116.277 15.6109C116.295 15.3587 116.306 15.1041 116.306 14.8467C116.306 8.65109 111.091 3.67362 104.811 4.06377C99.385 4.40102 94.9886 8.85088 94.7118 14.2808C94.4997 18.4313 96.6327 22.1004 99.9018 24.0861C99.9632 24.1234 100.044 24.1054 100.085 24.0464Z" fill="#F9BB2A"/>
<path fill-rule="evenodd" clip-rule="evenodd" d="M139.318 17.4544L131.21 29.1452C131.148 29.2345 131.213 29.3563 131.321 29.3563H147.584C147.693 29.3563 147.757 29.234 147.694 29.1447L139.539 17.454C139.486 17.3774 139.372 17.3774 139.318 17.4544Z" fill="#14192C"/>
<path fill-rule="evenodd" clip-rule="evenodd" d="M97.9132 33.7245H95.9072C95.7986 33.7245 95.7348 33.6022 95.7967 33.5129L107.006 17.3534C107.031 17.317 107.072 17.2957 107.116 17.2957H137.052C137.16 17.2957 137.224 17.4176 137.162 17.5069L130.106 27.6635L125.969 33.6659C125.944 33.7023 125.902 33.7245 125.858 33.7245H97.9132Z" fill="#42538C"/>
<path fill-rule="evenodd" clip-rule="evenodd" d="M19.3247 45.8777C19.3247 47.3268 20.4044 49.8269 23.245 49.8269C24.9214 49.8269 25.944 49.0315 26.541 48.0655C26.9382 47.4406 27.1371 46.7586 27.1942 46.0487C27.2509 45.3383 27.1087 44.6279 26.7965 43.9746C26.285 42.8949 25.2057 41.7868 23.2167 41.7868C20.5178 41.7868 19.3247 44.0597 19.3247 45.8493V45.8777ZM31.7764 53.6906H27.3284C27.2542 53.6906 27.1942 53.6306 27.1942 53.5569V52.4346C27.1942 52.3062 27.0327 52.2528 26.9567 52.3558C26.0129 53.6348 24.2261 54.2305 22.5351 54.2305C17.5345 54.2305 14.6084 50.3096 14.6084 45.7927C14.6084 40.622 18.3304 37.3832 22.5351 37.3832C24.8373 37.3832 26.2382 38.3746 26.959 39.274C27.0384 39.3727 27.1942 39.3165 27.1942 39.1899V38.0568C27.1942 37.9831 27.2542 37.9231 27.3284 37.9231H31.7764C31.85 37.9231 31.91 37.9831 31.91 38.0568V53.5569C31.91 53.6306 31.85 53.6906 31.7764 53.6906Z" fill="#42538C"/>
<path fill-rule="evenodd" clip-rule="evenodd" d="M42.0154 42.355C41.9479 42.355 41.8902 42.3064 41.8832 42.2393C41.8407 41.8524 41.6697 41.1619 40.4161 41.1619C39.4218 41.1619 39.0813 41.7868 39.0813 42.2128C39.0813 42.9232 40.246 43.4064 41.4958 43.7758C44.1664 44.514 47.0075 45.3095 47.0075 48.7188C47.0075 52.1852 44.0814 54.2305 40.5866 54.2305C38.2301 54.2305 34.6824 53.1776 34.1836 49.1571C34.1737 49.0768 34.2379 49.0031 34.3192 49.0031H38.7431C38.8073 49.0031 38.8602 49.0518 38.872 49.1151C39.1252 50.4518 40.4501 50.4518 40.6438 50.4518C41.4392 50.4518 42.2913 49.9974 42.2913 49.2303C42.2913 48.1506 41.1265 48.0089 38.1149 46.8441C36.0697 46.1904 34.365 44.8551 34.365 42.7244C34.365 39.4572 37.2061 37.3832 40.4732 37.3832C42.5213 37.3832 46.0378 38.1871 46.5083 42.2015C46.5172 42.2818 46.453 42.355 46.3727 42.355H42.0154Z" fill="#42538C"/>
<path fill-rule="evenodd" clip-rule="evenodd" d="M53.0278 45.8777C53.0278 47.3268 54.1075 49.8269 56.9482 49.8269C58.6245 49.8269 59.6471 49.0315 60.2441 48.0655C60.6414 47.4406 60.8402 46.7586 60.8974 46.0487C60.954 45.3383 60.8119 44.6279 60.4997 43.9746C59.9881 42.8949 58.9088 41.7868 56.9198 41.7868C54.2209 41.7868 53.0278 44.0597 53.0278 45.8493V45.8777ZM65.4795 53.6906H61.0315C60.9574 53.6906 60.8974 53.6306 60.8974 53.5569V52.4346C60.8974 52.3062 60.7358 52.2528 60.6598 52.3558C59.7161 53.6348 57.9292 54.2305 56.2383 54.2305C51.2381 54.2305 48.3115 50.3096 48.3115 45.7927C48.3115 40.622 52.0335 37.3832 56.2383 37.3832C58.5404 37.3832 59.9414 38.3746 60.6621 39.274C60.7415 39.3727 60.8974 39.3165 60.8974 39.1899V38.0568C60.8974 37.9831 60.9574 37.9231 61.0315 37.9231H65.4795C65.5532 37.9231 65.6132 37.9831 65.6132 38.0568V53.5569C65.6132 53.6306 65.5532 53.6906 65.4795 53.6906Z" fill="#42538C"/>
<path fill-rule="evenodd" clip-rule="evenodd" d="M69.1844 37.9231H73.3202C73.3944 37.9231 73.4544 37.9831 73.4544 38.0568V39.1497C73.4544 39.2768 73.6159 39.3344 73.6924 39.2329C73.8492 39.025 74.0873 38.7549 74.4203 38.4913C75.1019 37.9231 76.21 37.3832 77.8579 37.3832C78.9372 37.3832 80.3009 37.6676 81.4656 38.889C81.7651 39.1885 82.0424 39.5531 82.2979 40.0028C82.347 40.0897 82.467 40.0977 82.5232 40.0151C82.8094 39.5937 83.142 39.1804 83.5397 38.8323C84.4772 37.9798 85.7559 37.3832 87.4034 37.3832C88.5115 37.3832 90.2728 37.6392 91.5514 38.9745C93.0289 40.537 93.2561 41.5879 93.2561 45.0827V53.5569C93.2561 53.6306 93.1961 53.6906 93.1224 53.6906H88.6739C88.5998 53.6906 88.5398 53.6306 88.5398 53.5569V45.3095C88.5398 44.6562 88.5398 43.8041 88.2276 43.0937C87.9432 42.355 87.3467 41.8151 86.1252 41.8151C84.8183 41.8151 84.165 42.4122 83.8523 43.1221C83.5113 43.8325 83.5113 44.6279 83.5113 45.0827V53.5569C83.5113 53.6306 83.4513 53.6906 83.3776 53.6906H78.9292C78.855 53.6906 78.795 53.6306 78.795 53.5569V45.1111C78.795 44.6846 78.795 43.8608 78.5112 43.1504C78.199 42.4122 77.6303 41.8151 76.4372 41.8151C75.1019 41.8151 74.4486 42.4405 74.1076 43.2076C73.7666 43.9746 73.7666 44.8267 73.7666 45.3095V53.5569C73.7666 53.6306 73.7066 53.6906 73.6329 53.6906H69.1844C69.1108 53.6906 69.0508 53.6306 69.0508 53.5569V38.0568C69.0508 37.9831 69.1108 37.9231 69.1844 37.9231Z" fill="#42538C"/>
<path fill-rule="evenodd" clip-rule="evenodd" d="M110.291 53.6906H106.155C106.081 53.6906 106.021 53.6306 106.021 53.5569V52.429C106.021 52.3015 105.859 52.2448 105.782 52.3468C105.189 53.137 104.115 54.2305 101.646 54.2305C96.305 54.2305 95.7651 49.9124 95.7651 47.7812V38.0568C95.7651 37.9831 95.8251 37.9231 95.8993 37.9231H100.348C100.421 37.9231 100.481 37.9831 100.481 38.0568V46.5314C100.481 48.2644 100.851 49.7986 102.981 49.7986C105.339 49.7986 105.709 48.1223 105.709 46.5031V38.0568C105.709 37.9831 105.769 37.9231 105.843 37.9231H110.291C110.365 37.9231 110.425 37.9831 110.425 38.0568V53.5569C110.425 53.6306 110.365 53.6906 110.291 53.6906Z" fill="#42538C"/>
<path fill-rule="evenodd" clip-rule="evenodd" d="M113.967 37.9231H118.103C118.177 37.9231 118.237 37.9831 118.237 38.0568V39.1842C118.237 39.3122 118.399 39.3689 118.476 39.2664C119.069 38.4767 120.14 37.3832 122.583 37.3832C127.896 37.3832 128.436 41.7018 128.436 43.8325V53.5569C128.436 53.6306 128.376 53.6906 128.302 53.6906H123.854C123.78 53.6906 123.72 53.6306 123.72 53.5569V45.0827C123.72 43.3493 123.351 41.8151 121.248 41.8151C118.919 41.8151 118.549 43.4914 118.549 45.1111V53.5569C118.549 53.6306 118.489 53.6906 118.415 53.6906H113.967C113.893 53.6906 113.833 53.6306 113.833 53.5569V38.0568C113.833 37.9831 113.893 37.9231 113.967 37.9231Z" fill="#42538C"/>
<path fill-rule="evenodd" clip-rule="evenodd" d="M135.292 45.7643C135.292 48.1789 137.026 49.7986 139.242 49.7986C140.378 49.7986 141.429 49.3437 142.168 48.6054C142.906 47.8667 143.333 46.8441 143.276 45.6788C143.276 44.5424 142.821 43.577 142.111 42.8949C141.401 42.1845 140.406 41.7868 139.299 41.7868C136.571 41.7868 135.292 43.918 135.292 45.736V45.7643ZM147.602 53.6906H143.381C143.308 53.6906 143.248 53.6306 143.248 53.5569V52.3945C143.248 52.267 143.089 52.2103 143.01 52.3104C142.431 53.0501 141.207 54.2021 138.475 54.2021C133.702 54.2021 130.577 50.5085 130.577 45.7643C130.577 40.4232 134.384 37.3832 138.39 37.3832C140.832 37.3832 142.159 38.4328 142.794 39.0355C142.879 39.1172 143.02 39.0577 143.02 38.9391V32.3288C143.02 32.2546 143.08 32.1951 143.154 32.1951H147.602C147.677 32.1951 147.737 32.2546 147.737 32.3288V53.5569C147.737 53.6306 147.677 53.6906 147.602 53.6906Z" fill="#42538C"/>
<path fill-rule="evenodd" clip-rule="evenodd" d="M154.65 45.821C154.65 48.0939 156.383 49.7702 158.428 49.7702C160.474 49.7702 162.207 48.0939 162.207 45.7927C162.207 43.4915 160.474 41.8152 158.428 41.8152C156.383 41.8152 154.65 43.4915 154.65 45.7927V45.821ZM149.934 45.7643C149.934 41.929 152.689 37.4116 158.428 37.4116C164.167 37.4116 166.923 41.929 166.923 45.7927C166.923 49.6564 164.167 54.1738 158.428 54.1738C152.689 54.1738 149.934 49.6564 149.934 45.7927V45.7643Z" fill="#42538C"/>
<path fill-rule="evenodd" clip-rule="evenodd" d="M11.5325 48.5799C11.481 48.511 11.3814 48.5096 11.3256 48.5748C10.7513 49.2474 9.87747 49.8127 8.49447 49.8127C6.25041 49.8127 4.74461 48.1081 4.74461 45.8069C4.74461 44.6704 5.11397 43.6478 5.76721 42.9091C6.44926 42.1704 7.38685 41.7443 8.49447 41.801C9.81087 41.801 10.6606 42.3158 11.235 42.9799C11.2912 43.0447 11.3904 43.0432 11.4418 42.9743L13.9636 39.5976C14.0062 39.5404 13.9976 39.4582 13.9433 39.4119C12.4526 38.1503 10.4986 37.3974 8.32396 37.3974C3.60817 37.3974 0 41.1478 0 45.7785C0 50.466 3.66485 54.2163 8.43779 54.2163C10.6682 54.2163 12.5906 53.41 14.0425 52.1324C14.0954 52.0856 14.103 52.0048 14.0605 51.9482L11.5325 48.5799Z" fill="#42538C"/>
<path fill-rule="evenodd" clip-rule="evenodd" d="M35.1829 63.5095C35.1163 62.5568 34.1631 61.4836 32.8 61.5101C31.3971 61.5101 30.4832 62.5303 30.4175 63.5095H35.1829ZM30.3911 64.5812C30.4567 66.0374 31.7278 66.779 32.8132 66.779C33.7796 66.779 34.4947 66.3161 34.8919 65.5618H36.3212C35.9769 66.3563 35.4743 66.9509 34.865 67.3486C34.2562 67.7591 33.5415 67.9575 32.8132 67.9575C30.4567 67.9575 29.001 66.0648 29.001 64.1585C29.001 62.0925 30.6159 60.333 32.8 60.333C33.8325 60.333 34.7724 60.717 35.4611 61.3911C36.308 62.2521 36.6651 63.3777 36.5461 64.5812H30.3911Z" fill="#42538C"/>
<path fill-rule="evenodd" clip-rule="evenodd" d="M38.2251 60.5451H39.602V67.7454H38.2251V60.5451ZM38.2251 57.9496H39.602V59.4054H38.2251V57.9496Z" fill="#42538C"/>
<path fill-rule="evenodd" clip-rule="evenodd" d="M41.7319 60.5451H43.0299V61.6556C43.3738 60.9154 44.1815 60.3189 45.4653 60.333C47.7684 60.359 48.3772 62.0273 48.3772 63.5232V67.7454H46.9876V63.8411C46.9876 62.5431 46.4846 61.6168 45.0813 61.6296C43.7313 61.6433 43.1088 62.4902 43.1088 63.7343V67.7454H41.7319V60.5451Z" fill="#42538C"/>
<path fill-rule="evenodd" clip-rule="evenodd" d="M50.6261 61.6168H49.6465V60.5451H50.6261V60.0543C50.6261 57.884 52.3071 57.7777 53.3269 57.7649V58.8504C52.8631 58.8631 52.003 58.8631 52.003 60.1209V60.5451H53.3269V61.6168H52.003V67.7454H50.6261V61.6168Z" fill="#42538C"/>
<path fill-rule="evenodd" clip-rule="evenodd" d="M55.3114 64.1712C55.3247 65.2439 56.0794 66.6737 57.8266 66.6737C58.9257 66.6737 59.7065 66.0648 60.0641 65.2439C60.2228 64.9128 60.3026 64.5425 60.3158 64.1712C60.3286 63.8009 60.2624 63.4306 60.1037 63.099C59.7594 62.2658 58.9522 61.6168 57.8002 61.6168C56.2911 61.6168 55.3114 62.8081 55.3114 64.1585V64.1712ZM61.6785 67.7454H60.3026V66.488C59.7991 67.4544 58.767 67.9575 57.6282 67.9575C55.3114 67.9575 53.9346 66.1565 53.9346 64.1448C53.9346 61.947 55.5367 60.333 57.6282 60.333C59.058 60.333 59.971 61.1275 60.3026 61.8152V60.5451H61.6785V67.7454Z" fill="#42538C"/>
<path fill-rule="evenodd" clip-rule="evenodd" d="M70.917 65.2175C70.4806 66.779 69.064 67.9575 67.2635 67.9575C64.907 67.9575 63.4111 66.1442 63.4111 64.1448C63.4111 62.0136 65.0393 60.333 67.1969 60.333C68.9176 60.333 70.4664 61.3911 70.917 63.1255H69.501C69.1297 62.1591 68.2299 61.6168 67.2503 61.6168C66.5224 61.6031 65.9929 61.8417 65.4894 62.3183C65.0657 62.7415 64.788 63.4164 64.788 64.1448C64.788 65.6279 65.8734 66.6737 67.2503 66.6737C68.4547 66.66 69.2095 65.9321 69.501 65.2175H70.917Z" fill="#42538C"/>
<path fill-rule="evenodd" clip-rule="evenodd" d="M72.4775 57.9496H73.8544V61.5503C74.2776 60.7034 75.2572 60.3189 76.1977 60.333C77.3228 60.333 78.0374 60.7034 78.5008 61.3382C78.9504 61.9607 79.1224 62.8218 79.1224 63.8146V67.7454H77.7332V63.8798C77.7332 63.2322 77.6137 62.6621 77.3228 62.2658C77.0044 61.8677 76.5283 61.6296 75.8136 61.6296C75.0853 61.6296 74.5823 61.9078 74.2908 62.2918C73.9867 62.6763 73.8544 63.1921 73.8544 63.6814V67.7454H72.4775V57.9496Z" fill="#42538C"/>
<path fill-rule="evenodd" clip-rule="evenodd" d="M85.4604 60.5451H86.758V61.5639C87.0626 60.9542 87.8963 60.333 88.942 60.333C89.6038 60.333 90.2924 60.5309 90.795 61.0996C90.9802 61.2853 91.179 61.6697 91.2584 61.8015C91.3774 61.5904 91.5229 61.3382 91.7746 61.0874C92.238 60.624 92.8997 60.333 93.6814 60.333C94.3427 60.333 95.0843 60.5172 95.6133 61.0609C96.2491 61.7099 96.4078 62.3976 96.4078 63.7745V67.7454H95.0309V63.8269C95.0309 63.2322 94.952 62.6361 94.6337 62.2257C94.3829 61.8554 93.9988 61.6296 93.3499 61.6296C92.741 61.6296 92.2248 61.8818 91.9598 62.3183C91.6688 62.7679 91.6291 63.1656 91.6291 63.7745V67.7454H90.2391V63.7745C90.2523 63.1784 90.1862 62.7415 89.9481 62.3447C89.6831 61.9206 89.2594 61.6433 88.5849 61.6296C87.936 61.6168 87.4598 61.9343 87.2213 62.331C86.9563 62.715 86.8373 63.2185 86.8373 63.8009V67.7454H85.4604V60.5451Z" fill="#42538C"/>
<path fill-rule="evenodd" clip-rule="evenodd" d="M104.176 63.5095C104.109 62.5568 103.156 61.4836 101.793 61.5101C100.39 61.5101 99.4758 62.5303 99.4102 63.5095H104.176ZM99.3837 64.5812C99.4499 66.0374 100.72 66.779 101.806 66.779C102.773 66.779 103.487 66.3161 103.885 65.5618H105.314C104.97 66.3563 104.467 66.9509 103.858 67.3486C103.249 67.7591 102.534 67.9575 101.806 67.9575C99.4499 67.9575 97.9937 66.0648 97.9937 64.1585C97.9937 62.0925 99.6086 60.333 101.793 60.333C102.825 60.333 103.765 60.717 104.454 61.3911C105.301 62.2521 105.658 63.3777 105.539 64.5812H99.3837Z" fill="#42538C"/>
<path fill-rule="evenodd" clip-rule="evenodd" d="M107.218 60.5451H108.595V67.7454H107.218V60.5451ZM107.218 57.9496H108.595V59.4054H107.218V57.9496Z" fill="#42538C"/>
<path fill-rule="evenodd" clip-rule="evenodd" d="M110.725 60.5451H112.023V61.6556C112.367 60.9154 113.175 60.3189 114.458 60.333C116.762 60.359 117.37 62.0273 117.37 63.5232V67.7454H115.981V63.8411C115.981 62.5431 115.478 61.6168 114.074 61.6296C112.724 61.6433 112.102 62.4902 112.102 63.7343V67.7454H110.725V60.5451Z" fill="#42538C"/>
<path fill-rule="evenodd" clip-rule="evenodd" d="M125.296 57.9496V64.0654C125.296 64.6743 125.296 65.2038 125.653 65.7739C125.945 66.2368 126.488 66.5546 127.163 66.5546C127.838 66.5546 128.38 66.2495 128.645 65.7999C129.016 65.2439 129.016 64.7007 129.016 64.0654V57.9496H130.565V64.0654C130.578 65.3634 130.366 66.3563 129.505 67.0704C128.923 67.5999 128.143 67.931 127.176 67.931C126.474 67.931 125.468 67.7317 124.807 67.0841C123.84 66.2231 123.721 65.2567 123.734 64.0654V57.9496H125.296Z" fill="#42538C"/>
<path fill-rule="evenodd" clip-rule="evenodd" d="M132.72 60.5451H134.018V61.6031C134.427 60.7558 135.182 60.3453 136.162 60.333V61.7099H136.069C134.772 61.7099 134.097 62.4241 134.097 63.8534V67.7454H132.72V60.5451Z" fill="#42538C"/>
<path fill-rule="evenodd" clip-rule="evenodd" d="M137.577 57.9496H138.954V67.7454H137.577V57.9496Z" fill="#42538C"/>
<path fill-rule="evenodd" clip-rule="evenodd" d="M142.05 64.1712C142.063 65.2439 142.819 66.6737 144.565 66.6737C145.664 66.6737 146.445 66.0648 146.803 65.2439C146.962 64.9128 147.041 64.5425 147.055 64.1712C147.068 63.8009 147.001 63.4306 146.843 63.099C146.499 62.2658 145.691 61.6168 144.539 61.6168C143.03 61.6168 142.05 62.8081 142.05 64.1585V64.1712ZM148.418 67.7454H147.041V66.488C146.538 67.4544 145.506 67.9575 144.367 67.9575C142.05 67.9575 140.673 66.1565 140.673 64.1448C140.673 61.947 142.275 60.333 144.367 60.333C145.797 60.333 146.71 61.1275 147.041 61.8152V60.5451H148.418V67.7454Z" fill="#42538C"/>
<path fill-rule="evenodd" clip-rule="evenodd" d="M157.193 67.7454H155.895V66.6335C155.551 67.3751 154.744 67.9702 153.46 67.9575C151.143 67.9438 150.547 66.2632 150.547 64.7673V60.5451H151.924V64.4495C151.924 65.746 152.427 66.6737 153.844 66.6737C155.194 66.66 155.816 65.7999 155.816 64.569V60.5451H157.193V67.7454Z" fill="#42538C"/>
<path fill-rule="evenodd" clip-rule="evenodd" d="M165.623 64.132C165.623 62.7287 164.551 61.6169 163.134 61.6169C161.652 61.6169 160.646 62.7679 160.646 64.132C160.646 65.5089 161.625 66.6737 163.095 66.6737C164.736 66.6737 165.61 65.3899 165.623 64.1448V64.132ZM159.322 57.9496H160.699V61.6957C161.361 60.7558 162.419 60.3453 163.346 60.333C165.213 60.333 167 61.7222 167 64.1183C167 66.4351 165.358 67.9575 163.293 67.9575C162.062 67.9575 161.109 67.3614 160.646 66.5017V67.7454H159.322V57.9496Z" fill="#42538C"/>
</svg>
