<svg width="167" height="72" viewBox="0 0 167 72" fill="none" xmlns="http://www.w3.org/2000/svg">
<path d="M47.9364 26.5055C47.9364 30.7414 46.8146 33.8555 42.6449 33.8555C38.7555 33.8555 37.6689 31.1273 37.6689 26.8914C37.6689 22.676 38.7908 19.5401 42.9604 19.5401C46.8499 19.5401 47.9364 22.2683 47.9364 26.5055ZM40.0163 26.7273C40.0163 30.2722 40.7697 31.5132 42.8027 31.5132C44.8356 31.5132 45.5879 30.3106 45.5879 26.667C45.5879 23.1222 44.8345 21.8811 42.8027 21.8811C40.7708 21.8811 40.0163 23.0837 40.0163 26.7273Z" fill="#0090D0"/>
<path d="M53.949 25.9542C53.4758 25.7914 53.0037 25.6696 52.3892 25.6696C51.6358 25.6696 51.0931 25.9952 51.0931 26.667C51.0931 27.8888 54.6318 27.5016 54.6318 30.4542C54.6318 32.267 53.4228 33.8542 51.1979 33.8542C49.936 33.8542 49.0249 33.3657 48.5527 32.9183L49.4981 31.167C50.0242 31.5145 50.4798 31.7375 51.1979 31.758C52.0219 31.758 52.4245 31.3093 52.4245 30.6375C52.4245 29.2529 48.9024 29.6811 48.9024 26.7888C48.9024 24.9555 50.0761 23.5709 52.4598 23.5709C53.2838 23.5709 54.1597 23.7555 54.58 23.9786L53.949 25.9542Z" fill="#0090D0"/>
<path d="M58.5067 21.2106C58.6644 21.4337 58.8045 22.1465 58.8045 22.8401V23.9196H61.1706L60.9246 25.8952H58.9269V30.1311C58.9269 31.0876 59.1365 31.5773 59.8204 31.5773C60.1359 31.5773 60.5209 31.4965 60.8893 31.3735L61.3625 33.2683C60.9765 33.5119 60.2231 33.776 59.4344 33.776C57.419 33.776 56.7362 32.3517 56.7362 29.9273V25.8952H55.2471V23.9196H56.7715V21.5363L58.5067 21.2106Z" fill="#0090D0"/>
<path d="M67.2869 25.9542C66.8137 25.7914 66.3415 25.6696 65.7271 25.6696C64.9737 25.6696 64.431 25.9952 64.431 26.667C64.431 27.8888 67.9697 27.5016 67.9697 30.4542C67.9697 32.267 66.7607 33.8542 64.5358 33.8542C63.2739 33.8542 62.3627 33.3657 61.8906 32.9183L62.836 31.167C63.3621 31.5145 63.8177 31.7375 64.5358 31.758C65.3598 31.758 65.7624 31.3093 65.7624 30.6375C65.7624 29.2529 62.2403 29.6811 62.2403 26.7888C62.2403 24.9555 63.414 23.5709 65.7977 23.5709C66.6217 23.5709 67.4976 23.7555 67.9178 23.9786L67.2869 25.9542Z" fill="#0090D0"/>
<path d="M76.1562 32.9388C75.6124 33.3875 74.5446 33.8555 73.3003 33.8555C70.3386 33.8555 69.2002 31.8401 69.2002 28.7452C69.2002 25.5478 70.6364 23.5721 73.1955 23.5721C75.3333 23.5721 76.2786 25.0798 76.3492 27.4221C76.3845 28.3375 76.2445 29.4375 76.2445 29.4375L71.4615 29.4991C71.5663 30.9439 72.0572 31.6375 73.5463 31.6375C74.335 31.6375 75.0002 31.3927 75.544 31.1478L76.1562 32.9388ZM74.2291 27.685C74.2291 27.685 74.2468 27.4414 74.2468 27.176C74.2291 26.1786 73.9136 25.567 72.9849 25.567C72.0561 25.567 71.6005 26.1183 71.4781 27.7055L74.2291 27.685Z" fill="#0090D0"/>
<path d="M84.5517 32.9388C84.009 33.3875 82.9401 33.8555 81.6958 33.8555C78.7341 33.8555 77.5957 31.8401 77.5957 28.7452C77.5957 25.5478 79.0319 23.5721 81.5911 23.5721C83.7288 23.5721 84.6742 25.0798 84.7448 27.4221C84.7801 28.3375 84.64 29.4375 84.64 29.4375L79.857 29.4991C79.9618 30.9439 80.4527 31.6375 81.9418 31.6375C82.7305 31.6375 83.3957 31.3927 83.9395 31.1478L84.5517 32.9388ZM82.6246 27.685C82.6246 27.685 82.6423 27.4414 82.6423 27.176C82.6246 26.1786 82.3092 25.567 81.3804 25.567C80.4516 25.567 79.996 26.1183 79.8736 27.7055L82.6246 27.685Z" fill="#0090D0"/>
<path d="M91.3874 27.5427H86.6045V29.6196H91.3874V27.5427Z" fill="#0090D0"/>
<path d="M44.5367 35.9811L44.2742 38.2824H39.9633V41.6427H43.5726V43.944H39.9633V49.7683H37.6689V35.9811H44.5367Z" fill="#F6921E"/>
<path d="M51.7579 49.1158C51.2152 49.5645 50.1452 50.0324 48.9009 50.0324C45.9403 50.0324 44.8008 48.017 44.8008 44.9222C44.8008 41.7247 46.2381 39.7491 48.7961 39.7491C50.9339 39.7491 51.8803 41.2568 51.9498 43.5991C51.984 44.5145 51.8439 45.6145 51.8439 45.6145L47.061 45.676C47.1658 47.1209 47.6566 47.8145 49.1458 47.8145C49.9345 47.8145 50.5997 47.5696 51.1435 47.3247L51.7579 49.1158ZM49.8308 43.8619C49.8308 43.8619 49.8485 43.6183 49.8485 43.3529C49.8308 42.3555 49.5153 41.744 48.5865 41.744C47.6578 41.744 47.2022 42.2952 47.0797 43.8824L49.8308 43.8619Z" fill="#F6921E"/>
<path d="M55.5285 39.8914C55.6686 40.1157 55.8782 40.7875 55.8958 41.4606C56.2643 40.9093 57.0342 39.9119 57.9983 39.9119C58.4715 39.9119 58.8741 40.0542 59.1201 40.1978L58.5421 42.4593C58.1748 42.3362 57.8935 42.2747 57.6321 42.2747C57.1236 42.2747 56.5974 42.5401 56.0194 42.9055V49.7696H53.7239V41.5632C53.7239 41.1349 53.7062 40.6465 53.6367 40.2183L55.5285 39.8914Z" fill="#F6921E"/>
<path d="M61.3648 35.717C62.2406 35.717 62.662 36.3683 62.662 37.1632C62.662 37.9568 62.1358 38.7311 61.2953 38.7311C60.3841 38.7311 59.9639 38.0799 59.9639 37.2452C59.9639 36.4901 60.4889 35.717 61.3648 35.717ZM62.1877 39.8914C62.3289 40.1158 62.5561 40.7876 62.5561 41.4799V49.7683H60.2606V41.5811C60.2606 41.1542 60.2429 40.6645 60.1735 40.2376L62.1877 39.8914Z" fill="#F6921E"/>
<path d="M71.1788 49.1158C70.6361 49.5645 69.5661 50.0324 68.3218 50.0324C65.3612 50.0324 64.2217 48.017 64.2217 44.9222C64.2217 41.7247 65.659 39.7491 68.217 39.7491C70.3548 39.7491 71.3012 41.2568 71.3707 43.5991C71.4049 44.5145 71.2648 45.6145 71.2648 45.6145L66.4819 45.676C66.5867 47.1209 67.0775 47.8145 68.5667 47.8145C69.3554 47.8145 70.0206 47.5696 70.5644 47.3247L71.1788 49.1158ZM69.2517 43.8619C69.2517 43.8619 69.2694 43.6183 69.2694 43.3529C69.2517 42.3555 68.9362 41.744 68.0074 41.744C67.0787 41.744 66.6231 42.2952 66.5006 43.8824L69.2517 43.8619Z" fill="#F6921E"/>
<path d="M74.9495 39.8914C75.0709 40.1157 75.2992 40.726 75.3168 41.3991C75.8949 40.6247 76.7012 39.9119 78.0856 39.9119C79.9079 39.9119 80.5741 41.2157 80.5741 43.0696V49.7696H78.2786V43.9042C78.2786 42.7849 78.0161 42.317 77.2439 42.317C76.5964 42.317 76.1221 42.5196 75.4393 42.8247V49.7696H73.1438V41.5632C73.1438 41.1349 73.1261 40.6465 73.0566 40.2183L74.9495 39.8914Z" fill="#F6921E"/>
<path d="M83.5011 40.0952L84.5357 45.2888C84.6935 46.1029 84.8512 47.7734 84.8512 47.7734C84.8512 47.7734 85.0608 46.1234 85.2715 45.3093L86.5853 40.0965H88.4781L89.8449 45.3093C90.0191 46.0632 90.2475 47.5093 90.2475 47.5093C90.2475 47.5093 90.4052 46.0016 90.5453 45.3093L91.6318 40.0965H93.6461L91.4917 49.7696H89.0374L87.9156 45.3709C87.653 44.3119 87.4787 42.7837 87.4787 42.7837C87.4787 42.7837 87.2692 44.3926 87.0574 45.3285L85.9543 49.7683H83.4657L81.3633 40.0952H83.5011Z" fill="#F6921E"/>
<path d="M102.115 44.7991C102.115 47.7927 101.028 50.0324 97.9451 50.0324C95.001 50.0324 94.0898 47.8734 94.0898 44.9837C94.0898 41.9901 95.1764 39.7491 98.2606 39.7491C101.202 39.7491 102.115 41.9068 102.115 44.7991ZM96.3842 44.9222C96.3842 46.7952 96.6302 47.8337 98.1017 47.8337C99.5732 47.8337 99.8192 46.8363 99.8192 44.8606C99.8192 42.9875 99.5732 41.9491 98.1017 41.9491C96.6302 41.9491 96.3842 42.9465 96.3842 44.9222Z" fill="#F6921E"/>
<path d="M105.779 35.8593C105.919 36.0824 106.147 36.7542 106.147 37.4465V41.235C106.708 40.5209 107.514 39.9106 108.793 39.9106C110.615 39.9106 111.281 41.2144 111.281 43.0683V49.7683H108.986V43.9029C108.986 42.7837 108.723 42.3157 107.951 42.3157C107.302 42.3157 106.829 42.5183 106.146 42.8234V49.7683H103.868V37.5503C103.868 37.1221 103.851 36.6337 103.781 36.2055L105.779 35.8593Z" fill="#F6921E"/>
<path d="M115.192 39.8914C115.313 40.1157 115.541 40.726 115.559 41.3991C116.137 40.6247 116.943 39.9119 118.328 39.9119C120.15 39.9119 120.816 41.2157 120.816 43.0696V49.7696H118.521V43.9042C118.521 42.7849 118.258 42.317 117.486 42.317C116.839 42.317 116.364 42.5196 115.681 42.8247V49.7696H113.386V41.5632C113.386 41.1349 113.368 40.6465 113.299 40.2183L115.192 39.8914Z" fill="#F6921E"/>
<path d="M124.603 39.8914C124.743 40.1157 124.971 40.808 124.971 41.5003V45.7978C124.971 46.9798 125.286 47.6311 126.057 47.6311C126.355 47.6311 126.775 47.5696 127.635 47.1426V41.5619C127.635 41.1337 127.616 40.6657 127.546 40.2388L129.562 39.8914C129.702 40.1157 129.93 40.808 129.93 41.5003V48.4849C129.93 48.9132 129.948 49.3619 130 49.7683H128.107C128.001 49.5644 127.808 49.0555 127.774 48.5465C127.336 49.2388 126.423 50.0324 125.356 50.0324C123.691 50.0324 122.675 48.6888 122.675 46.6324V41.5619C122.675 41.1337 122.656 40.6657 122.587 40.2388L124.603 39.8914Z" fill="#F6921E"/>
<path d="M134.017 39.8914C134.138 40.1157 134.367 40.726 134.384 41.3991C134.962 40.6247 135.769 39.9119 137.153 39.9119C138.975 39.9119 139.642 41.2157 139.642 43.0696V49.7696H137.346V43.9042C137.346 42.7849 137.083 42.317 136.311 42.317C135.664 42.317 135.189 42.5196 134.507 42.8247V49.7696H132.211V41.5632C132.211 41.1349 132.194 40.6465 132.124 40.2183L134.017 39.8914Z" fill="#F6921E"/>
<path d="M150.209 41.7247C149.893 41.8875 149.438 42.0299 148.842 41.9683C148.562 41.9478 148.281 41.8465 148.037 41.7247C148.335 42.1529 148.544 42.7029 148.544 43.2324C148.544 45.2286 147.282 46.8978 144.813 46.8978C144.584 46.8978 144.357 46.876 144.164 46.8568C143.726 47.8145 144.042 48.1401 144.742 48.1401H146.249C148.456 48.1401 149.507 49.2811 149.507 51.0106C149.507 53.2722 148 55.0234 144.952 55.0234C142.446 55.0234 141.219 54.026 141.219 52.1927C141.219 51.0927 142.007 50.217 142.709 49.7888C142.218 49.4632 141.938 48.9952 141.938 48.2414C141.938 47.4478 142.551 46.7952 143.024 46.5927C141.763 46.0632 141.255 44.9222 141.255 43.4145C141.255 41.4183 142.517 39.7491 144.987 39.7491C145.513 39.7491 145.986 39.8299 146.389 39.9337C147.791 40.0965 149.332 39.9952 149.928 39.8927L150.209 41.7247ZM144.9 44.9414C146.213 44.9414 146.459 44.4529 146.459 43.2927C146.459 42.3555 146.144 41.7042 144.9 41.7042C143.586 41.7042 143.34 42.1927 143.34 43.3529C143.34 44.2901 143.655 44.9414 144.9 44.9414ZM143.411 51.6017C143.411 52.5581 143.987 52.885 145.198 52.885C146.774 52.885 147.299 52.2529 147.299 51.3773C147.299 50.6645 146.966 50.2568 145.758 50.2568C144.146 50.2568 143.813 50.217 143.813 50.217C143.585 50.6645 143.411 51.1132 143.411 51.6017Z" fill="#F6921E"/>
<path d="M157.605 49.1158C157.062 49.5645 155.992 50.0324 154.748 50.0324C151.787 50.0324 150.647 48.017 150.647 44.9222C150.647 41.7247 152.085 39.7491 154.643 39.7491C156.781 39.7491 157.727 41.2568 157.797 43.5991C157.831 44.5145 157.691 45.6145 157.691 45.6145L152.908 45.676C153.012 47.1209 153.503 47.8145 154.992 47.8145C155.781 47.8145 156.446 47.5696 156.99 47.3247L157.605 49.1158ZM155.677 43.8619C155.677 43.8619 155.695 43.6183 155.695 43.3529C155.678 42.3555 155.362 41.744 154.433 41.744C153.504 41.744 153.049 42.2952 152.926 43.8824L155.677 43.8619Z" fill="#F6921E"/>
<path d="M161.375 39.8914C161.497 40.1157 161.725 40.726 161.743 41.3991C162.321 40.6247 163.127 39.9119 164.511 39.9119C166.334 39.9119 167 41.2157 167 43.0696V49.7696H164.704V43.9042C164.704 42.7849 164.442 42.317 163.67 42.317C163.022 42.317 162.548 42.5196 161.865 42.8247V49.7696H159.57V41.5632C159.57 41.1349 159.552 40.6465 159.482 40.2183L161.375 39.8914Z" fill="#F6921E"/>
<path d="M22.3721 52.3363L20.9734 55.7542L17.1589 56.5747L17.053 56.3157L16.2257 56.5747L16.4011 54.7311L10.6441 55.7119C10.6441 55.7119 10.4467 55.7119 10.0992 55.6529C8.78103 55.4362 7.34593 54.5221 6.10938 53.976C4.36872 53.2093 2.15594 52.7542 2.18793 50.0709C2.21551 47.776 2.32582 45.4516 2.41186 43.1542C2.43613 42.5106 2.45708 41.8632 2.46039 41.2183L2.51003 36.6055C2.35339 36.2209 1.22495 33.2798 1.16538 33.1388C1.00543 32.7645 0.767169 32.1465 0.643624 31.7516C0.37337 30.8914 0.0887753 29.976 0.0303122 29.0542C-0.0689648 27.4991 0.0788477 26.1145 0.426317 24.6734C0.773787 23.2337 3.58774 15.735 3.58774 15.4465C3.58774 15.158 20.3953 16.1209 20.3953 16.1209C20.3953 16.1209 21.5811 17.5439 22.1349 18.4029C22.4735 18.9286 23.4365 20.1209 23.4365 20.1209L24.0818 22.1375L22.2463 22.7721L22.7923 31.0721L25.7684 34.185L28.2967 34.7042L28.5449 35.3375V46.2311C28.5449 46.2311 30.1322 47.2119 30.3804 47.326C30.6286 47.4414 31.1007 48.0632 31.1007 48.0632L29.5873 52.8593L29.0909 53.2619C28.6287 53.6375 27.3028 53.6645 26.7259 53.8247C25.6339 54.1311 24.5286 54.3632 23.4365 54.5965C23.4476 54.4786 23.5777 53.4939 23.6825 52.9298C23.8105 52.2324 23.784 52.0888 23.8204 51.8927" fill="white"/>
<path d="M22.7151 50.7581L22.4062 54.5658L17.984 55.6132L18.755 55.1619L18.3502 54.6145L18.1483 52.2658L11.4692 55.167C11.4692 55.167 11.2706 55.167 10.9243 55.1094C10.5768 55.0529 5.66591 52.7465 5.66591 52.7465L3.68368 51.9978L3.03838 51.1901C3.03838 51.1901 3.43549 48.0773 3.28768 46.4081C3.13876 44.7363 3.28768 41.2196 3.28768 41.2196L3.33621 36.6068C3.17957 36.2222 2.05112 33.2811 1.99156 33.1401C1.83161 32.7658 1.59335 32.1478 1.4698 31.7529C1.19955 30.8927 0.914954 29.9773 0.855388 29.0555C0.756111 27.5004 0.905027 26.1158 1.2525 24.6747C1.59886 23.235 4.41502 15.7363 4.41502 15.4478C4.41502 15.1594 21.0064 15.9735 21.5557 16.0542C22.1051 16.1337 24.9334 19.8837 24.9334 19.8837C25.0922 20.794 25.1694 21.1401 25.3294 22.0504C25.3779 22.3363 25.5368 22.8055 25.2588 23.1709C25.1077 23.3709 24.8451 23.4811 24.6157 23.4876C24.0818 23.5017 23.8038 23.5183 23.2699 23.5324C23.2699 23.5324 23.7939 30.1081 24.0322 30.5952C24.2693 31.0799 26.5659 34.0799 26.5659 34.0799C26.5659 34.0799 28.6066 34.5542 28.7092 34.5952C28.814 34.635 29.3479 34.9683 29.3722 35.5619C29.3898 35.9901 29.3722 46.2324 29.3722 46.2324C29.3722 46.2324 30.9595 47.2132 31.2077 47.3273C31.4559 47.4414 31.928 48.0645 31.928 48.0645L30.5536 52.2132C30.5536 52.2132 29.7957 51.2478 29.7946 51.2491C29.3324 51.626 27.3877 53.3632 26.2946 53.5965C26.3056 53.4747 26.1898 52.9863 26.2946 52.4222C26.4236 51.7247 26.2582 50.7401 26.2946 50.544L22.7151 50.7581Z" fill="#0090D0" stroke="white" stroke-width="1.28205" stroke-miterlimit="10" stroke-linecap="round" stroke-linejoin="round"/>
<path d="M5.43359 24.858L6.26973 23.3683L20.9109 23.4003C20.9109 23.4003 21.2175 30.2939 21.5827 31.0478C21.95 31.8003 24.583 35.1567 24.989 35.6696C25.1952 35.9298 26.5145 36.0734 26.5145 36.0734C26.5145 36.0734 26.9701 36.1324 27.0583 36.3888C27.1477 36.6452 27.1036 37.2593 27.1036 37.2593V45.7747L24.5455 44.5209L10.5464 47.026L10.1415 37.1683L7.77653 35.9196L5.88144 30.8362L5.43359 24.858Z" fill="#00529B" stroke="#00529B" stroke-width="1.28205" stroke-miterlimit="10" stroke-linecap="round" stroke-linejoin="round"/>
<path d="M10.7114 47.1157L11.9645 54.5862L27.8511 50.9208L27.5984 43.9131L10.7114 47.1157Z" fill="#0066B2"/>
<path d="M16.7002 52.4235L10.9014 47.9145L16.5193 46.9709L23.3507 51.2209C23.3507 51.2209 23.1102 55.0465 23.1058 55.0619C23.0838 55.135 17.7316 56.4235 16.6627 56.6414L16.7002 52.4235Z" fill="#0090D0" stroke="white" stroke-width="3.21795" stroke-miterlimit="10" stroke-linecap="round" stroke-linejoin="round"/>
<path d="M25.3872 50.3863L19.5508 46.4145L25.2316 45.6645L30.6897 48.7824C30.6897 48.7824 29.9462 52.8376 29.9418 52.8529C29.9197 52.926 26.0281 54.2581 24.9592 54.4773L25.3872 50.3863Z" fill="#0090D0" stroke="white" stroke-width="3.21795" stroke-miterlimit="10" stroke-linecap="round" stroke-linejoin="round"/>
<path d="M17.525 51.944L11.0444 47.094L17.3441 46.0145L24.1744 50.7427C24.1744 50.7427 23.935 54.567 23.9306 54.5824C23.9085 54.6555 18.5553 55.9452 17.4875 56.1632L17.525 51.944Z" fill="#0090D0" stroke="#0090D0" stroke-width="1.28205" stroke-miterlimit="10" stroke-linecap="round" stroke-linejoin="round"/>
<path d="M26.2115 49.9068L19.7695 45.5106L25.8828 44.4722L31.514 48.3042C31.514 48.3042 30.7705 52.3568 30.7661 52.3722C30.7441 52.4452 26.8524 53.7773 25.7835 53.9965L26.2115 49.9068Z" fill="#0090D0" stroke="#0090D0" stroke-width="1.28205" stroke-miterlimit="10" stroke-linecap="round" stroke-linejoin="round"/>
<path d="M11.9059 54.6939C12.2291 53.9542 12.0162 52.6555 11.9688 52.0004C11.8563 50.4465 11.7084 48.8965 11.6467 47.3388C11.5463 44.8324 11.4371 42.3273 11.3312 39.8209C11.3091 39.3055 11.3069 38.7811 11.265 38.2683L11.1867 37.3222C11.1867 37.3222 10.9164 36.5568 10.9153 36.5555C10.6848 35.9016 9.66113 35.9542 9.21218 35.6786C8.59225 35.2991 8.46209 34.7068 8.21831 33.9927C6.7468 29.6952 6.1732 25.6273 5.91398 21.0439L5.46833 17.4132L5.12197 16.2606L4.87377 15.858C4.87377 15.858 4.416 15.1375 4.416 15.4273C4.416 15.7157 1.60094 23.2132 1.25347 24.6542C0.906003 26.0952 0.757087 27.4786 0.856364 29.035C0.915931 29.9555 1.20052 30.8709 1.47078 31.7324C1.59432 32.1273 1.83259 32.7439 1.99253 33.1183C2.0521 33.258 3.18055 36.2004 3.33719 36.585L3.28865 41.1978C3.2335 43.4888 3.16952 45.7811 3.12098 48.0734C3.10003 49.0837 2.81543 50.3529 3.27211 51.2888C3.7354 52.2375 10.815 55.7914 11.6632 55.0439C11.7658 54.9529 11.8463 54.835 11.9059 54.6939Z" fill="#0090D0" stroke="white" stroke-width="1.28205" stroke-miterlimit="10" stroke-linecap="round" stroke-linejoin="round"/>
<path d="M12.7998 55.3875C12.7998 55.3875 11.9107 36.5209 11.9085 36.4657C11.8577 35.5298 9.84793 35.1542 9.33169 34.667C8.80111 34.1696 8.56174 33.3362 8.32127 32.6247C8.05543 31.835 7.68038 30.9773 7.51712 30.1529L6.60929 25.5991C6.60929 25.5991 6.41405 21.1337 6.21218 19.258C6.01032 17.385 5.51063 16.1888 5.51063 16.1888L4.87305 15.858L5.12124 16.2606L5.46761 17.4132L5.91325 21.0439L6.16144 25.4247L6.90602 30.2657L8.66102 35.2721L9.47068 35.8106L9.4795 35.8337L9.59091 35.8888C9.59091 35.8888 9.63173 35.9157 9.62842 35.908L10.9146 36.5542L11.186 37.3209L11.2643 38.267L11.957 54.726L11.9074 55.3593L12.7998 55.3875Z" fill="white"/>
<path d="M8.05305 51.3965C7.82582 51.3965 7.6416 51.1017 7.6416 50.4401V38.4722C7.6416 38.2081 7.82582 38.2658 8.05305 38.2658C8.28139 38.2658 8.4656 38.7145 8.4656 39.2235V51.0799C8.4656 51.344 8.28139 51.3965 8.05305 51.3965Z" fill="white"/>
<path d="M6.70607 22.8644L6.65092 20.3644L4.86504 18.0503C4.86504 18.0503 4.32563 16.7773 4.62125 16.2683C4.91798 15.7606 5.73316 15.8593 5.73316 15.8593L6.19424 18.4003L6.70607 22.8644Z" fill="#0090D0"/>
<path d="M13.2266 46.9593L14.2524 46.7593L19.0486 50.1799L18.2389 50.4093L13.2266 46.9593Z" fill="white" stroke="white" stroke-width="0.320513" stroke-miterlimit="10" stroke-linecap="round" stroke-linejoin="round"/>
<path d="M15.7725 46.5452L16.7983 46.3465L21.5945 49.7683L20.786 49.9939L15.7725 46.5452Z" fill="white" stroke="white" stroke-width="0.320513" stroke-miterlimit="10" stroke-linecap="round" stroke-linejoin="round"/>
<path d="M21.6152 45.476L22.6389 45.2593L27.4825 48.5875L26.6773 48.8324L21.6152 45.476Z" fill="white" stroke="white" stroke-width="0.320513" stroke-miterlimit="10" stroke-linecap="round" stroke-linejoin="round"/>
<path d="M24.1572 45.0183L25.1798 44.8004L30.0245 48.1273L29.2181 48.3709L24.1572 45.0183Z" fill="white" stroke="white" stroke-width="0.320513" stroke-miterlimit="10" stroke-linecap="round" stroke-linejoin="round"/>
<path d="M18.2686 24.8593L18.4208 28.6862L22.9875 39.9824L22.1051 40.0016L17.6376 28.7439L17.417 24.8555L18.2686 24.8593Z" fill="white" stroke="white" stroke-width="0.320513" stroke-miterlimit="10" stroke-linecap="round" stroke-linejoin="round"/>
<path d="M16.0014 24.8004L16.2319 28.8068L20.9023 40.1619L20.021 40.1811L15.3704 28.6824L15.1509 24.7952L16.0014 24.8004Z" fill="white" stroke="white" stroke-width="0.320513" stroke-miterlimit="10" stroke-linecap="round" stroke-linejoin="round"/>
<path d="M13.7865 24.9196L14.0171 28.926L18.9445 40.4952L17.9528 40.6426L13.1555 28.8042L12.936 24.9144L13.7865 24.9196Z" fill="white" stroke="white" stroke-width="0.320513" stroke-miterlimit="10" stroke-linecap="round" stroke-linejoin="round"/>
<path d="M11.4693 24.9799L11.6998 28.9863L16.6515 41.0029L15.7139 41.0863L10.8372 28.8632L10.6177 24.976L11.4693 24.9799Z" fill="white" stroke="white" stroke-width="0.320513" stroke-miterlimit="10" stroke-linecap="round" stroke-linejoin="round"/>
<path d="M9.09962 25.0401L9.32906 29.0465L14.3569 41.3837L13.4755 41.467L8.46866 28.9222L8.24805 25.035L9.09962 25.0401Z" fill="white" stroke="white" stroke-width="0.320513" stroke-miterlimit="10" stroke-linecap="round" stroke-linejoin="round"/>
<path d="M23.2236 41.5209H24.3223L25.2434 42.294L24.8154 43.4734L24.3047 43.1516L24.1899 42.3555L23.2236 41.5209Z" fill="white" stroke="white" stroke-width="0.384615" stroke-miterlimit="10" stroke-linecap="round" stroke-linejoin="round"/>
<path d="M21.1553 41.7004H22.1425L22.9709 42.4735L22.586 43.6529L22.1271 43.3299L22.0234 42.5363L21.1553 41.7004Z" fill="white" stroke="white" stroke-width="0.384615" stroke-miterlimit="10" stroke-linecap="round" stroke-linejoin="round"/>
<path d="M18.9561 41.8901H19.9444L20.9747 42.758L20.5886 43.9375L20.1297 43.6132L20.0271 42.8208L18.9561 41.8901Z" fill="white" stroke="white" stroke-width="0.384615" stroke-miterlimit="10" stroke-linecap="round" stroke-linejoin="round"/>
<path d="M16.6406 42.1452H17.629L18.6284 43.0657L18.2434 44.2452L17.7845 43.9208L17.6808 43.1285L16.6406 42.1452Z" fill="white" stroke="white" stroke-width="0.384615" stroke-miterlimit="10" stroke-linecap="round" stroke-linejoin="round"/>
<path d="M14.2271 42.526H15.2154L16.3052 43.6234L15.9203 44.8029L15.4614 44.4798L15.3577 43.6863L14.2271 42.526Z" fill="white" stroke="white" stroke-width="0.384615" stroke-miterlimit="10" stroke-linecap="round" stroke-linejoin="round"/>
<path d="M11.769 42.5888H12.7585L13.8472 43.6862L13.4623 44.8657L13.0034 44.5427L12.9008 43.7478L11.769 42.5888Z" fill="white" stroke="white" stroke-width="0.384615" stroke-miterlimit="10" stroke-linecap="round" stroke-linejoin="round"/>
<path d="M7.15485 19.4324L7.77478 21.7927L8.85029 21.7734L8.39361 19.5478L6.51727 16.8222L5.25977 16.7504L6.95961 19.1619L7.15485 19.4324Z" fill="white" stroke="white" stroke-width="0.384615" stroke-miterlimit="10" stroke-linecap="round" stroke-linejoin="round"/>
<path d="M9.93033 19.2581L8.01318 16.7824L9.22657 16.8619L11.0731 19.1914L11.3654 21.7734H10.3274L9.93033 19.2581Z" fill="white" stroke="white" stroke-width="0.384615" stroke-miterlimit="10" stroke-linecap="round" stroke-linejoin="round"/>
<path d="M10.7114 16.8478L12.8426 19.3978L12.9882 21.8119L13.9776 21.8311L13.9137 19.5119L11.8068 16.9388L10.7114 16.8478Z" fill="white" stroke="white" stroke-width="0.384615" stroke-miterlimit="10" stroke-linecap="round" stroke-linejoin="round"/>
<path d="M13.2944 16.9478L15.4366 19.5876L15.6341 21.6799L16.6754 21.7376L16.6257 19.835L14.4516 16.9888L13.2944 16.9478Z" fill="white" stroke="white" stroke-width="0.384615" stroke-miterlimit="10" stroke-linecap="round" stroke-linejoin="round"/>
<path d="M15.9346 16.8824L18.0172 19.6055L18.261 21.6991H19.1368L18.9261 19.7196L16.795 16.9388L15.9346 16.8824Z" fill="white" stroke="white" stroke-width="0.384615" stroke-miterlimit="10" stroke-linecap="round" stroke-linejoin="round"/>
<path d="M18.0918 17.0132L20.5153 20.0016L20.6134 21.7927H21.4242L21.3106 20.0081L18.8706 17.0324L18.0918 17.0132Z" fill="white" stroke="white" stroke-width="0.384615" stroke-miterlimit="10" stroke-linecap="round" stroke-linejoin="round"/>
<path d="M20.3486 17.1388L22.7059 20.0388L22.9012 21.7926L23.8586 21.8119L23.5012 20.1337L20.9167 17.2157L20.3486 17.1388Z" fill="white" stroke="white" stroke-width="0.384615" stroke-miterlimit="10" stroke-linecap="round" stroke-linejoin="round"/>
</svg>
