<svg width="167" height="72" viewBox="0 0 167 72" fill="none" xmlns="http://www.w3.org/2000/svg">
<path d="M2.74244 19.598V37.3325C3.42538 35.5837 4.42694 34.1862 5.74613 33.1422C7.06531 32.0983 8.52555 31.5757 10.1289 31.5757C12.4141 31.5757 14.3635 32.5917 15.9779 34.6237C17.5914 36.6556 18.3991 39.1105 18.3991 41.9883C18.3991 44.866 17.5508 47.3209 15.8541 49.3528C14.1108 51.3848 12.06 52.4008 9.7047 52.4008C7.30175 52.4008 5.25194 51.3848 3.55527 49.3528C1.85859 47.378 1.01025 44.9232 1.01025 41.9883V19.598H2.74244ZM9.7047 50.3263C11.6135 50.3263 13.2503 49.5157 14.6171 47.8921C15.983 46.2697 16.667 44.3022 16.667 41.9883C16.667 39.6756 15.9891 37.7068 14.6344 36.0844C13.2787 34.462 11.6358 33.6502 9.7047 33.6502C7.7726 33.6502 6.12869 34.462 4.77501 36.0844C3.4203 37.7068 2.74244 39.6756 2.74244 41.9883C2.74244 44.3022 3.41929 46.2709 4.77501 47.8921C6.12869 49.5157 7.7726 50.3263 9.7047 50.3263Z" fill="#56575B"/>
<path d="M34.0364 51.194C32.705 51.9985 31.2742 52.4008 29.743 52.4008C27.1979 52.4008 25.0426 51.3848 23.2759 49.3528C21.4849 47.3501 20.5898 44.8952 20.5898 41.9883C20.5898 39.1384 21.3793 36.6981 22.9573 34.6662C24.5596 32.6063 26.4917 31.577 28.7536 31.577C31.0388 31.577 32.9821 32.6075 34.5844 34.6662C36.1623 36.6981 36.9528 39.1384 36.9528 41.9883C36.9528 42.4403 36.9406 42.7782 36.9173 43.0042H22.3565C22.592 45.0921 23.4109 46.8348 24.8123 48.2311C26.2136 49.6275 27.8575 50.3263 29.7419 50.3263C30.9901 50.3263 32.1632 49.9945 33.2581 49.3322M28.7526 33.6502C27.1269 33.6502 25.7012 34.349 24.4764 35.7454C23.2505 37.1417 22.5443 38.8844 22.3555 40.9723H35.1841C34.9953 38.8844 34.2881 37.1417 33.0633 35.7454C31.8395 34.349 30.4015 33.6502 28.7526 33.6502Z" fill="#56575B"/>
<path d="M45.1156 52.3995C43.9841 52.3995 42.9247 52.1455 41.9353 51.6376C40.9693 51.1575 40.0499 50.3968 39.1782 49.3516L40.4152 47.8702C41.7344 49.5072 43.3012 50.3251 45.1156 50.3251C46.4114 50.3251 47.4952 49.8742 48.3669 48.97C49.1442 48.123 49.5328 47.1362 49.5328 46.0072C49.5328 44.7092 49.1442 43.7929 48.3669 43.2558C47.7773 42.8329 46.729 42.4804 45.2211 42.1973C43.5011 41.8582 42.3108 41.4499 41.6522 40.9698C40.3797 40.1228 39.7434 38.741 39.7434 36.8221C39.7434 35.2422 40.2731 33.9443 41.3336 32.9283C42.2996 32.0254 43.5599 31.5733 45.1146 31.5733C46.9289 31.5733 48.5657 32.2368 50.027 33.5627L49.0021 35.2131C47.8006 34.1691 46.5048 33.6466 45.1146 33.6466C43.9598 33.6466 43.0526 33.9577 42.393 34.5775C41.7801 35.1426 41.4736 35.89 41.4736 36.8209C41.4736 37.9778 41.8146 38.7677 42.4985 39.1907C43.3235 39.6987 44.3474 40.0657 45.5732 40.2905C47.482 40.6575 48.7068 41.0391 49.2487 41.4329C50.5912 42.3929 51.263 43.9157 51.263 46.0035C51.263 47.7815 50.6734 49.2909 49.4963 50.5317C48.3202 51.7797 46.8589 52.3995 45.1156 52.3995Z" fill="#56575B"/>
<path d="M57.7685 44.6121C57.7685 46.1931 58.2333 47.5397 59.1649 48.6541C60.0954 49.7697 61.2197 50.3263 62.5399 50.3263V52.4008C60.7489 52.4008 59.2176 51.6388 57.9451 50.1149C56.6726 48.5909 56.0364 46.757 56.0364 44.6121V34.2846H52.502V32.2114H56.0364V26.5822L57.7675 25.5237V32.2114H62.7155V34.2846H57.7675V44.6121H57.7685Z" fill="#56575B"/>
<path d="M67.269 32.2113H72.0343V34.2846H67.269V51.7652H65.5399V34.2846H62.7158V32.2113H65.5399V27.3867C65.5399 25.2429 66.1751 23.4079 67.4456 21.8839C68.7161 20.3599 70.2453 19.598 72.0343 19.598V21.6712C70.7162 21.6712 69.5928 22.229 68.6633 23.3434C67.7338 24.4579 67.269 25.8056 67.269 27.3855V32.2113Z" fill="#56575B"/>
<path d="M85.1569 51.194C83.8275 51.9985 82.3978 52.4008 80.8685 52.4008C78.3276 52.4008 76.1742 51.3848 74.4096 49.3528C72.6206 47.3501 71.7266 44.8952 71.7266 41.9883C71.7266 39.1384 72.515 36.6981 74.092 34.6662C75.6922 32.6063 77.6213 31.577 79.8812 31.577C82.1633 31.577 84.1046 32.6075 85.7049 34.6662C87.2808 36.6981 88.0703 39.1384 88.0703 41.9883C88.0703 42.4403 88.0581 42.7782 88.0347 43.0042H73.4912C73.7267 45.0921 74.5435 46.8348 75.9449 48.2311C77.3443 49.6275 78.9861 50.3263 80.8685 50.3263C82.1157 50.3263 83.2867 49.9945 84.3806 49.3322M79.8801 33.6502C78.2565 33.6502 76.8328 34.349 75.609 35.7454C74.3852 37.1417 73.679 38.8844 73.4912 40.9723H86.3046C86.1158 38.8844 85.4096 37.1417 84.1868 35.7454C82.962 34.349 81.5271 33.6502 79.8801 33.6502Z" fill="#56575B"/>
<path d="M110.824 32.2113H112.625L108.141 51.6388C108.024 52.1468 107.765 52.4008 107.365 52.4008H107.295C106.894 52.4008 106.624 52.1747 106.483 51.7238L101.295 35.4707L96.1053 51.7226C95.9643 52.1735 95.6822 52.3995 95.258 52.3995C94.8572 52.3995 94.5994 52.1455 94.4817 51.6376L89.9985 32.2101H91.7987L95.4346 48.0391L100.518 32.2101C100.635 31.7592 100.894 31.5332 101.294 31.5332C101.717 31.5332 101.988 31.7592 102.106 32.2101L107.189 48.0391L110.824 32.2113Z" fill="#56575B"/>
<path d="M122.961 52.3995C120.561 52.3995 118.513 51.3836 116.818 49.3516C115.124 47.3197 114.277 44.8648 114.277 41.987C114.277 39.0533 115.125 36.5985 116.818 34.6224C118.513 32.5905 120.56 31.5745 122.961 31.5745C125.314 31.5745 127.361 32.5905 129.102 34.6224C130.797 36.6544 131.644 39.1093 131.644 41.987C131.644 44.8369 130.784 47.2917 129.067 49.3516C127.373 51.3848 125.337 52.3995 122.961 52.3995ZM122.961 33.6502C121.031 33.6502 119.39 34.462 118.037 36.0844C116.683 37.7068 116.008 39.6756 116.008 41.9882C116.008 44.3021 116.683 46.2709 118.037 47.8921C119.39 49.5145 121.032 50.3263 122.961 50.3263C124.866 50.3263 126.502 49.5157 127.867 47.8921C129.232 46.2697 129.915 44.3021 129.915 41.9882C129.915 39.6756 129.232 37.7068 127.867 36.0844C126.502 34.462 124.866 33.6502 122.961 33.6502Z" fill="#56575B"/>
<path fill-rule="evenodd" clip-rule="evenodd" d="M161.65 21.8753C157.194 19.497 151.029 24.2451 147.882 32.4774C144.736 40.7134 145.785 49.3625 150.259 51.6947C154.715 54.0171 160.88 49.2811 164.029 41.0913C167.192 32.8663 166.11 24.2536 161.65 21.8753Z" fill="#AAC89B"/>
<path fill-rule="evenodd" clip-rule="evenodd" d="M139.915 20.8667C144.422 17.3922 151.766 21.3297 156.32 29.6605C160.873 37.9936 160.925 47.5907 156.404 51.0396C151.899 54.4777 144.556 50.5645 140.002 42.2459C135.444 33.9176 135.412 24.3412 139.915 20.8667Z" fill="#9DE9E5"/>
<path fill-rule="evenodd" clip-rule="evenodd" d="M152.737 24.5721C154.358 26.2224 155.86 28.3054 157.104 30.7396C161.329 39.0205 160.947 48.2202 156.249 51.2876C155.793 51.5865 155.312 51.8126 154.811 51.9766C154.108 52.1735 153.413 52.278 152.738 52.2853C152.065 52.2792 151.369 52.1735 150.667 51.9766C150.166 51.8126 149.684 51.5865 149.226 51.2876C144.531 48.2202 144.149 39.0205 148.374 30.7396C149.613 28.3066 151.116 26.2224 152.737 24.5721Z" fill="#214E3C"/>
<path fill-rule="evenodd" clip-rule="evenodd" d="M161.774 21.8608C157.295 19.4716 151.1 24.2428 147.938 32.5164C144.777 40.7925 145.829 49.4853 150.327 51.8284C154.805 54.1617 161.001 49.4027 164.165 41.1728C167.344 32.9053 166.257 24.2501 161.774 21.8608Z" fill="#B1A89C"/>
<path fill-rule="evenodd" clip-rule="evenodd" d="M139.933 20.8473C144.462 17.3558 151.842 21.3127 156.418 29.6848C160.994 38.0593 161.047 47.7037 156.504 51.1697C151.976 54.6247 144.597 50.6921 140.021 42.3322C135.439 33.9613 135.406 24.3388 139.933 20.8473Z" fill="#00B875"/>
<path fill-rule="evenodd" clip-rule="evenodd" d="M152.817 24.5709C154.446 26.2297 155.956 28.3224 157.206 30.7688C161.452 39.091 161.067 48.3356 156.346 51.4176C155.889 51.7178 155.405 51.945 154.901 52.1103C154.196 52.3084 153.497 52.4141 152.818 52.4202C152.142 52.4141 151.442 52.3084 150.737 52.1103C150.232 51.945 149.748 51.7178 149.289 51.4176C144.57 48.3344 144.186 39.0898 148.432 30.7688C149.678 28.3224 151.188 26.2297 152.817 24.5709Z" fill="#214E3C"/>
</svg>
