<svg width="146" height="20" viewBox="0 0 146 20" fill="none" xmlns="http://www.w3.org/2000/svg">
<g clip-path="url(#clip0_18_558)">
<g clip-path="url(#clip1_18_558)">
<path d="M17.6813 0L1.96459 0C0.879576 0 0 0.879576 0 1.96459L0 17.6813C0 18.7663 0.879576 19.6459 1.96459 19.6459H17.6813C18.7663 19.6459 19.6459 18.7663 19.6459 17.6813V1.96459C19.6459 0.879576 18.7663 0 17.6813 0Z" fill="#EAA509"/>
</g>
<g clip-path="url(#clip2_18_558)">
<path d="M9.23596 1.83495C10.3451 1.83495 11.4233 2.19434 12.4705 2.91312C12.8608 3.16407 13.1443 3.61641 13.3209 4.27012C13.4294 4.63881 13.4836 5.03073 13.4836 5.44588V5.58995C13.4836 6.94076 12.8949 8.43408 11.7176 10.0699C11.3055 10.5594 10.9415 10.908 10.6255 11.1156C9.9284 11.5493 9.26849 11.7662 8.64575 11.7662H8.45057C7.75348 11.7662 7.1168 11.4997 6.54054 10.9669H6.52195C6.17495 12.1658 6.00145 13.0969 6.00145 13.7599C6.00145 14.5871 6.27254 15.1045 6.81473 15.3121C7.00062 15.3771 7.16482 15.4096 7.30734 15.4096H7.45605C8.53422 15.4096 10.0152 14.4399 11.8988 12.5005C13.0978 11.1961 14.0289 10.0591 14.6919 9.08935C15.4757 7.94612 16.227 6.70375 16.9458 5.36223C17.0759 5.15466 17.1797 5.05087 17.2572 5.05087C17.3997 5.05087 17.4709 5.13917 17.4709 5.31576C17.4709 5.90132 16.8389 7.43027 15.5748 9.90262C14.887 11.2101 13.956 12.5826 12.7818 14.0201C11.9422 15.0022 11.1956 15.7427 10.5418 16.2415C9.12597 17.2887 7.67757 17.8123 6.19664 17.8123H5.98286C5.26409 17.8123 4.68627 17.6868 4.24943 17.4359C3.41292 17.0238 2.82581 16.3438 2.48811 15.3957C2.28053 14.8504 2.17674 14.3113 2.17674 13.7785V13.4671C2.17674 12.7483 2.45403 11.523 3.00861 9.79109C3.57557 8.03752 4.19676 6.57208 4.87217 5.39477C5.20057 4.78442 5.65291 4.13071 6.22917 3.43361C6.84881 2.79229 7.30579 2.40657 7.60012 2.27644C8.04626 1.98211 8.59154 1.83495 9.23596 1.83495ZM6.93091 9.83756C7.16947 10.0792 7.43127 10.2001 7.7163 10.2001H7.73024C8.39635 10.2001 9.16005 9.52929 10.0213 8.18778C10.2475 7.82839 10.4814 7.32803 10.7231 6.68671C11.005 5.81612 11.146 5.12987 11.146 4.62796V4.46531C11.146 4.02846 11.0205 3.81004 10.7696 3.81004H10.737C9.99656 3.81004 8.87967 5.44434 7.38634 8.71292C7.16018 9.24581 7.00836 9.62069 6.93091 9.83756Z" fill="#FEF8EB"/>
</g>
</g>
<path d="M32.8102 4.07689C33.8218 4.07689 34.6902 4.27009 35.4152 4.6565C36.1446 5.04291 36.7091 5.60298 37.1085 6.33672C37.5079 7.07046 37.7076 7.97136 37.7076 9.03941V10.4787H30.6676C30.6937 11.321 30.9433 11.9809 31.4166 12.4585C31.8898 12.9404 32.5476 13.1814 33.3899 13.1814C34.0932 13.1814 34.7336 13.1119 35.311 12.973C35.8841 12.8297 36.4768 12.6126 37.0889 12.3217V14.6206C36.5549 14.8855 35.9905 15.083 35.3957 15.2133C34.8052 15.3392 34.0889 15.4021 33.2466 15.4021C32.1525 15.4021 31.1865 15.1981 30.3485 14.7899C29.5062 14.3818 28.8463 13.7653 28.3687 12.9404C27.8868 12.1155 27.6458 11.0756 27.6458 9.82091C27.6458 8.54012 27.8629 7.47641 28.2971 6.62979C28.7312 5.78316 29.3347 5.14711 30.1076 4.72162C30.8804 4.2918 31.7813 4.07689 32.8102 4.07689ZM32.8298 6.19996C32.2567 6.19996 31.7791 6.38665 31.397 6.76004C31.0193 7.13342 30.7957 7.71303 30.7262 8.49887H34.9073C34.8942 7.8346 34.7206 7.28538 34.3863 6.85121C34.052 6.41704 33.5331 6.19996 32.8298 6.19996ZM44.6109 4.05735C46.0784 4.05735 47.2007 4.37429 47.9778 5.00817C48.7593 5.64206 49.1501 6.61242 49.1501 7.91926V15.2002H47.0726L46.4865 13.7219H46.4083C45.9438 14.308 45.451 14.7335 44.93 14.9983C44.409 15.2675 43.6948 15.4021 42.7874 15.4021C41.8149 15.4021 41.0095 15.1177 40.3712 14.549C39.7287 13.9846 39.4074 13.1141 39.4074 11.9375C39.4074 10.7782 39.8155 9.92294 40.6318 9.37155C41.4436 8.81581 42.6636 8.5119 44.2918 8.4598L46.1869 8.40118V7.91926C46.1869 7.34616 46.0371 6.92719 45.7375 6.66235C45.438 6.39316 45.0212 6.25857 44.4871 6.25857C43.9531 6.25857 43.4343 6.33455 42.9307 6.48651C42.4227 6.64281 41.9147 6.83384 41.4067 7.05961L40.4299 5.04074C41.016 4.73248 41.6651 4.49152 42.3771 4.31785C43.0935 4.14418 43.8381 4.05735 44.6109 4.05735ZM46.1869 10.14L45.0277 10.1791C44.0682 10.2051 43.4017 10.3788 43.0283 10.7001C42.655 11.0214 42.4683 11.4403 42.4683 11.957C42.4683 12.4129 42.6029 12.7363 42.872 12.9274C43.1369 13.1227 43.4821 13.2204 43.9075 13.2204C44.5501 13.2204 45.0906 13.0294 45.5291 12.6473C45.9677 12.2696 46.1869 11.7334 46.1869 11.0387V10.14ZM59.8306 11.957C59.8306 13.0641 59.4398 13.9151 58.6583 14.5099C57.8812 15.1047 56.7176 15.4021 55.1676 15.4021C54.4079 15.4021 53.7544 15.3522 53.2074 15.2523C52.6603 15.1525 52.1155 14.9875 51.5727 14.7574V12.3022C52.1589 12.567 52.7906 12.7863 53.4679 12.9599C54.1495 13.1336 54.7508 13.2204 55.2718 13.2204C55.858 13.2204 56.2748 13.1336 56.5222 12.9599C56.7697 12.7863 56.8935 12.5605 56.8935 12.2826C56.8935 12.0959 56.8435 11.9288 56.7437 11.7812C56.6395 11.6336 56.4224 11.4664 56.0924 11.2797C55.7581 11.093 55.2371 10.8521 54.5294 10.5568C53.8478 10.2659 53.2877 9.97721 52.8492 9.69066C52.4107 9.40411 52.0851 9.05678 51.8723 8.64866C51.6552 8.24054 51.5467 7.7304 51.5467 7.11822C51.5467 6.10661 51.9418 5.34682 52.732 4.83885C53.5178 4.33087 54.5642 4.07689 55.871 4.07689C56.5526 4.07689 57.1995 4.14418 57.8117 4.27877C58.4239 4.41336 59.0578 4.63262 59.7134 4.93654L58.8081 7.07915C58.2784 6.85338 57.7726 6.66235 57.2907 6.50605C56.8088 6.35409 56.3225 6.27811 55.8319 6.27811C55.3891 6.27811 55.0591 6.33889 54.842 6.46046C54.6206 6.57769 54.5099 6.75786 54.5099 7.001C54.5099 7.17466 54.5663 7.33096 54.6792 7.4699C54.7921 7.60883 55.0135 7.75862 55.3435 7.91926C55.6691 8.0799 56.151 8.29264 56.7893 8.55748C57.4188 8.81364 57.9593 9.07848 58.4109 9.35201C58.8624 9.62553 59.2119 9.96418 59.4594 10.368C59.7069 10.7761 59.8306 11.3058 59.8306 11.957ZM64.9299 15.1221L60.5926 4.27877H63.8488L65.9133 10.4201C66.0175 10.7153 66.0978 11.0192 66.1542 11.3318C66.2063 11.6444 66.2454 11.9744 66.2715 12.3217H66.3301C66.3691 11.9744 66.4256 11.6444 66.4994 11.3318C66.5732 11.0192 66.6579 10.7153 66.7534 10.4201L68.7723 4.27877H71.9699L67.3525 16.6004C66.9401 17.7336 66.3366 18.5846 65.5421 19.1533C64.7475 19.7177 63.8314 19.9999 62.7938 19.9999C62.4595 19.9999 62.1686 19.9826 61.9211 19.9478C61.6736 19.9175 61.4565 19.8827 61.2699 19.8436V17.4796C61.4175 17.5057 61.5955 17.5317 61.8039 17.5578C62.0079 17.5881 62.2229 17.6033 62.4486 17.6033C63.0782 17.6033 63.5753 17.4123 63.94 17.0302C64.309 16.6482 64.5804 16.1923 64.754 15.6626L64.9299 15.1221Z" fill="#EAA509"/>
<path d="M78.8208 15.4021C77.8743 15.4021 77.032 15.2089 76.2939 14.8224C75.5515 14.436 74.9719 13.8347 74.5551 13.0185C74.1339 12.2066 73.9234 11.1668 73.9234 9.899C73.9234 8.57913 74.1426 7.50674 74.5811 6.68182C75.024 5.85256 75.621 5.24473 76.3721 4.85832C77.1275 4.47191 77.985 4.27871 78.9445 4.27871C79.4916 4.27871 80.0169 4.33515 80.5205 4.44804C81.0285 4.56092 81.4431 4.69768 81.7644 4.85832L81.2239 6.31712C80.9026 6.1999 80.5292 6.08701 80.1037 5.97847C79.6783 5.87427 79.2788 5.82217 78.9054 5.82217C76.7954 5.82217 75.7404 7.1746 75.7404 9.87946C75.7404 11.1733 75.9987 12.1632 76.5154 12.8492C77.0277 13.5351 77.7896 13.8781 78.8012 13.8781C79.3874 13.8781 79.904 13.8195 80.3512 13.7023C80.7984 13.5807 81.2087 13.4331 81.5821 13.2594V14.8224C81.2217 15.0091 80.8266 15.1524 80.3968 15.2523C79.9626 15.3521 79.4373 15.4021 78.8208 15.4021ZM85.8868 0V4.46106C85.8868 4.71288 85.876 4.97121 85.8543 5.23605C85.8326 5.50523 85.8087 5.74619 85.7826 5.95894H85.9064C86.2537 5.41189 86.7226 4.99943 87.3131 4.72156C87.9079 4.43935 88.5526 4.29825 89.2473 4.29825C90.5541 4.29825 91.5332 4.60868 92.1844 5.22954C92.84 5.85039 93.1678 6.84681 93.1678 8.21877V15.2002H91.4225V8.34251C91.4225 6.61887 90.6236 5.75705 89.0259 5.75705C87.8232 5.75705 86.9983 6.09353 86.5511 6.76648C86.1083 7.44378 85.8868 8.40763 85.8868 9.65803V15.2002H84.1219V0L85.8868 0ZM100.546 4.29825C101.853 4.29825 102.819 4.5848 103.445 5.1579C104.074 5.731 104.389 6.64492 104.389 7.89966V15.2002H103.106L102.767 13.6828H102.689C102.22 14.2689 101.73 14.7009 101.217 14.9787C100.705 15.261 99.9951 15.4021 99.0877 15.4021C98.1108 15.4021 97.3032 15.1437 96.665 14.6271C96.0268 14.1148 95.7077 13.3115 95.7077 12.2174C95.7077 11.1537 96.1267 10.331 96.9646 9.74921C97.8069 9.16743 99.1007 8.85048 100.846 8.79838L102.663 8.73977V8.10155C102.663 7.20716 102.47 6.58631 102.083 6.23897C101.697 5.89164 101.152 5.71797 100.449 5.71797C99.8887 5.71797 99.3547 5.80264 98.8467 5.97196C98.3387 6.13694 97.8655 6.32581 97.427 6.53855L96.8864 5.21651C97.351 4.96469 97.9046 4.74978 98.5471 4.57177C99.1854 4.38942 99.8518 4.29825 100.546 4.29825ZM102.643 9.95761L101.067 10.0227C99.7346 10.0748 98.8098 10.2876 98.2931 10.661C97.7808 11.0343 97.5247 11.5597 97.5247 12.237C97.5247 12.8405 97.7092 13.2812 98.0782 13.559C98.4429 13.8412 98.9118 13.9823 99.4849 13.9823C100.392 13.9823 101.146 13.7305 101.745 13.2269C102.344 12.7276 102.643 11.9591 102.643 10.9215V9.95761ZM112.868 4.27871C114.149 4.27871 115.115 4.58914 115.766 5.21C116.422 5.83086 116.75 6.83378 116.75 8.21877V15.2002H115.011V8.34251C115.011 7.47418 114.815 6.82727 114.425 6.40178C114.038 5.97196 113.433 5.75705 112.608 5.75705C111.422 5.75705 110.602 6.09136 110.146 6.75997C109.694 7.42425 109.469 8.38376 109.469 9.6385V15.2002H107.704V4.4806H109.13L109.384 5.9394H109.488C109.835 5.37932 110.315 4.96252 110.927 4.689C111.54 4.41547 112.186 4.27871 112.868 4.27871ZM125.229 4.27871C126.51 4.27871 127.476 4.58914 128.127 5.21C128.782 5.83086 129.11 6.83378 129.11 8.21877V15.2002H127.371V8.34251C127.371 7.47418 127.178 6.82727 126.792 6.40178C126.401 5.97196 125.793 5.75705 124.968 5.75705C123.783 5.75705 122.962 6.09136 122.507 6.75997C122.055 7.42425 121.829 8.38376 121.829 9.6385V15.2002H120.071V4.4806H121.491L121.751 5.9394H121.849C122.196 5.37932 122.676 4.96252 123.288 4.689C123.9 4.41547 124.547 4.27871 125.229 4.27871ZM136.567 4.27871C137.488 4.27871 138.278 4.47843 138.938 4.87786C139.598 5.27729 140.106 5.84171 140.462 6.57111C140.813 7.29617 140.989 8.14496 140.989 9.1175V10.179H133.649C133.676 11.3947 133.986 12.3173 134.581 12.9468C135.176 13.5807 136.005 13.8977 137.069 13.8977C137.75 13.8977 138.354 13.8347 138.879 13.7088C139.404 13.5829 139.947 13.4005 140.507 13.1618V14.6987C139.964 14.9418 139.426 15.1198 138.892 15.2327C138.358 15.3456 137.724 15.4021 136.99 15.4021C135.979 15.4021 135.082 15.1958 134.301 14.7834C133.519 14.3666 132.911 13.7479 132.477 12.9273C132.047 12.1111 131.833 11.1081 131.833 9.91853C131.833 8.74628 132.028 7.73902 132.419 6.89673C132.814 6.05879 133.367 5.41189 134.079 4.95601C134.791 4.50448 135.621 4.27871 136.567 4.27871ZM136.548 5.71797C135.71 5.71797 135.048 5.98933 134.561 6.53203C134.075 7.0704 133.784 7.81934 133.689 8.77885H139.153C139.14 7.87144 138.925 7.13553 138.508 6.57111C138.095 6.00235 137.442 5.71797 136.548 5.71797ZM145.47 0V15.2002H143.711V0L145.47 0Z" fill="#EAA509"/>
<defs>
<clipPath id="clip0_18_558">
<rect width="19.646" height="19.646" fill="white"/>
</clipPath>
<clipPath id="clip1_18_558">
<rect width="19.646" height="19.646" fill="white"/>
</clipPath>
<clipPath id="clip2_18_558">
<rect width="15.9787" height="15.9787" fill="white" transform="translate(1.83348 1.83361)"/>
</clipPath>
</defs>
</svg>
